<svg width="333" height="120" viewBox="0 0 333 120" fill="none" xmlns="http://www.w3.org/2000/svg">
<path fill-rule="evenodd" clip-rule="evenodd" d="M0 8C0 3.58172 3.58172 0 8 0H325C329.418 0 333 3.58172 333 8V41.0556C332.678 41.032 332.353 41.0201 332.026 41.0201C323.422 41.0201 316.447 49.2856 316.447 59.4816C316.447 69.6776 323.422 77.9432 332.026 77.9432C332.353 77.9432 332.678 77.9312 333 77.9077V112C333 116.418 329.418 120 325 120H8C3.58172 120 0 116.418 0 112V77.9432C8.60402 77.9432 15.5789 69.6776 15.5789 59.4816C15.5789 49.2856 8.60402 41.0201 0 41.0201V8Z" fill="white"/>
<path d="M150 21.5417C150 22.094 150.448 22.5417 151 22.5417C151.552 22.5417 152 22.094 152 21.5417H150ZM152 28.625C152 28.0727 151.552 27.625 151 27.625C150.448 27.625 150 28.0727 150 28.625H152ZM150 35.7083C150 36.2606 150.448 36.7083 151 36.7083C151.552 36.7083 152 36.2606 152 35.7083H150ZM152 42.7917C152 42.2394 151.552 41.7917 151 41.7917C150.448 41.7917 150 42.2394 150 42.7917H152ZM150 49.875C150 50.4273 150.448 50.875 151 50.875C151.552 50.875 152 50.4273 152 49.875H150ZM152 56.9583C152 56.4061 151.552 55.9583 151 55.9583C150.448 55.9583 150 56.4061 150 56.9583H152ZM150 64.0417C150 64.594 150.448 65.0417 151 65.0417C151.552 65.0417 152 64.594 152 64.0417H150ZM152 71.125C152 70.5727 151.552 70.125 151 70.125C150.448 70.125 150 70.5727 150 71.125H152ZM150 78.2083C150 78.7606 150.448 79.2083 151 79.2083C151.552 79.2083 152 78.7606 152 78.2083H150ZM152 85.2917C152 84.7394 151.552 84.2917 151 84.2917C150.448 84.2917 150 84.7394 150 85.2917H152ZM150 92.375C150 92.9273 150.448 93.375 151 93.375C151.552 93.375 152 92.9273 152 92.375H150ZM152 99.4583C152 98.9061 151.552 98.4583 151 98.4583C150.448 98.4583 150 98.9061 150 99.4583H152ZM150 18V21.5417H152V18H150ZM150 28.625V35.7083H152V28.625H150ZM150 42.7917V49.875H152V42.7917H150ZM150 56.9583V64.0417H152V56.9583H150ZM150 71.125V78.2083H152V71.125H150ZM150 85.2917V92.375H152V85.2917H150ZM150 99.4583V103H152V99.4583H150Z" fill="black" fill-opacity="0.2"/>
</svg>
