<svg width="375" height="581" viewBox="0 0 375 581" fill="none" xmlns="http://www.w3.org/2000/svg">
<path d="M0 0H375V525.007C375 525.007 332.292 581 185.938 581C39.5833 581 0 525.007 0 525.007V0Z" fill="#FFF9E7"/>
<path opacity="0.5" fill-rule="evenodd" clip-rule="evenodd" d="M26.8176 278.67L0.019043 409.891L83.7082 409.837L57.679 278.67H26.8176Z" fill="url(#paint0_linear_630_7561)"/>
<path fill-rule="evenodd" clip-rule="evenodd" d="M53.4472 278.099V278.099C53.7511 278.099 54.0003 278.348 54.0003 278.653V279.696C54.0003 280 53.7511 280.25 53.4472 280.25V280.25C53.1425 280.25 52.894 280 52.894 279.696V278.653C52.894 278.348 53.1425 278.099 53.4472 278.099" fill="#FFC107"/>
<path fill-rule="evenodd" clip-rule="evenodd" d="M53.4472 280.604V280.604C53.7511 280.604 54.0003 280.854 54.0003 281.159V282.201C54.0003 282.506 53.7511 282.755 53.4472 282.755V282.755C53.1425 282.755 52.894 282.506 52.894 282.201V281.159C52.894 280.854 53.1425 280.604 53.4472 280.604" fill="#FFC107"/>
<path fill-rule="evenodd" clip-rule="evenodd" d="M53.4472 283.076V283.076C53.7511 283.076 54.0003 283.325 54.0003 283.631V284.673C54.0003 284.977 53.7511 285.227 53.4472 285.227V285.227C53.1425 285.227 52.894 284.977 52.894 284.673V283.631C52.894 283.325 53.1425 283.076 53.4472 283.076" fill="#FFC107"/>
<path fill-rule="evenodd" clip-rule="evenodd" d="M53.4472 285.548V285.548C53.7511 285.548 54.0003 285.797 54.0003 286.102V287.145C54.0003 287.449 53.7511 287.699 53.4472 287.699V287.699C53.1425 287.699 52.894 287.449 52.894 287.145V286.102C52.894 285.797 53.1425 285.548 53.4472 285.548" fill="#FFC107"/>
<path fill-rule="evenodd" clip-rule="evenodd" d="M53.4472 288.02V288.02C53.7511 288.02 54.0003 288.269 54.0003 288.574V289.617C54.0003 289.921 53.7511 290.17 53.4472 290.17V290.17C53.1425 290.17 52.894 289.921 52.894 289.617V288.574C52.894 288.269 53.1425 288.02 53.4472 288.02" fill="#FFC107"/>
<path fill-rule="evenodd" clip-rule="evenodd" d="M53.4472 290.492V290.492C53.7511 290.492 54.0003 290.741 54.0003 291.046V292.088C54.0003 292.393 53.7511 292.643 53.4472 292.643V292.643C53.1425 292.643 52.894 292.393 52.894 292.088V291.046C52.894 290.741 53.1425 290.492 53.4472 290.492" fill="#FFC107"/>
<path fill-rule="evenodd" clip-rule="evenodd" d="M53.4472 292.963V292.963C53.7511 292.963 54.0003 293.213 54.0003 293.517V294.56C54.0003 294.864 53.7511 295.114 53.4472 295.114V295.114C53.1425 295.114 52.894 294.864 52.894 294.56V293.517C52.894 293.213 53.1425 292.963 53.4472 292.963" fill="#FFC107"/>
<path fill-rule="evenodd" clip-rule="evenodd" d="M53.4472 295.434V295.434C53.7511 295.434 54.0003 295.684 54.0003 295.989V297.031C54.0003 297.336 53.7511 297.586 53.4472 297.586V297.586C53.1425 297.586 52.894 297.336 52.894 297.031V295.989C52.894 295.684 53.1425 295.434 53.4472 295.434" fill="#FFC107"/>
<path fill-rule="evenodd" clip-rule="evenodd" d="M53.0782 296.916C52.8733 296.916 52.6508 297.084 52.5862 297.291L51.2349 301.571C51.1696 301.778 51.284 301.946 51.4897 301.946H55.4045C55.6102 301.946 55.7253 301.778 55.66 301.571L54.3088 297.291C54.2442 297.084 54.0224 296.916 53.816 296.916H53.0782Z" fill="#FFC107"/>
<path fill-rule="evenodd" clip-rule="evenodd" d="M41.5402 280.714H42.9995C43.347 280.714 43.6313 281 43.6313 281.348V414.355C43.6313 414.703 43.347 414.988 42.9995 414.988H41.5402C41.192 414.988 40.9077 414.703 40.9077 414.355V281.348C40.9077 281 41.192 280.714 41.5402 280.714" fill="#FFC107"/>
<path fill-rule="evenodd" clip-rule="evenodd" d="M40.2588 269.184H44.2803C45.2392 269.184 46.0233 269.971 46.0233 270.932V282.223C46.0233 283.186 45.2392 283.972 44.2803 283.972H40.2588C39.3 283.972 38.5159 283.186 38.5159 282.223V270.932C38.5159 269.971 39.3 269.184 40.2588 269.184" fill="#FFC107"/>
<path fill-rule="evenodd" clip-rule="evenodd" d="M40.2588 409.342H44.2803C45.2392 409.342 46.0233 410.128 46.0233 411.089V418.887C46.0233 419.848 45.2392 420.634 44.2803 420.634H40.2588C39.3 420.634 38.5159 419.848 38.5159 418.887V411.089C38.5159 410.128 39.3 409.342 40.2588 409.342" fill="#FDE798"/>
<path fill-rule="evenodd" clip-rule="evenodd" d="M34.6185 421.508H49.9197C50.7452 421.508 51.4198 420.831 51.4198 420.003C51.4198 419.176 50.7452 418.5 49.9197 418.5H34.6185C33.7937 418.5 33.1191 419.176 33.1191 420.003C33.1191 420.831 33.7937 421.508 34.6185 421.508" fill="#FEF4CB"/>
<path fill-rule="evenodd" clip-rule="evenodd" d="M42.2695 252.126H35.1987C34.1135 252.126 32.9461 253.016 32.6029 254.103L25.4766 276.676C25.1334 277.763 25.7399 278.653 26.8244 278.653H42.2695H57.7146C58.7991 278.653 59.4056 277.763 59.0617 276.676L51.9361 254.103C51.5929 253.016 50.4248 252.126 49.3403 252.126H42.2695Z" fill="#FFC107"/>
<path fill-rule="evenodd" clip-rule="evenodd" d="M27.2895 270.932L25.6638 276.083H58.8753L57.2489 270.932H27.2895ZM28.5943 266.799L27.7815 269.373H56.7567L55.9439 266.799H28.5943Z" fill="#7952B3"/>
<path fill-rule="evenodd" clip-rule="evenodd" d="M53.4474 280.736C53.2768 280.736 53.1379 280.597 53.1379 280.426C53.1379 280.254 53.2768 280.115 53.4474 280.115C53.618 280.115 53.757 280.254 53.757 280.426C53.757 280.597 53.618 280.736 53.4474 280.736" fill="#FFC107"/>
<path fill-rule="evenodd" clip-rule="evenodd" d="M53.4474 283.208C53.2768 283.208 53.1379 283.069 53.1379 282.898C53.1379 282.726 53.2768 282.587 53.4474 282.587C53.618 282.587 53.757 282.726 53.757 282.898C53.757 283.069 53.618 283.208 53.4474 283.208" fill="#FFC107"/>
<path fill-rule="evenodd" clip-rule="evenodd" d="M53.4474 285.68C53.2768 285.68 53.1379 285.54 53.1379 285.369C53.1379 285.197 53.2768 285.058 53.4474 285.058C53.618 285.058 53.757 285.197 53.757 285.369C53.757 285.54 53.618 285.68 53.4474 285.68" fill="#FFC107"/>
<path fill-rule="evenodd" clip-rule="evenodd" d="M53.4474 288.151C53.2768 288.151 53.1379 288.012 53.1379 287.841C53.1379 287.669 53.2768 287.53 53.4474 287.53C53.618 287.53 53.757 287.669 53.757 287.841C53.757 288.012 53.618 288.151 53.4474 288.151" fill="#FFC107"/>
<path fill-rule="evenodd" clip-rule="evenodd" d="M53.4474 290.623C53.2768 290.623 53.1379 290.483 53.1379 290.312C53.1379 290.141 53.2768 290.001 53.4474 290.001C53.618 290.001 53.757 290.141 53.757 290.312C53.757 290.483 53.618 290.623 53.4474 290.623" fill="#FFC107"/>
<path fill-rule="evenodd" clip-rule="evenodd" d="M53.4474 293.095C53.2768 293.095 53.1379 292.955 53.1379 292.784C53.1379 292.612 53.2768 292.473 53.4474 292.473C53.618 292.473 53.757 292.612 53.757 292.784C53.757 292.955 53.618 293.095 53.4474 293.095" fill="#FFC107"/>
<path fill-rule="evenodd" clip-rule="evenodd" d="M53.4474 295.566C53.2768 295.566 53.1379 295.427 53.1379 295.256C53.1379 295.085 53.2768 294.945 53.4474 294.945C53.618 294.945 53.757 295.085 53.757 295.256C53.757 295.427 53.618 295.566 53.4474 295.566" fill="#FFC107"/>
<path fill-rule="evenodd" clip-rule="evenodd" d="M342.995 405.686C341.107 398.587 338.966 390.541 334.142 384.335L334.494 384.059C339.374 390.339 341.526 398.431 343.426 405.571L342.995 405.686Z" fill="#F5C03D"/>
<path fill-rule="evenodd" clip-rule="evenodd" d="M337.839 382.265C337.998 382.428 338.068 382.558 338.184 382.706C338.267 382.84 338.343 382.974 338.392 383.096C338.506 383.346 338.552 383.571 338.56 383.781C338.567 383.992 338.491 384.172 338.343 384.325C338.191 384.475 338.021 384.62 337.901 384.782L337.528 385.267L337.118 385.736C336.828 386.044 336.542 386.353 336.209 386.643L335.957 386.549C335.896 386.11 335.882 385.689 335.864 385.267L335.861 384.642L335.896 384.031C335.912 383.83 335.878 383.609 335.862 383.395C335.849 383.183 335.91 382.997 336.053 382.843C336.196 382.689 336.378 382.549 336.629 382.435C336.746 382.375 336.889 382.325 337.04 382.278C337.225 382.243 337.362 382.191 337.589 382.171L337.839 382.265Z" fill="#F5C03D"/>
<path fill-rule="evenodd" clip-rule="evenodd" d="M339.95 385.306C340.085 385.488 340.138 385.626 340.234 385.788C340.299 385.932 340.358 386.073 340.39 386.201C340.471 386.464 340.488 386.693 340.467 386.903C340.447 387.112 340.35 387.281 340.183 387.412C340.012 387.542 339.826 387.663 339.686 387.809L339.253 388.239L338.785 388.651C338.458 388.918 338.135 389.187 337.767 389.43L337.53 389.305C337.525 388.862 337.566 388.443 337.604 388.022L337.682 387.403L337.795 386.802C337.836 386.605 337.831 386.381 337.843 386.167C337.858 385.955 337.943 385.78 338.104 385.645C338.267 385.511 338.464 385.397 338.728 385.317C338.851 385.271 339 385.241 339.156 385.214C339.343 385.203 339.487 385.169 339.713 385.18L339.95 385.306Z" fill="#F5C03D"/>
<path fill-rule="evenodd" clip-rule="evenodd" d="M342.276 388.324C342.387 388.532 342.417 388.688 342.49 388.871C342.533 389.035 342.569 389.194 342.582 389.338C342.621 389.635 342.599 389.893 342.542 390.128C342.486 390.363 342.356 390.549 342.16 390.693C341.961 390.835 341.746 390.966 341.575 391.127L341.052 391.601L340.496 392.053C340.111 392.345 339.73 392.639 339.304 392.906L339.08 392.76C339.151 392.262 339.264 391.793 339.374 391.322L339.561 390.628L339.781 389.956C339.858 389.735 339.891 389.485 339.94 389.246C339.991 389.008 340.109 388.812 340.3 388.665C340.491 388.518 340.717 388.394 341.004 388.309C341.14 388.262 341.3 388.231 341.467 388.204C341.664 388.196 341.818 388.162 342.052 388.178L342.276 388.324Z" fill="#F5C03D"/>
<path fill-rule="evenodd" clip-rule="evenodd" d="M343.163 392.465C343.283 392.658 343.323 392.799 343.406 392.967C343.458 393.116 343.505 393.26 343.527 393.388C343.586 393.656 343.584 393.883 343.547 394.088C343.509 394.292 343.399 394.448 343.222 394.561C343.043 394.674 342.848 394.775 342.697 394.906L342.233 395.288L341.735 395.65C341.389 395.881 341.046 396.115 340.661 396.321L340.437 396.175C340.468 395.738 340.543 395.329 340.614 394.918L340.741 394.316L340.902 393.735C340.96 393.544 340.973 393.324 341.002 393.114C341.034 392.906 341.133 392.742 341.304 392.625C341.475 392.508 341.682 392.414 341.949 392.36C342.075 392.327 342.226 392.311 342.383 392.299C342.57 392.306 342.714 392.287 342.939 392.319L343.163 392.465Z" fill="#F5C03D"/>
<path fill-rule="evenodd" clip-rule="evenodd" d="M345.373 396.05C345.435 396.273 345.432 396.429 345.464 396.621C345.471 396.787 345.472 396.946 345.455 397.086C345.431 397.376 345.357 397.614 345.254 397.822C345.152 398.029 344.989 398.173 344.773 398.259C344.554 398.342 344.321 398.412 344.126 398.52L343.529 398.835L342.905 399.12C342.478 399.299 342.053 399.48 341.593 399.624L341.41 399.429C341.579 398.977 341.785 398.562 341.988 398.145L342.309 397.537L342.658 396.958C342.777 396.769 342.859 396.541 342.955 396.327C343.053 396.114 343.206 395.96 343.418 395.87C343.631 395.779 343.872 395.719 344.163 395.713C344.303 395.703 344.462 395.713 344.627 395.73C344.815 395.773 344.97 395.779 345.189 395.855L345.373 396.05Z" fill="#F5C03D"/>
<path fill-rule="evenodd" clip-rule="evenodd" d="M345.675 399.467C345.782 399.671 345.811 399.821 345.882 400.001C345.923 400.158 345.958 400.312 345.97 400.449C346.008 400.734 345.987 400.976 345.931 401.194C345.875 401.412 345.748 401.579 345.556 401.701C345.362 401.821 345.152 401.93 344.986 402.069L344.475 402.48L343.931 402.867C343.555 403.115 343.182 403.366 342.767 403.587L342.549 403.432C342.619 402.967 342.731 402.531 342.839 402.092L343.022 401.449L343.238 400.83C343.314 400.626 343.346 400.391 343.394 400.168C343.445 399.946 343.561 399.771 343.747 399.645C343.933 399.519 344.154 399.419 344.434 399.36C344.566 399.325 344.723 399.307 344.885 399.293C345.077 399.301 345.228 399.279 345.456 399.312L345.675 399.467Z" fill="#F5C03D"/>
<path fill-rule="evenodd" clip-rule="evenodd" d="M331.787 380.891C332.007 380.837 332.154 380.842 332.341 380.815C332.499 380.811 332.65 380.813 332.781 380.832C333.055 380.858 333.271 380.932 333.456 381.032C333.641 381.132 333.759 381.287 333.815 381.493C333.868 381.7 333.907 381.92 333.987 382.106L334.216 382.673L334.414 383.265C334.533 383.671 334.655 384.073 334.738 384.51L334.53 384.679C334.121 384.512 333.751 384.311 333.379 384.114L332.839 383.802L332.33 383.465C332.164 383.349 331.957 383.268 331.764 383.174C331.575 383.078 331.446 382.931 331.385 382.73C331.324 382.529 331.295 382.301 331.324 382.026C331.331 381.894 331.36 381.745 331.395 381.59C331.458 381.413 331.482 381.267 331.58 381.062L331.787 380.891Z" fill="#F5C03D"/>
<path fill-rule="evenodd" clip-rule="evenodd" d="M331.415 385.911C331.537 385.718 331.647 385.621 331.763 385.472C331.875 385.36 331.985 385.255 332.093 385.179C332.31 385.01 332.517 384.912 332.72 384.857C332.922 384.801 333.115 384.832 333.297 384.942C333.478 385.055 333.657 385.188 333.843 385.267L334.399 385.518L334.95 385.811C335.315 386.022 335.681 386.229 336.04 386.487L336.008 386.754C335.596 386.916 335.19 387.027 334.785 387.142L334.18 387.289L333.579 387.396C333.379 387.428 333.173 387.512 332.969 387.577C332.766 387.639 332.573 387.622 332.39 387.519C332.207 387.415 332.03 387.27 331.86 387.051C331.775 386.951 331.693 386.823 331.613 386.688C331.536 386.514 331.453 386.393 331.382 386.177L331.415 385.911Z" fill="#F5C03D"/>
<path fill-rule="evenodd" clip-rule="evenodd" d="M332.069 389.304C332.19 389.1 332.309 388.991 332.429 388.83C332.549 388.707 332.668 388.591 332.787 388.504C333.025 388.312 333.263 388.193 333.5 388.116C333.736 388.039 333.972 388.049 334.207 388.139C334.441 388.232 334.676 388.344 334.911 388.403L335.616 388.593L336.32 388.823C336.79 388.994 337.259 389.161 337.728 389.378L337.725 389.647C337.25 389.852 336.776 390.007 336.303 390.165L335.592 390.376L334.883 390.549C334.646 390.601 334.409 390.707 334.172 390.793C333.935 390.877 333.699 390.881 333.465 390.798C333.23 390.715 332.996 390.589 332.762 390.391C332.645 390.301 332.529 390.182 332.413 390.054C332.297 389.892 332.181 389.78 332.066 389.572L332.069 389.304Z" fill="#F5C03D"/>
<path fill-rule="evenodd" clip-rule="evenodd" d="M333.458 393.358C333.547 393.138 333.648 393.012 333.744 392.836C333.844 392.696 333.944 392.563 334.049 392.459C334.256 392.233 334.473 392.081 334.696 391.968C334.918 391.857 335.153 391.831 335.398 391.885C335.644 391.942 335.893 392.018 336.134 392.041L336.859 392.123L337.59 392.246C338.079 392.344 338.568 392.438 339.065 392.584L339.101 392.85C338.663 393.124 338.218 393.347 337.772 393.575L337.101 393.891L336.425 394.167C336.199 394.254 335.981 394.395 335.759 394.516C335.537 394.633 335.305 394.673 335.061 394.626C334.816 394.578 334.566 394.49 334.306 394.329C334.176 394.257 334.044 394.157 333.91 394.048C333.771 393.905 333.639 393.811 333.495 393.623L333.458 393.358Z" fill="#F5C03D"/>
<path fill-rule="evenodd" clip-rule="evenodd" d="M334.672 395.975C334.801 395.773 334.926 395.665 335.053 395.508C335.18 395.385 335.306 395.272 335.432 395.186C335.683 394.997 335.932 394.882 336.181 394.809C336.429 394.735 336.675 394.749 336.919 394.842C337.162 394.938 337.406 395.054 337.65 395.116L338.384 395.318L339.116 395.559C339.604 395.737 340.091 395.91 340.578 396.135L340.571 396.404C340.072 396.603 339.576 396.749 339.08 396.9L338.335 397.101L337.592 397.262C337.345 397.311 337.095 397.414 336.847 397.497C336.598 397.576 336.353 397.577 336.108 397.49C335.864 397.403 335.622 397.275 335.381 397.073C335.26 396.981 335.14 396.86 335.02 396.731C334.902 396.567 334.782 396.453 334.665 396.243L334.672 395.975Z" fill="#F5C03D"/>
<path fill-rule="evenodd" clip-rule="evenodd" d="M335.225 400.24C335.327 400.019 335.442 399.89 335.55 399.712C335.663 399.57 335.777 399.435 335.895 399.328C336.129 399.098 336.373 398.94 336.623 398.824C336.872 398.707 337.135 398.677 337.408 398.726C337.682 398.779 337.958 398.849 338.226 398.867L339.035 398.935L339.849 399.044C340.394 399.133 340.938 399.218 341.49 399.354L341.528 399.619C341.035 399.903 340.535 400.136 340.036 400.372L339.284 400.702L338.525 400.992C338.273 401.084 338.026 401.229 337.778 401.356C337.529 401.478 337.269 401.522 336.997 401.48C336.725 401.437 336.446 401.353 336.158 401.196C336.015 401.127 335.869 401.029 335.72 400.925C335.567 400.783 335.421 400.692 335.262 400.506L335.225 400.24Z" fill="#F5C03D"/>
<path fill-rule="evenodd" clip-rule="evenodd" d="M337.89 402.925C338.004 402.727 338.112 402.623 338.223 402.47C338.331 402.353 338.439 402.242 338.545 402.161C338.758 401.98 338.965 401.874 339.17 401.808C339.374 401.743 339.572 401.764 339.764 401.865C339.957 401.97 340.148 402.092 340.342 402.163L340.925 402.387L341.505 402.651C341.89 402.845 342.276 403.033 342.658 403.274L342.638 403.542C342.225 403.724 341.817 403.854 341.408 403.99L340.795 404.167L340.186 404.303C339.983 404.345 339.777 404.438 339.572 404.514C339.367 404.585 339.168 404.578 338.975 404.484C338.782 404.389 338.592 404.253 338.407 404.043C338.315 403.947 338.224 403.823 338.134 403.691C338.046 403.523 337.955 403.405 337.87 403.192L337.89 402.925Z" fill="#F5C03D"/>
<path fill-rule="evenodd" clip-rule="evenodd" d="M345.049 405.58L344.606 405.533C345.573 396.633 346.669 386.547 351.361 378.135L351.751 378.353C347.103 386.686 346.012 396.724 345.049 405.58" fill="#FDE798"/>
<path fill-rule="evenodd" clip-rule="evenodd" d="M347.242 376.433C347.479 376.435 347.632 376.484 347.83 376.509C347.997 376.551 348.157 376.596 348.291 376.656C348.576 376.767 348.797 376.913 348.982 377.08C349.166 377.247 349.275 377.457 349.315 377.705C349.351 377.954 349.371 378.213 349.437 378.447L349.624 379.154L349.775 379.879C349.862 380.372 349.952 380.862 349.997 381.377L349.764 381.508C349.349 381.199 348.981 380.865 348.608 380.534L348.071 380.024L347.568 379.494C347.405 379.315 347.196 379.162 347.003 378.999C346.812 378.836 346.691 378.633 346.646 378.389C346.601 378.144 346.593 377.878 346.648 377.576C346.668 377.43 346.713 377.269 346.765 377.106C346.847 376.924 346.887 376.768 347.008 376.564L347.242 376.433Z" fill="#FDE798"/>
<path fill-rule="evenodd" clip-rule="evenodd" d="M345.249 380.432C345.484 380.403 345.643 380.432 345.843 380.43C346.013 380.45 346.177 380.475 346.318 380.516C346.615 380.589 346.853 380.705 347.058 380.846C347.263 380.988 347.397 381.181 347.468 381.422C347.537 381.665 347.59 381.919 347.686 382.142L347.962 382.818L348.207 383.517C348.356 383.994 348.509 384.467 348.62 384.972L348.405 385.132C347.955 384.881 347.545 384.598 347.133 384.318L346.535 383.882L345.969 383.423C345.784 383.267 345.556 383.143 345.343 383.008C345.134 382.87 344.988 382.685 344.912 382.448C344.836 382.211 344.793 381.949 344.809 381.643C344.809 381.496 344.833 381.33 344.863 381.162C344.922 380.971 344.941 380.81 345.035 380.593L345.249 380.432Z" fill="#FDE798"/>
<path fill-rule="evenodd" clip-rule="evenodd" d="M342.998 384.456C343.243 384.422 343.417 384.451 343.629 384.446C343.814 384.467 343.993 384.491 344.15 384.535C344.479 384.611 344.753 384.735 344.996 384.888C345.239 385.04 345.417 385.251 345.537 385.514C345.652 385.78 345.755 386.058 345.897 386.302L346.312 387.04L346.697 387.805C346.941 388.326 347.189 388.845 347.398 389.398L347.198 389.576C346.674 389.306 346.188 389 345.699 388.698L344.985 388.228L344.3 387.73C344.075 387.562 343.81 387.429 343.561 387.283C343.313 387.135 343.124 386.934 343 386.674C342.877 386.414 342.784 386.128 342.746 385.791C342.721 385.629 342.717 385.449 342.718 385.262C342.746 385.052 342.737 384.875 342.799 384.635L342.998 384.456Z" fill="#FDE798"/>
<path fill-rule="evenodd" clip-rule="evenodd" d="M342.695 389.58C342.925 389.529 343.084 389.542 343.281 389.522C343.452 389.525 343.616 389.534 343.759 389.561C344.059 389.604 344.304 389.696 344.518 389.816C344.732 389.936 344.881 390.114 344.971 390.345C345.059 390.578 345.132 390.824 345.245 391.034L345.573 391.675L345.871 392.343C346.058 392.798 346.247 393.252 346.397 393.739L346.198 393.918C345.732 393.712 345.304 393.472 344.873 393.235L344.245 392.863L343.648 392.464C343.452 392.327 343.217 392.227 342.996 392.114C342.777 391.998 342.617 391.829 342.523 391.602C342.429 391.376 342.365 391.121 342.356 390.817C342.344 390.672 342.355 390.506 342.371 390.337C342.414 390.143 342.419 389.982 342.494 389.759L342.695 389.58Z" fill="#FDE798"/>
<path fill-rule="evenodd" clip-rule="evenodd" d="M340.651 394.235C340.875 394.14 341.046 394.123 341.245 394.066C341.424 394.037 341.599 394.015 341.757 394.016C342.084 394.006 342.368 394.054 342.63 394.137C342.891 394.221 343.103 394.376 343.27 394.597C343.435 394.82 343.59 395.059 343.774 395.255L344.319 395.853L344.842 396.483C345.18 396.917 345.522 397.348 345.833 397.821L345.682 398.042C345.13 397.917 344.607 397.75 344.082 397.587L343.309 397.321L342.559 397.022C342.311 396.918 342.033 396.858 341.766 396.783C341.501 396.705 341.281 396.561 341.11 396.345C340.941 396.13 340.793 395.88 340.688 395.57C340.63 395.422 340.589 395.251 340.552 395.073C340.535 394.865 340.49 394.7 340.498 394.456L340.651 394.235Z" fill="#FDE798"/>
<path fill-rule="evenodd" clip-rule="evenodd" d="M340.96 398.422C341.196 398.37 341.363 398.385 341.568 398.365C341.746 398.369 341.918 398.379 342.07 398.41C342.387 398.457 342.651 398.555 342.885 398.683C343.12 398.811 343.291 398.999 343.405 399.243C343.518 399.489 343.616 399.748 343.752 399.969L344.151 400.646L344.523 401.349C344.758 401.83 344.996 402.308 345.197 402.823L345.004 403.009C344.499 402.789 344.031 402.534 343.56 402.281L342.872 401.884L342.212 401.46C341.996 401.316 341.741 401.208 341.5 401.087C341.262 400.964 341.079 400.785 340.96 400.547C340.842 400.307 340.753 400.04 340.716 399.72C340.692 399.567 340.687 399.393 340.689 399.215C340.717 399.011 340.708 398.843 340.767 398.608L340.96 398.422Z" fill="#FDE798"/>
<path fill-rule="evenodd" clip-rule="evenodd" d="M354.238 373.969C354.355 374.175 354.39 374.334 354.469 374.517C354.516 374.682 354.557 374.843 354.574 374.99C354.622 375.293 354.607 375.558 354.556 375.802C354.505 376.046 354.379 376.245 354.186 376.405C353.988 376.563 353.775 376.711 353.608 376.885L353.093 377.402L352.544 377.899C352.163 378.222 351.786 378.548 351.365 378.846L351.135 378.709C351.193 378.196 351.294 377.708 351.392 377.217L351.561 376.495L351.765 375.794C351.836 375.562 351.862 375.304 351.905 375.054C351.951 374.807 352.064 374.6 352.253 374.438C352.441 374.276 352.665 374.134 352.953 374.03C353.089 373.974 353.25 373.932 353.417 373.895C353.616 373.875 353.77 373.83 354.007 373.833L354.238 373.969Z" fill="#FDE798"/>
<path fill-rule="evenodd" clip-rule="evenodd" d="M355.427 380.047C355.37 380.277 355.287 380.416 355.218 380.603C355.138 380.757 355.057 380.902 354.968 381.019C354.794 381.271 354.601 381.453 354.396 381.594C354.192 381.736 353.963 381.793 353.713 381.775C353.463 381.752 353.206 381.711 352.965 381.722L352.236 381.741L351.496 381.72C350.999 381.691 350.503 381.665 349.992 381.59L349.919 381.332C350.314 381 350.724 380.717 351.132 380.43L351.751 380.024L352.382 379.657C352.593 379.539 352.79 379.37 352.992 379.219C353.195 379.072 353.42 379.001 353.668 379.013C353.916 379.027 354.176 379.08 354.455 379.203C354.593 379.257 354.737 379.337 354.885 379.426C355.042 379.549 355.185 379.623 355.354 379.789L355.427 380.047Z" fill="#FDE798"/>
<path fill-rule="evenodd" clip-rule="evenodd" d="M355.234 384.241C355.015 384.669 354.772 384.945 354.522 385.185C354.27 385.416 354.009 385.59 353.74 385.715C353.472 385.841 353.189 385.881 352.893 385.843C352.596 385.8 352.297 385.742 352.005 385.733L351.13 385.696L350.248 385.619C349.657 385.551 349.067 385.487 348.468 385.372L348.425 385.107C348.953 384.804 349.491 384.552 350.028 384.296L350.837 383.936L351.653 383.616C351.926 383.512 352.19 383.36 352.457 383.223C352.725 383.091 353.006 383.036 353.3 383.068C353.596 383.099 353.898 383.178 354.211 383.315C354.525 383.461 354.845 383.642 355.19 383.976L355.234 384.241Z" fill="#FDE798"/>
<path fill-rule="evenodd" clip-rule="evenodd" d="M354.268 389.357C353.988 389.748 353.706 389.984 353.423 390.184C353.141 390.374 352.856 390.507 352.571 390.59C352.287 390.675 352.001 390.672 351.714 390.59C351.427 390.504 351.139 390.401 350.853 390.348L349.993 390.181L349.133 389.972C348.558 389.817 347.985 389.665 347.41 389.462L347.406 389.195C347.974 388.973 348.543 388.805 349.112 388.631L349.966 388.397L350.821 388.202C351.106 388.141 351.389 388.03 351.674 387.935C351.958 387.844 352.244 387.832 352.531 387.908C352.818 387.982 353.106 388.106 353.394 388.288C353.683 388.479 353.973 388.707 354.264 389.088L354.268 389.357Z" fill="#FDE798"/>
<path fill-rule="evenodd" clip-rule="evenodd" d="M353.342 392.711C353.117 393.145 352.865 393.427 352.606 393.672C352.345 393.909 352.074 394.088 351.795 394.219C351.516 394.351 351.221 394.397 350.912 394.366C350.602 394.33 350.289 394.278 349.985 394.275L349.073 394.257L348.152 394.199C347.536 394.143 346.921 394.093 346.295 393.991L346.248 393.727C346.798 393.411 347.356 393.147 347.914 392.878L348.755 392.501L349.604 392.163C349.888 392.053 350.162 391.895 350.439 391.752C350.718 391.614 351.01 391.553 351.318 391.58C351.626 391.603 351.942 391.676 352.269 391.807C352.597 391.945 352.932 392.12 353.294 392.447L353.342 392.711Z" fill="#FDE798"/>
<path fill-rule="evenodd" clip-rule="evenodd" d="M353.411 397.928C353.096 398.318 352.78 398.554 352.462 398.753C352.144 398.943 351.827 399.075 351.508 399.158C351.19 399.242 350.87 399.238 350.55 399.155C350.229 399.068 349.908 398.966 349.588 398.911L348.628 398.742L347.666 398.532C347.025 398.376 346.385 398.223 345.743 398.018L345.74 397.75C346.376 397.531 347.014 397.363 347.65 397.191L348.607 396.958L349.563 396.766C349.881 396.705 350.2 396.594 350.518 396.5C350.837 396.41 351.156 396.399 351.477 396.476C351.797 396.55 352.118 396.675 352.44 396.857C352.761 397.049 353.084 397.276 353.408 397.659L353.411 397.928Z" fill="#FDE798"/>
<path fill-rule="evenodd" clip-rule="evenodd" d="M350.772 401.627C350.7 401.854 350.607 401.99 350.525 402.173C350.436 402.323 350.344 402.464 350.247 402.578C350.055 402.822 349.846 402.995 349.629 403.127C349.412 403.26 349.175 403.307 348.92 403.277C348.665 403.243 348.405 403.191 348.158 403.19L347.411 403.175L346.656 403.122C346.149 403.07 345.642 403.021 345.124 402.923L345.065 402.661C345.488 402.347 345.923 402.082 346.357 401.815L347.014 401.436L347.679 401.098C347.903 400.99 348.113 400.829 348.329 400.688C348.545 400.549 348.779 400.489 349.032 400.513C349.285 400.537 349.547 400.602 349.827 400.738C349.964 400.798 350.108 400.885 350.254 400.981C350.407 401.111 350.549 401.192 350.713 401.365L350.772 401.627Z" fill="#FDE798"/>
<path fill-rule="evenodd" clip-rule="evenodd" d="M338.303 407.105H348.539V404.551H338.303V407.105Z" fill="#FDE798"/>
<path fill-rule="evenodd" clip-rule="evenodd" d="M339.1 414.846H347.743V407.105H339.1V414.846Z" fill="#FDE798"/>
<mask id="mask0_630_7561" style="mask-type:alpha" maskUnits="userSpaceOnUse" x="0" y="390" width="376" height="33">
<path fill-rule="evenodd" clip-rule="evenodd" d="M373.794 391.605C375.841 401.33 376.535 411.756 375.573 422.426L0.01895 421.529C-0.0176199 416.717 -3.82111e-05 412.073 0.061146 407.464C0.132176 401.719 0.265797 396.045 0.420515 390.198L373.653 391.597" fill="white"/>
</mask>
<g mask="url(#mask0_630_7561)">
<path opacity="0.14" fill-rule="evenodd" clip-rule="evenodd" d="M371.561 392.611C373.596 402.279 374.286 412.643 373.33 423.249L0.0166397 422.357C-0.019712 417.574 -0.00223525 412.958 0.0585839 408.376C0.12919 402.666 0.262013 397.026 0.415809 391.213L371.422 392.604C371.468 392.604 371.515 392.604 371.561 392.611Z" fill="url(#paint1_linear_630_7561)"/>
</g>
<path fill-rule="evenodd" clip-rule="evenodd" d="M226.786 317.89H120.077C116.948 317.89 114.403 315.249 114.403 312.004V153.363H232.46V312.004C232.46 315.249 229.914 317.89 226.786 317.89M226.786 139.703H120.077C116.453 139.703 113.504 142.762 113.504 146.522V312.004C113.504 315.764 116.453 318.822 120.077 318.822H226.786C230.41 318.822 233.359 315.764 233.359 312.004V146.522C233.359 142.762 230.41 139.703 226.786 139.703" fill="#FFC107"/>
<path fill-rule="evenodd" clip-rule="evenodd" d="M215.774 259.512H130.725C124.859 259.512 120.104 254.745 120.104 248.863V238.615C120.104 232.733 124.859 227.965 130.725 227.965H215.774C221.639 227.965 226.394 232.733 226.394 238.615V248.863C226.394 254.745 221.639 259.512 215.774 259.512" fill="white"/>
<path fill-rule="evenodd" clip-rule="evenodd" d="M215.774 259.512H130.725C124.859 259.512 120.104 254.745 120.104 248.863V238.615C120.104 232.733 124.859 227.965 130.725 227.965H215.774C221.639 227.965 226.394 232.733 226.394 238.615V248.863C226.394 254.745 221.639 259.512 215.774 259.512Z" stroke="#FFC107" stroke-width="2.09888"/>
<path fill-rule="evenodd" clip-rule="evenodd" d="M204.18 290.815H142.319C136.454 290.815 131.699 286.048 131.699 280.166V273.451C131.699 267.57 136.454 262.802 142.319 262.802H204.18C210.045 262.802 214.8 267.57 214.8 273.451V280.166C214.8 286.048 210.045 290.815 204.18 290.815Z" fill="white"/>
<path fill-rule="evenodd" clip-rule="evenodd" d="M140.057 286.675H160.074V271.288H140.057V286.675Z" fill="#7952B3"/>
<path fill-rule="evenodd" clip-rule="evenodd" d="M140.164 267.505H160.181V266.834H140.164V267.505Z" fill="#7952B3"/>
<path fill-rule="evenodd" clip-rule="evenodd" d="M140.164 266.834H160.181V266.647H140.164V266.834Z" fill="#EDB597"/>
<path fill-rule="evenodd" clip-rule="evenodd" d="M141.719 282.137H152.962V273.743H141.719V282.137Z" fill="#C3432D"/>
<path fill-rule="evenodd" clip-rule="evenodd" d="M141.847 281.971H152.835V273.906H141.847V281.971Z" fill="#DA9092"/>
<path fill-rule="evenodd" clip-rule="evenodd" d="M141.99 281.867H152.692V274.011H141.99V281.867Z" fill="#FFEBBF"/>
<path fill-rule="evenodd" clip-rule="evenodd" d="M142.448 281.462H152.233V274.416H142.448V281.462Z" fill="#D9C0FF"/>
<path fill-rule="evenodd" clip-rule="evenodd" d="M142.986 274.966L152.233 274.583V274.416H142.448V281.461H142.604L142.986 274.966Z" fill="#402B49"/>
<path fill-rule="evenodd" clip-rule="evenodd" d="M139.584 286.918H160.765V285.891H139.584V286.918Z" fill="#193A55"/>
<path fill-rule="evenodd" clip-rule="evenodd" d="M139.79 285.891H160.559V285.57H139.79V285.891Z" fill="#FFEBBF"/>
<path fill-rule="evenodd" clip-rule="evenodd" d="M153.476 285.884H159.611V273.201H153.476V285.884Z" fill="#FFEBBF"/>
<path fill-rule="evenodd" clip-rule="evenodd" d="M138.106 272.627C138.615 272.627 139.028 272.213 139.028 271.703H137.185C137.185 272.213 137.597 272.627 138.106 272.627Z" fill="#BC95F8"/>
<path fill-rule="evenodd" clip-rule="evenodd" d="M139.946 272.627C140.455 272.627 140.868 272.213 140.868 271.703H139.024C139.024 272.213 139.436 272.627 139.946 272.627Z" fill="#BC95F8"/>
<path fill-rule="evenodd" clip-rule="evenodd" d="M141.786 272.627C142.295 272.627 142.708 272.213 142.708 271.703H140.864C140.864 272.213 141.276 272.627 141.786 272.627Z" fill="white"/>
<path fill-rule="evenodd" clip-rule="evenodd" d="M143.626 272.627C144.135 272.627 144.547 272.213 144.547 271.703H142.704C142.704 272.213 143.117 272.627 143.626 272.627Z" fill="#BC95F8"/>
<path fill-rule="evenodd" clip-rule="evenodd" d="M145.465 272.627C145.975 272.627 146.387 272.213 146.387 271.703H144.544C144.544 272.213 144.956 272.627 145.465 272.627Z" fill="white"/>
<path fill-rule="evenodd" clip-rule="evenodd" d="M147.305 272.627C147.815 272.627 148.227 272.213 148.227 271.703H146.384C146.384 272.213 146.796 272.627 147.305 272.627Z" fill="#BC95F8"/>
<path fill-rule="evenodd" clip-rule="evenodd" d="M149.145 272.627C149.655 272.627 150.067 272.213 150.067 271.703H148.224C148.224 272.213 148.636 272.627 149.145 272.627Z" fill="white"/>
<path fill-rule="evenodd" clip-rule="evenodd" d="M150.985 272.627C151.495 272.627 151.907 272.213 151.907 271.703H150.063C150.063 272.213 150.476 272.627 150.985 272.627Z" fill="#BC95F8"/>
<path fill-rule="evenodd" clip-rule="evenodd" d="M152.825 272.627C153.335 272.627 153.747 272.213 153.747 271.703H151.903C151.903 272.213 152.316 272.627 152.825 272.627Z" fill="white"/>
<path fill-rule="evenodd" clip-rule="evenodd" d="M154.665 272.627C155.174 272.627 155.586 272.213 155.586 271.703H153.743C153.743 272.213 154.156 272.627 154.665 272.627Z" fill="#BC95F8"/>
<path fill-rule="evenodd" clip-rule="evenodd" d="M156.505 272.627C157.014 272.627 157.426 272.213 157.426 271.703H155.583C155.583 272.213 155.996 272.627 156.505 272.627Z" fill="white"/>
<path fill-rule="evenodd" clip-rule="evenodd" d="M158.345 272.627C158.854 272.627 159.266 272.213 159.266 271.703H157.423C157.423 272.213 157.835 272.627 158.345 272.627Z" fill="#BC95F8"/>
<path fill-rule="evenodd" clip-rule="evenodd" d="M160.185 272.627C160.694 272.627 161.107 272.213 161.107 271.703H159.263C159.263 272.213 159.675 272.627 160.185 272.627Z" fill="#BC95F8"/>
<path fill-rule="evenodd" clip-rule="evenodd" d="M162.025 272.627C162.534 272.627 162.946 272.213 162.946 271.703H161.103C161.103 272.213 161.515 272.627 162.025 272.627Z" fill="#BC95F8"/>
<path fill-rule="evenodd" clip-rule="evenodd" d="M146.387 271.702H148.231V267.243H146.387V271.702Z" fill="#BC95F8"/>
<path fill-rule="evenodd" clip-rule="evenodd" d="M142.708 271.702H144.552V267.243H142.708V271.702Z" fill="#BC95F8"/>
<path fill-rule="evenodd" clip-rule="evenodd" d="M144.547 271.702H146.384V267.243H144.547V271.702Z" fill="white"/>
<path fill-rule="evenodd" clip-rule="evenodd" d="M148.227 271.702H150.063V267.243H148.227V271.702Z" fill="white"/>
<path fill-rule="evenodd" clip-rule="evenodd" d="M137.188 271.702H139.025V267.243H137.188V271.702Z" fill="white"/>
<path fill-rule="evenodd" clip-rule="evenodd" d="M139.028 271.702H140.871V267.243H139.028V271.702Z" fill="#BC95F8"/>
<path fill-rule="evenodd" clip-rule="evenodd" d="M140.868 271.702H142.704V267.243H140.868V271.702Z" fill="white"/>
<path fill-rule="evenodd" clip-rule="evenodd" d="M157.423 271.702H159.266V267.243H157.423V271.702Z" fill="#BC95F8"/>
<path fill-rule="evenodd" clip-rule="evenodd" d="M159.267 271.702H161.103V267.243H159.267V271.702Z" fill="white"/>
<path fill-rule="evenodd" clip-rule="evenodd" d="M155.587 271.702H157.423V267.243H155.587V271.702Z" fill="white"/>
<path fill-rule="evenodd" clip-rule="evenodd" d="M161.103 271.459H162.946V267H161.103V271.459Z" fill="#BC95F8"/>
<path fill-rule="evenodd" clip-rule="evenodd" d="M153.743 271.459H155.586V267H153.743V271.459Z" fill="#BC95F8"/>
<path fill-rule="evenodd" clip-rule="evenodd" d="M151.907 271.702H153.744V267.243H151.907V271.702Z" fill="white"/>
<path fill-rule="evenodd" clip-rule="evenodd" d="M150.068 271.702H151.912V267.243H150.068V271.702Z" fill="#BC95F8"/>
<path fill-rule="evenodd" clip-rule="evenodd" d="M143.319 275.196L143.03 279.558L147.689 274.959L143.319 275.196Z" fill="white"/>
<path fill-rule="evenodd" clip-rule="evenodd" d="M148.269 274.959L143.053 280.101L148.958 274.917L148.269 274.959Z" fill="white"/>
<path fill-rule="evenodd" clip-rule="evenodd" d="M153.763 286.918H159.343V273.527H153.763V286.918Z" fill="#193A55"/>
<path fill-rule="evenodd" clip-rule="evenodd" d="M154.256 285.891H158.918V274.035H154.256V285.891Z" fill="#7952B3"/>
<path fill-rule="evenodd" clip-rule="evenodd" d="M155.101 281.654H158.251V274.897H155.101V281.654Z" fill="#D9C0FF"/>
<path fill-rule="evenodd" clip-rule="evenodd" d="M155.101 274.898V281.655L155.381 275.162L158.251 274.898H155.101Z" fill="#402B49"/>
<path fill-rule="evenodd" clip-rule="evenodd" d="M158.133 275.071L155.545 275.336L155.482 278.454L158.133 275.071Z" fill="white"/>
<path fill-rule="evenodd" clip-rule="evenodd" d="M158.133 275.441L155.482 278.834L158.133 275.91V275.441Z" fill="white"/>
<path fill-rule="evenodd" clip-rule="evenodd" d="M140.315 255.413H163.418V237.654H140.315V255.413Z" fill="#7952B3"/>
<path fill-rule="evenodd" clip-rule="evenodd" d="M140.439 233.288H163.542V232.514H140.439V233.288Z" fill="#7952B3"/>
<path fill-rule="evenodd" clip-rule="evenodd" d="M140.439 232.514H163.542V232.298H140.439V232.514Z" fill="#EDB597"/>
<path fill-rule="evenodd" clip-rule="evenodd" d="M142.234 250.175H155.21V240.488H142.234V250.175Z" fill="#C3432D"/>
<path fill-rule="evenodd" clip-rule="evenodd" d="M142.381 249.984H155.063V240.677H142.381V249.984Z" fill="#DA9092"/>
<path fill-rule="evenodd" clip-rule="evenodd" d="M142.546 249.864H154.898V240.798H142.546V249.864Z" fill="#FFEBBF"/>
<path fill-rule="evenodd" clip-rule="evenodd" d="M143.075 249.397H154.369V241.265H143.075V249.397Z" fill="#D9C0FF"/>
<path fill-rule="evenodd" clip-rule="evenodd" d="M143.696 241.899L154.369 241.457V241.265H143.075V249.396H143.255L143.696 241.899Z" fill="#402B49"/>
<path fill-rule="evenodd" clip-rule="evenodd" d="M139.769 255.694H164.215V254.509H139.769V255.694Z" fill="#193A55"/>
<path fill-rule="evenodd" clip-rule="evenodd" d="M140.007 254.509H163.978V254.138H140.007V254.509Z" fill="#FFEBBF"/>
<path fill-rule="evenodd" clip-rule="evenodd" d="M155.802 254.501H162.884V239.862H155.802V254.501Z" fill="#FFEBBF"/>
<path fill-rule="evenodd" clip-rule="evenodd" d="M138.064 239.2C138.651 239.2 139.128 238.722 139.128 238.133H137C137 238.722 137.476 239.2 138.064 239.2" fill="#BC95F8"/>
<path fill-rule="evenodd" clip-rule="evenodd" d="M140.187 239.2C140.775 239.2 141.251 238.722 141.251 238.133H139.124C139.124 238.722 139.599 239.2 140.187 239.2" fill="#BC95F8"/>
<path fill-rule="evenodd" clip-rule="evenodd" d="M142.311 239.2C142.898 239.2 143.375 238.722 143.375 238.133H141.247C141.247 238.722 141.723 239.2 142.311 239.2" fill="white"/>
<path fill-rule="evenodd" clip-rule="evenodd" d="M144.434 239.2C145.022 239.2 145.498 238.722 145.498 238.133H143.37C143.37 238.722 143.846 239.2 144.434 239.2" fill="#BC95F8"/>
<path fill-rule="evenodd" clip-rule="evenodd" d="M146.557 239.2C147.146 239.2 147.621 238.722 147.621 238.133H145.494C145.494 238.722 145.97 239.2 146.557 239.2" fill="white"/>
<path fill-rule="evenodd" clip-rule="evenodd" d="M148.681 239.2C149.269 239.2 149.744 238.722 149.744 238.133H147.617C147.617 238.722 148.093 239.2 148.681 239.2" fill="#BC95F8"/>
<path fill-rule="evenodd" clip-rule="evenodd" d="M150.804 239.2C151.393 239.2 151.868 238.722 151.868 238.133H149.741C149.741 238.722 150.217 239.2 150.804 239.2" fill="white"/>
<path fill-rule="evenodd" clip-rule="evenodd" d="M152.928 239.2C153.516 239.2 153.992 238.722 153.992 238.133H151.864C151.864 238.722 152.341 239.2 152.928 239.2" fill="#BC95F8"/>
<path fill-rule="evenodd" clip-rule="evenodd" d="M155.052 239.2C155.64 239.2 156.115 238.722 156.115 238.133H153.988C153.988 238.722 154.464 239.2 155.052 239.2" fill="white"/>
<path fill-rule="evenodd" clip-rule="evenodd" d="M157.175 239.2C157.763 239.2 158.239 238.722 158.239 238.133H156.111C156.111 238.722 156.587 239.2 157.175 239.2" fill="#BC95F8"/>
<path fill-rule="evenodd" clip-rule="evenodd" d="M159.299 239.2C159.887 239.2 160.362 238.722 160.362 238.133H158.235C158.235 238.722 158.711 239.2 159.299 239.2" fill="white"/>
<path fill-rule="evenodd" clip-rule="evenodd" d="M161.422 239.2C162.01 239.2 162.486 238.722 162.486 238.133H160.359C160.359 238.722 160.834 239.2 161.422 239.2" fill="#BC95F8"/>
<path fill-rule="evenodd" clip-rule="evenodd" d="M163.546 239.2C164.134 239.2 164.61 238.722 164.61 238.133H162.483C162.483 238.722 162.958 239.2 163.546 239.2" fill="#BC95F8"/>
<path fill-rule="evenodd" clip-rule="evenodd" d="M165.67 239.2C166.257 239.2 166.733 238.722 166.733 238.133H164.606C164.606 238.722 165.082 239.2 165.67 239.2" fill="#BC95F8"/>
<path fill-rule="evenodd" clip-rule="evenodd" d="M147.621 238.132H149.75V232.986H147.621V238.132Z" fill="#BC95F8"/>
<path fill-rule="evenodd" clip-rule="evenodd" d="M143.374 238.132H145.503V232.986H143.374V238.132Z" fill="#BC95F8"/>
<path fill-rule="evenodd" clip-rule="evenodd" d="M145.498 238.132H147.617V232.986H145.498V238.132Z" fill="white"/>
<path fill-rule="evenodd" clip-rule="evenodd" d="M149.745 238.132H151.864V232.986H149.745V238.132Z" fill="white"/>
<path fill-rule="evenodd" clip-rule="evenodd" d="M137.004 238.132H139.124V232.986H137.004V238.132Z" fill="white"/>
<path fill-rule="evenodd" clip-rule="evenodd" d="M139.127 238.132H141.255V232.986H139.127V238.132Z" fill="#BC95F8"/>
<path fill-rule="evenodd" clip-rule="evenodd" d="M141.251 238.132H143.37V232.986H141.251V238.132Z" fill="white"/>
<path fill-rule="evenodd" clip-rule="evenodd" d="M160.359 238.132H162.486V232.986H160.359V238.132Z" fill="#BC95F8"/>
<path fill-rule="evenodd" clip-rule="evenodd" d="M162.486 238.132H164.606V232.986H162.486V238.132Z" fill="white"/>
<path fill-rule="evenodd" clip-rule="evenodd" d="M158.239 238.132H160.359V232.986H158.239V238.132Z" fill="white"/>
<path fill-rule="evenodd" clip-rule="evenodd" d="M164.606 237.851H166.733V232.705H164.606V237.851Z" fill="#BC95F8"/>
<path fill-rule="evenodd" clip-rule="evenodd" d="M156.111 237.851H158.239V232.705H156.111V237.851Z" fill="#BC95F8"/>
<path fill-rule="evenodd" clip-rule="evenodd" d="M153.992 238.132H156.112V232.986H153.992V238.132Z" fill="white"/>
<path fill-rule="evenodd" clip-rule="evenodd" d="M151.869 238.132H153.998V232.986H151.869V238.132Z" fill="#BC95F8"/>
<path fill-rule="evenodd" clip-rule="evenodd" d="M144.08 242.165L143.746 247.199L149.123 241.892L144.08 242.165Z" fill="white"/>
<path fill-rule="evenodd" clip-rule="evenodd" d="M149.793 241.892L143.773 247.826L150.588 241.843L149.793 241.892Z" fill="white"/>
<path fill-rule="evenodd" clip-rule="evenodd" d="M156.135 255.694H162.575V240.239H156.135V255.694Z" fill="#193A55"/>
<path fill-rule="evenodd" clip-rule="evenodd" d="M156.703 254.509H162.084V240.824H156.703V254.509Z" fill="#7952B3"/>
<path fill-rule="evenodd" clip-rule="evenodd" d="M157.679 249.619H161.315V241.82H157.679V249.619Z" fill="#D9C0FF"/>
<path fill-rule="evenodd" clip-rule="evenodd" d="M157.678 241.821V249.619L158.002 242.125L161.315 241.821H157.678Z" fill="#402B49"/>
<path fill-rule="evenodd" clip-rule="evenodd" d="M161.178 242.021L158.191 242.326L158.118 245.925L161.178 242.021Z" fill="white"/>
<path fill-rule="evenodd" clip-rule="evenodd" d="M161.178 242.448L158.118 246.364L161.178 242.989V242.448Z" fill="white"/>
<path fill-rule="evenodd" clip-rule="evenodd" d="M174.596 232.515L175.35 234.841H177.789L175.816 236.279L176.57 238.605L174.596 237.168L172.622 238.605L173.376 236.279L171.403 234.841H173.842L174.596 232.515Z" fill="#7952B3"/>
<path fill-rule="evenodd" clip-rule="evenodd" d="M182.566 232.515L183.32 234.841H185.76L183.786 236.279L184.54 238.605L182.566 237.168L180.592 238.605L181.347 236.279L179.373 234.841H181.812L182.566 232.515Z" fill="#7952B3"/>
<path fill-rule="evenodd" clip-rule="evenodd" d="M190.536 232.515L191.29 234.841H193.729L191.755 236.279L192.51 238.605L190.536 237.168L188.562 238.605L189.317 236.279L187.342 234.841H189.782L190.536 232.515Z" fill="#7952B3"/>
<path fill-rule="evenodd" clip-rule="evenodd" d="M198.506 232.515L199.259 234.841H201.699L199.725 236.279L200.479 238.605L198.506 237.168L196.531 238.605L197.286 236.279L195.312 234.841H197.751L198.506 232.515Z" fill="#7952B3"/>
<path fill-rule="evenodd" clip-rule="evenodd" d="M206.475 232.515L207.229 234.841H209.669L207.695 236.279L208.449 238.605L206.475 237.168L204.502 238.605L205.256 236.279L203.282 234.841H205.721L206.475 232.515Z" fill="#7952B3"/>
<path fill-rule="evenodd" clip-rule="evenodd" d="M169.759 266.835L170.412 268.85H172.525L170.815 270.096L171.469 272.112L169.759 270.866L168.048 272.112L168.702 270.096L166.992 268.85H169.105L169.759 266.835Z" fill="#7952B3"/>
<path fill-rule="evenodd" clip-rule="evenodd" d="M176.664 266.835L177.317 268.85H179.431L177.721 270.096L178.374 272.112L176.664 270.866L174.954 272.112L175.607 270.096L173.897 268.85H176.011L176.664 266.835Z" fill="#7952B3"/>
<path fill-rule="evenodd" clip-rule="evenodd" d="M183.569 266.835L184.223 268.85H186.336L184.626 270.096L185.279 272.112L183.569 270.866L181.859 272.112L182.513 270.096L180.802 268.85H182.916L183.569 266.835Z" fill="#7952B3"/>
<path fill-rule="evenodd" clip-rule="evenodd" d="M190.475 266.835L191.127 268.85H193.241L191.531 270.096L192.185 272.112L190.475 270.866L188.764 272.112L189.417 270.096L187.708 268.85H189.821L190.475 266.835Z" fill="#7952B3"/>
<path fill-rule="evenodd" clip-rule="evenodd" d="M197.38 266.835L198.033 268.85H200.147L198.437 270.096L199.09 272.112L197.38 270.866L195.67 272.112L196.323 270.096L194.613 268.85H196.726L197.38 266.835Z" fill="#7952B3"/>
<path fill-rule="evenodd" clip-rule="evenodd" d="M190.398 245.14H172.812C172.36 245.14 171.99 244.769 171.99 244.315C171.99 243.861 172.36 243.49 172.812 243.49H190.398C190.851 243.49 191.222 243.861 191.222 244.315C191.222 244.769 190.851 245.14 190.398 245.14" fill="#7952B3"/>
<path fill-rule="evenodd" clip-rule="evenodd" d="M208.148 249.838H172.812C172.36 249.838 171.99 249.466 171.99 249.012C171.99 248.559 172.36 248.188 172.812 248.188H208.148C208.601 248.188 208.971 248.559 208.971 249.012C208.971 249.466 208.601 249.838 208.148 249.838" fill="#432273"/>
<path fill-rule="evenodd" clip-rule="evenodd" d="M208.148 252.568H172.812C172.36 252.568 171.99 252.197 171.99 251.743C171.99 251.289 172.36 250.918 172.812 250.918H208.148C208.601 250.918 208.971 251.289 208.971 251.743C208.971 252.197 208.601 252.568 208.148 252.568" fill="#432273"/>
<path fill-rule="evenodd" clip-rule="evenodd" d="M208.148 255.304H172.812C172.36 255.304 171.99 254.933 171.99 254.479C171.99 254.026 172.36 253.654 172.812 253.654H208.148C208.601 253.654 208.971 254.026 208.971 254.479C208.971 254.933 208.601 255.304 208.148 255.304" fill="#432273"/>
<path fill-rule="evenodd" clip-rule="evenodd" d="M183.45 277.774H168.213C167.821 277.774 167.5 277.452 167.5 277.059C167.5 276.666 167.821 276.344 168.213 276.344H183.45C183.843 276.344 184.163 276.666 184.163 277.059C184.163 277.452 183.843 277.774 183.45 277.774Z" fill="#7952B3"/>
<path fill-rule="evenodd" clip-rule="evenodd" d="M198.829 281.844H168.213C167.822 281.844 167.501 281.522 167.501 281.129C167.501 280.736 167.822 280.415 168.213 280.415H198.829C199.221 280.415 199.542 280.736 199.542 281.129C199.542 281.522 199.221 281.844 198.829 281.844Z" fill="#432273"/>
<path fill-rule="evenodd" clip-rule="evenodd" d="M198.829 284.21H168.213C167.822 284.21 167.501 283.888 167.501 283.495C167.501 283.102 167.822 282.78 168.213 282.78H198.829C199.221 282.78 199.542 283.102 199.542 283.495C199.542 283.888 199.221 284.21 198.829 284.21Z" fill="#432273"/>
<path fill-rule="evenodd" clip-rule="evenodd" d="M198.829 286.58H168.213C167.822 286.58 167.501 286.259 167.501 285.865C167.501 285.473 167.822 285.151 168.213 285.151H198.829C199.221 285.151 199.542 285.473 199.542 285.865C199.542 286.259 199.221 286.58 198.829 286.58Z" fill="#432273"/>
<path fill-rule="evenodd" clip-rule="evenodd" d="M108.533 407.828L100.402 436.447H104.041L112.907 407.828H108.533Z" fill="#7952B3"/>
<path fill-rule="evenodd" clip-rule="evenodd" d="M245.585 407.828L253.716 436.447H250.077L241.211 407.828H245.585Z" fill="#7952B3"/>
<path fill-rule="evenodd" clip-rule="evenodd" d="M124.993 383.347C124.993 383.347 122.283 390.768 109.564 391.082C96.8454 391.396 104.136 397.16 104.136 397.16C104.136 397.16 123.304 399.281 125.098 397.814C127.846 395.566 123.534 393.486 129.059 388.992C134.584 384.497 124.993 383.347 124.993 383.347" fill="#F9C2AA"/>
<path fill-rule="evenodd" clip-rule="evenodd" d="M111.713 390.955C111.713 390.955 112.796 397.088 115.437 397.813L107.652 397.428L110.294 391.082L111.713 390.955Z" fill="#F7AB8D"/>
<path fill-rule="evenodd" clip-rule="evenodd" d="M121.788 387.308C121.788 387.308 122.259 392.659 126.128 393.038C126.128 393.038 126.731 390.594 127.669 390.559C128.607 390.524 123.064 386.221 123.064 386.221L121.788 387.308Z" fill="#F7AB8D"/>
<path fill-rule="evenodd" clip-rule="evenodd" d="M111.023 390.086V398.652C111.023 398.652 94.3436 400.594 93.4051 395.577C92.4666 390.559 97.4709 386.692 103.204 386.274C104.702 386.165 105.951 386.112 106.979 386.095C109.203 386.057 111.023 387.856 111.023 390.086" fill="#FFC107"/>
<path fill-rule="evenodd" clip-rule="evenodd" d="M93.8181 396.521L94.5524 400.682H127.39V398.601L93.8181 396.521Z" fill="#FFC107"/>
<path fill-rule="evenodd" clip-rule="evenodd" d="M93.8638 396.78L111.023 397.587V395.473C111.023 395.473 94.8452 397.014 93.2917 394.923C93.2917 394.923 93.3844 396.26 93.8638 396.78" fill="#7952B3"/>
<path fill-rule="evenodd" clip-rule="evenodd" d="M144.801 345.926L149.522 347.838L145.461 351.117L144.801 345.926Z" fill="#11293A"/>
<path fill-rule="evenodd" clip-rule="evenodd" d="M208.289 395.368C208.289 395.368 194.11 400.176 188.69 396.308C183.269 392.441 161.064 368.608 161.064 368.608C161.064 368.608 135.939 395.054 129.215 393.957C129.215 393.957 124.681 390.873 123.064 386.222C121.449 381.57 120.927 380.943 120.927 380.943L148.867 353.347C148.867 353.347 146.677 347.285 144.801 345.926C144.801 345.926 144.592 344.881 147.198 343.522C149.804 342.163 179.932 328.366 183.79 331.92C187.647 335.473 204.953 365.159 204.953 365.159L208.289 395.368Z" fill="#193A55"/>
<path fill-rule="evenodd" clip-rule="evenodd" d="M146.991 349.027C146.991 349.027 139.9 350.735 138.858 349.027C137.815 347.32 137.329 344.934 137.329 344.934L131.699 346.692L135.314 361.953C135.314 361.953 138.239 363.843 141.322 360.799C144.403 357.755 149.492 357.424 149.492 357.424C149.492 357.424 149.982 352.825 146.991 349.027" fill="#F9C2AA"/>
<path fill-rule="evenodd" clip-rule="evenodd" d="M135.991 346.867C135.991 346.867 136.645 359.221 139.341 362.163C139.341 362.163 135.995 363.382 135.316 361.605C134.636 359.828 132.291 348.455 132.291 348.455L135.991 346.867Z" fill="#F7AB8D"/>
<path fill-rule="evenodd" clip-rule="evenodd" d="M149.492 357.424L149.522 360.978C149.522 360.978 170.342 354.916 181.392 343.418C181.392 343.418 171.314 359.211 148.658 362.534C148.658 362.534 146.26 362.546 144.175 362.128C142.09 361.71 137.732 364.345 137.732 364.345C137.732 364.345 143.81 357.006 149.492 357.424" fill="#11293A"/>
<path fill-rule="evenodd" clip-rule="evenodd" d="M176.375 347.837C176.375 347.837 188.829 363.507 196.543 370.267C196.543 370.267 170.556 352.759 170.31 351.886C170.31 351.886 175.733 348.333 176.375 347.837" fill="#11293A"/>
<path fill-rule="evenodd" clip-rule="evenodd" d="M202.235 370.495C202.235 370.495 199.115 375.735 199.427 382.32C199.74 388.905 191.638 396.931 185.421 393.755C185.421 393.755 192.756 403.66 209.852 396.412C209.852 396.412 207.648 372.989 202.235 370.495" fill="#11293A"/>
<path fill-rule="evenodd" clip-rule="evenodd" d="M121.955 333.072C121.955 333.072 127.113 329.132 132.951 331.989C138.788 334.847 140.318 342.372 140.109 343.697C139.9 345.02 134.356 348.454 134.356 348.454L121.955 333.072Z" fill="#FFC107"/>
<path fill-rule="evenodd" clip-rule="evenodd" d="M135.316 347.837C135.316 347.837 129.733 331.754 124.158 331.863C124.158 331.863 121.666 332.289 120.124 334.456C118.581 336.623 134.356 348.455 134.356 348.455L135.316 347.837Z" fill="#7952B3"/>
<path fill-rule="evenodd" clip-rule="evenodd" d="M161.064 368.609L164.608 365.053L163.551 371.261L161.064 368.609Z" fill="#11293A"/>
<path fill-rule="evenodd" clip-rule="evenodd" d="M268.337 308.923C268.337 308.923 261.456 310.316 259.649 317.286C259.649 317.286 257.564 319.934 255.131 320.421C252.699 320.909 253.88 322.094 255.131 323.278C256.382 324.463 257.077 326.345 255.965 328.017C254.853 329.689 253.16 334.289 261.026 338.261C261.026 338.261 263.61 339.376 262.846 341.048C262.081 342.721 258.302 348.633 258.302 348.633C258.302 348.633 263.402 354.079 268.059 351.082L272.531 339.708C272.746 339.161 272.995 338.63 273.277 338.115L278.761 328.087L268.337 308.923Z" fill="#F9C2AA"/>
<path fill-rule="evenodd" clip-rule="evenodd" d="M260.595 344.966C260.595 344.966 260.416 353.904 268.409 350.192C268.409 350.192 269.796 368.564 262.498 378.181C255.201 387.797 238.66 396.03 225.455 397.075C212.249 398.119 208.288 398.385 208.288 398.385C208.288 398.385 201.686 384.322 201.894 375.054C202.103 365.786 204.327 363.766 204.327 363.766C204.327 363.766 212.876 369.27 215.377 367.877C215.377 367.877 241.995 358.26 250.335 349.41C250.335 349.41 256.399 344.494 260.595 344.966" fill="#7952B3"/>
<path fill-rule="evenodd" clip-rule="evenodd" d="M220.384 377.932C220.384 377.932 221.702 380.49 235.046 377.493C235.046 377.493 239.077 376.239 240.258 377.493C241.441 378.747 244.637 380.768 251.17 374.288C257.703 367.807 261.12 363.049 259.933 359.052C258.746 355.054 220.384 377.932 220.384 377.932" fill="#432273"/>
<path fill-rule="evenodd" clip-rule="evenodd" d="M86.1078 400.681C86.1078 400.681 176.579 401.361 224.464 397.252C241.285 395.809 256.773 387.317 266.854 373.74C267.036 373.495 267.217 373.248 267.398 372.998C280.429 355.02 291.479 340.073 294.086 340.073C296.692 340.073 304.303 343.626 306.179 346.553C308.055 349.48 270.317 413.659 261.247 414.391C252.178 415.123 88.6096 414.391 88.6096 414.391C88.6096 414.391 83.3449 414.809 83.5015 410.838C83.658 406.865 82.7721 400.681 86.1078 400.681" fill="#FFC107"/>
<path fill-rule="evenodd" clip-rule="evenodd" d="M289.97 343.417C289.97 343.417 289.399 398.399 211.418 401.534C133.437 404.671 83.845 402.901 83.845 402.901C83.845 402.901 84.1623 400.122 87.359 400.69C87.359 400.69 186.797 400.716 203.381 398.652C203.381 398.652 235.339 399.511 251.039 388.363C251.039 388.363 261.883 382.632 270.01 369.4C278.135 356.17 289.97 343.417 289.97 343.417" fill="#C9971C"/>
<path fill-rule="evenodd" clip-rule="evenodd" d="M271.268 342.92C271.268 342.92 271.965 350.385 282 352.72C282 352.72 298.916 334.428 298.291 331.013C297.665 327.599 289.673 320.91 286.128 322.651C282.584 324.394 271.268 342.92 271.268 342.92" fill="#FFC107"/>
<path fill-rule="evenodd" clip-rule="evenodd" d="M271.268 342.92C271.268 342.92 291.013 335.573 287.18 322.379C287.18 322.379 271.646 340.176 271.268 342.92" fill="#F5C03D"/>
<path fill-rule="evenodd" clip-rule="evenodd" d="M274.452 299.167C274.452 299.167 263.471 294.777 264.445 306.345C265.418 317.913 277.228 317.355 272.365 321.954C267.502 326.554 266.946 328.365 266.946 328.365C266.946 328.365 271.742 324.671 273.757 326.414C275.773 328.156 275.008 331.013 273.549 333.243C272.089 335.473 271.666 341.91 271.666 341.91C271.666 341.91 293.93 328.783 287.189 317.913C280.447 307.041 265.626 304.463 274.452 299.167" fill="#11293A"/>
<path fill-rule="evenodd" clip-rule="evenodd" d="M237.409 362.511L236.714 360.978C236.714 360.978 249.085 354.219 253.046 353.662C257.008 353.104 261.247 357.215 259.58 361.396C257.912 365.577 244.289 376.089 244.289 376.089C244.289 376.089 241.058 374.393 237.409 362.511" fill="#7952B3"/>
<path fill-rule="evenodd" clip-rule="evenodd" d="M203.228 308.923L207.032 306.972L212.313 327.877L208.361 328.544L203.228 308.923Z" fill="#11293A"/>
<path fill-rule="evenodd" clip-rule="evenodd" d="M237.409 362.511C237.409 362.511 227.609 367.249 227.123 366.484C226.636 365.716 216.072 338.33 216.072 338.33C216.072 338.33 214.682 331.292 216.628 328.365C218.574 325.439 219.13 323.766 218.574 321.884C218.018 320.003 218.358 317.494 218.778 317.076C219.2 316.658 217.462 315.683 216.003 317.076C214.543 318.47 216.072 323.766 213.848 323.975C211.624 324.184 209.261 325.299 205.856 319.585C205.856 319.585 204.952 319.445 204.952 321.258C204.952 323.069 205.3 328.644 206.342 329.689C207.265 330.615 210.692 335.635 211.418 338.322C211.425 338.473 213.36 378.851 221.684 378.173C230.024 377.493 241.544 372.79 241.544 372.79L237.409 362.511Z" fill="#F9C2AA"/>
<path fill-rule="evenodd" clip-rule="evenodd" d="M119.885 334.742C119.885 334.742 124.055 329.096 128.85 336.414C133.646 343.73 139.588 362.004 135.731 364.575C131.873 367.145 124.367 359.097 120.927 346.867C120.927 346.867 118.738 338.922 119.885 334.742" fill="#FFC107"/>
<path fill-rule="evenodd" clip-rule="evenodd" d="M266.239 370.495C266.239 370.495 241.624 399.962 207.129 395.73L208.288 398.385C208.288 398.385 235.132 397.941 247.703 390.051C260.274 382.162 262.96 379.733 266.239 370.495" fill="#432273"/>
<path fill-rule="evenodd" clip-rule="evenodd" d="M237.737 363.652C237.737 363.652 239.143 373.059 233.827 375.515L241.544 372.789L237.737 363.652Z" fill="#F7AB8D"/>
<defs>
<linearGradient id="paint0_linear_630_7561" x1="0.019043" y1="278.67" x2="0.019043" y2="409.891" gradientUnits="userSpaceOnUse">
<stop stop-color="#FDFDFD"/>
<stop offset="0.992979" stop-color="white"/>
</linearGradient>
<linearGradient id="paint1_linear_630_7561" x1="-0.00219727" y1="391.213" x2="-0.00219727" y2="423.249" gradientUnits="userSpaceOnUse">
<stop stop-color="#FDFDFD"/>
<stop offset="1" stop-color="#F5C03D"/>
</linearGradient>
</defs>
</svg>
