<svg width="375" height="526" viewBox="0 0 375 526" fill="none" xmlns="http://www.w3.org/2000/svg">
<path d="M0 0H375V475.308C375 475.308 332.292 526 185.937 526C39.5833 526 0 475.308 0 475.308V0Z" fill="#FFF9E7"/>
<mask id="mask0_630_7562" style="mask-type:alpha" maskUnits="userSpaceOnUse" x="0" y="190" width="295" height="144">
<path fill-rule="evenodd" clip-rule="evenodd" d="M0 190.962H294.456V333.759H0V190.962Z" fill="white"/>
</mask>
<g mask="url(#mask0_630_7562)">
<path fill-rule="evenodd" clip-rule="evenodd" d="M294.455 312.263V333.732C293.782 333.74 293.106 333.759 292.433 333.759H2.02266C1.7302 333.759 1.43496 333.757 1.1425 333.752C0.745145 332.623 0.363767 331.5 -0.000244141 330.385V312.263C1.72742 312.816 1.90387 311.633 1.90109 309.95C1.87052 294.903 1.90942 279.853 1.84065 264.805C1.82954 262.793 2.22133 262.044 3.96567 262.135C7.08685 262.301 10.2198 262.149 13.3438 262.198C14.4636 262.218 15.3084 262.094 15.143 260.33C15.0576 259.419 15.4466 258.989 16.2385 259.003C16.9367 259.014 17.3208 259.377 17.2542 260.189C17.1083 261.987 17.9023 262.383 19.1423 262.179C20.5712 261.945 21.0464 262.625 21.029 264.422C20.9582 272.317 21.0464 280.216 20.9769 288.113C20.9609 289.987 21.4653 290.634 22.9783 290.502C24.5038 290.367 26.0495 290.339 27.5729 290.485C29.1651 290.637 29.6215 289.827 29.4881 288.038C29.3895 286.706 29.5242 285.354 29.4555 284.017C29.3867 282.69 29.7618 282.132 30.9066 282.173C32.3731 282.228 33.8437 282.107 35.3116 282.06C35.4915 282.093 35.6735 282.123 35.8555 282.159C37.3456 282.431 39.2525 281.353 40.2542 282.718C41.215 284.028 40.5772 286.294 40.5717 288.132C40.5661 289.714 41.1017 290.213 42.3327 290.191C45.3934 290.134 48.4598 290.083 51.5198 290.208C53.2398 290.276 53.8602 289.646 53.8442 287.436C53.756 276.343 53.824 265.251 53.7747 254.161C53.7664 252.452 54.1339 251.786 55.6323 251.847C58.8139 251.973 62.0046 251.973 65.1869 251.841C66.6742 251.78 67.182 252.221 67.1459 254.159C67.0326 260.186 67.1327 266.217 67.091 272.248C67.0827 273.748 67.4661 274.408 68.7714 274.37C71.9565 274.282 75.1416 274.312 78.326 274.293C79.9127 274.805 80.517 274.142 80.3955 272.096C80.2475 269.528 80.31 266.941 80.2829 264.362C80.426 263.591 80.0481 262.614 80.8928 262.124C82.9074 262.155 84.922 262.198 86.9365 262.209C89.4096 262.226 89.3936 262.215 89.3936 265.179C89.3874 276.313 89.3846 287.447 89.4207 298.583C89.4207 299.345 88.9101 300.774 90.4224 300.43C90.7892 300.457 91.1616 300.443 91.5207 300.521C93.1852 300.874 93.7951 300.108 93.6492 298.021C93.4971 295.878 93.6075 293.703 93.6159 291.543C93.6159 290.973 93.4971 290.161 94.2445 290.265C95.8923 290.497 95.8979 289.225 95.7485 287.91C95.5283 285.977 96.2126 285.564 97.6915 285.638C100.631 285.784 103.581 285.625 106.524 285.721C107.93 285.765 108.803 285.429 108.499 283.426C108.353 282.452 108.706 282.203 109.504 282.156C112.719 281.958 112.716 281.917 112.722 285.9C112.727 290.18 112.73 290.281 116.323 290.166C117.864 290.116 118.12 290.807 118.1 292.47C118.032 298.506 118.1 304.545 118.064 310.581C118.059 311.806 118.172 312.508 119.417 312.458C120.546 312.411 121.034 312.139 121.012 310.586C120.932 305.222 120.979 299.855 120.982 294.488C120.982 290.18 120.988 290.067 124.464 290.216C126.161 290.287 126.582 289.668 126.573 287.623C126.502 270.406 126.526 253.187 126.529 235.971C126.529 234.938 126.466 233.95 127.197 233.088C129.049 230.914 130.84 228.665 132.609 226.392C133.202 225.632 133.592 225.558 134.204 226.372C135.444 228.021 136.668 229.719 138.077 231.137C139.889 232.962 140.367 235.103 140.356 237.927C140.259 261.929 140.295 285.93 140.322 309.932C140.322 310.68 139.904 311.673 140.948 312.431C140.948 308.858 140.988 305.517 140.93 302.18C140.911 300.972 141.131 300.421 142.232 300.488C143.947 300.587 145.668 300.568 147.385 300.496C148.356 300.455 148.668 300.887 148.641 302.043C148.586 304.35 148.608 306.662 148.638 308.974C148.644 309.502 148.431 310.151 149.115 310.458C150.835 311.228 151.983 310.289 151.983 308.046C151.983 286.428 152.005 264.814 151.949 243.198C151.944 241.326 152.35 240.829 153.871 240.87C158.347 240.994 162.829 241.03 167.302 240.854C169.074 240.784 169.566 241.319 169.555 243.512C169.477 261.846 169.518 280.183 169.48 298.52C169.477 300.014 169.753 300.573 171.092 300.581C172.452 300.592 172.681 299.987 172.673 298.511C172.621 290.089 172.687 281.667 172.612 273.245C172.599 271.571 172.955 271.106 174.34 271.13C179.614 271.232 184.891 271.161 190.165 271.18C191.08 271.185 191.796 271.268 191.779 269.625C191.694 260.831 191.699 252.039 191.674 243.248C191.699 236.435 191.724 229.621 191.752 222.806C191.892 222.389 192.034 221.974 192.174 221.556C192.588 221.311 192.831 220.906 192.93 220.363C193.529 220.128 193.615 219.513 193.67 218.875L193.667 218.859C195.096 217.791 195.613 215.894 196.465 214.302C196.998 214.22 197.219 213.78 197.327 213.204C197.669 213.001 197.831 212.651 197.876 212.205C200.602 208.481 202.904 204.358 205.385 200.403C207.254 197.431 209.07 194.411 211.187 190.962C211.332 192.386 211.415 193.175 211.496 193.963C211.498 194.719 211.498 195.476 211.501 196.23C211.451 197.416 211.355 198.6 211.355 199.784C211.344 212.043 211.339 224.3 211.352 236.557C211.357 242.648 211.407 248.737 211.437 254.825C211.272 255.799 211.255 256.768 211.496 257.728C211.485 274.298 211.473 290.868 211.471 307.438C211.471 307.947 211.587 308.459 211.647 308.968C211.81 309.136 211.931 309.131 211.981 308.847C212.003 297.815 212.019 286.787 212.053 275.757C212.058 273.753 212.138 271.749 212.182 269.746C213.24 269.726 214.294 269.71 215.351 269.694C216.819 269.701 218.301 269.575 219.755 269.756C221.61 269.988 221.994 269.019 221.983 266.95C221.919 253.924 221.944 240.897 221.955 227.872C221.958 223.243 221.566 223.716 225.239 223.785C226.757 223.813 227.257 223.232 227.227 221.349C227.136 215.547 227.231 209.74 227.179 203.935C227.163 202.294 227.602 201.681 228.984 201.773C230.568 201.882 232.164 201.73 233.756 201.691C237.744 202.085 237.741 202.085 237.871 206.912C237.88 207.282 237.932 207.651 237.962 208.022C237.923 211.292 237.863 214.562 237.854 217.835C237.835 223.733 237.849 223.733 242.604 223.746H242.789C245.235 223.76 245.264 223.777 245.269 226.711C245.279 233.928 245.267 241.145 245.273 248.362C245.276 252.471 245.049 251.827 248.066 251.871C250.514 251.907 252.962 251.929 255.41 251.957C255.449 252.659 255.487 253.363 255.526 254.065C255.49 259.022 255.443 263.982 255.426 268.939C255.41 273.489 255.421 273.489 259.268 273.093C261.448 273.008 262.027 274.384 261.765 276.82C261.597 278.358 261.76 279.944 261.73 281.504C261.71 282.627 262.074 283.122 263.03 283.106C265.48 283.065 267.931 283.043 270.381 283.109C271.78 283.148 271.762 282.091 271.759 280.904C271.75 274.428 271.808 267.948 271.731 261.474C271.709 259.562 272.124 258.838 273.793 258.945C276.481 259.116 279.183 258.945 281.876 259.011C283.058 259.039 283.557 258.544 283.46 257.068C283.384 255.884 283.457 254.687 283.452 253.498C283.446 252.601 283.529 251.893 284.514 251.888C285.459 251.885 285.638 252.48 285.621 253.435C285.596 254.772 285.655 256.115 285.605 257.454C285.56 258.632 285.994 258.948 286.911 259.014C290.879 259.292 290.879 259.328 290.879 264.277C290.879 278.124 290.947 291.972 290.81 305.816C290.788 308.09 292.01 309.706 292.137 311.861C292.192 312.774 293.625 312.31 294.455 312.263" fill="#FFE289"/>
</g>
<mask id="mask1_630_7562" style="mask-type:alpha" maskUnits="userSpaceOnUse" x="80" y="190" width="295" height="144">
<path fill-rule="evenodd" clip-rule="evenodd" d="M80.5444 190.962H375V333.759H80.5444V190.962Z" fill="white"/>
</mask>
<g mask="url(#mask1_630_7562)">
<path fill-rule="evenodd" clip-rule="evenodd" d="M375 312.263V333.732C374.327 333.74 373.651 333.759 372.977 333.759H82.5673C82.2749 333.759 81.9796 333.757 81.6872 333.752C81.2898 332.623 80.9084 331.5 80.5444 330.385V312.263C82.2721 312.816 82.4485 311.633 82.4458 309.95C82.4159 294.903 82.4541 279.853 82.3853 264.805C82.3749 262.793 82.766 262.044 84.5103 262.135C87.6315 262.301 90.7645 262.149 93.8885 262.198C95.009 262.218 95.853 262.094 95.6877 260.33C95.6023 259.419 95.9913 258.989 96.7832 259.003C97.4821 259.014 97.8655 259.377 97.7988 260.189C97.6529 261.987 98.447 262.383 99.687 262.179C101.116 261.945 101.591 262.625 101.574 264.422C101.503 272.317 101.591 280.216 101.522 288.113C101.506 289.987 102.01 290.634 103.523 290.502C105.048 290.367 106.595 290.339 108.118 290.485C109.71 290.637 110.166 289.827 110.033 288.038C109.934 286.706 110.069 285.354 110 284.017C109.931 282.69 110.306 282.132 111.451 282.173C112.918 282.228 114.388 282.107 115.856 282.06C116.036 282.093 116.218 282.123 116.4 282.159C117.891 282.431 119.798 281.353 120.799 282.718C121.76 284.028 121.122 286.294 121.116 288.132C121.111 289.714 121.646 290.213 122.877 290.191C125.938 290.134 129.004 290.083 132.065 290.208C133.785 290.276 134.405 289.646 134.389 287.436C134.301 276.343 134.369 265.251 134.319 254.161C134.311 252.452 134.679 251.786 136.177 251.847C139.359 251.973 142.549 251.973 145.732 251.841C147.219 251.78 147.727 252.221 147.691 254.159C147.578 260.186 147.677 266.217 147.636 272.248C147.627 273.748 148.011 274.408 149.316 274.37C152.501 274.282 155.686 274.312 158.871 274.293C160.458 274.805 161.062 274.142 160.941 272.096C160.792 269.528 160.855 266.941 160.828 264.362C160.971 263.591 160.593 262.614 161.438 262.124C163.453 262.155 165.467 262.198 167.481 262.209C169.954 262.226 169.938 262.215 169.938 265.179C169.933 276.313 169.93 287.447 169.965 298.583C169.965 299.345 169.455 300.774 170.967 300.43C171.334 300.457 171.706 300.443 172.065 300.521C173.73 300.874 174.339 300.108 174.194 298.021C174.042 295.878 174.152 293.703 174.161 291.543C174.161 290.973 174.042 290.161 174.79 290.265C176.437 290.497 176.443 289.225 176.294 287.91C176.073 285.977 176.757 285.564 178.237 285.638C181.175 285.784 184.126 285.625 187.068 285.721C188.475 285.765 189.348 285.429 189.043 283.426C188.898 282.452 189.251 282.203 190.049 282.156C193.264 281.958 193.261 281.917 193.267 285.9C193.272 290.18 193.275 290.281 196.868 290.166C198.408 290.116 198.665 290.807 198.645 292.47C198.576 298.506 198.645 304.545 198.61 310.581C198.603 311.806 198.717 312.508 199.962 312.458C201.09 312.411 201.579 312.139 201.557 310.586C201.477 305.222 201.524 299.855 201.527 294.488C201.527 290.18 201.532 290.067 205.01 290.216C206.707 290.287 207.126 289.668 207.118 287.623C207.047 270.406 207.072 253.187 207.074 235.971C207.074 234.938 207.01 233.95 207.741 233.088C209.594 230.914 211.385 228.665 213.154 226.392C213.747 225.632 214.136 225.558 214.748 226.372C215.988 228.021 217.213 229.719 218.621 231.137C220.434 232.962 220.911 235.103 220.901 237.927C220.804 261.929 220.84 285.93 220.867 309.932C220.867 310.68 220.448 311.673 221.494 312.431C221.494 308.858 221.533 305.517 221.474 302.18C221.456 300.972 221.676 300.421 222.777 300.488C224.491 300.587 226.213 300.568 227.93 300.496C228.901 300.455 229.213 300.887 229.186 302.043C229.13 304.35 229.153 306.662 229.183 308.974C229.189 309.502 228.975 310.151 229.66 310.458C231.38 311.228 232.527 310.289 232.527 308.046C232.527 286.428 232.55 264.814 232.494 243.198C232.489 241.326 232.894 240.829 234.415 240.87C238.891 240.994 243.373 241.03 247.847 240.854C249.619 240.784 250.11 241.319 250.099 243.512C250.022 261.846 250.063 280.183 250.025 298.52C250.022 300.014 250.298 300.573 251.637 300.581C252.997 300.592 253.226 299.987 253.218 298.511C253.165 290.089 253.231 281.667 253.157 273.245C253.143 271.571 253.5 271.106 254.885 271.13C260.159 271.232 265.436 271.161 270.71 271.18C271.626 271.185 272.341 271.268 272.324 269.625C272.239 260.831 272.244 252.039 272.219 243.248C272.244 236.435 272.268 229.621 272.296 222.806C272.437 222.389 272.578 221.974 272.719 221.556C273.133 221.311 273.376 220.906 273.475 220.363C274.074 220.128 274.159 219.513 274.214 218.875L274.211 218.859C275.642 217.791 276.158 215.894 277.01 214.302C277.543 214.22 277.763 213.78 277.872 213.204C278.213 213.001 278.376 212.651 278.42 212.205C281.147 208.481 283.449 204.358 285.93 200.403C287.799 197.431 289.615 194.411 291.731 190.962C291.878 192.386 291.96 193.175 292.04 193.963C292.043 194.719 292.043 195.476 292.046 196.23C291.997 197.416 291.899 198.6 291.899 199.784C291.888 212.043 291.883 224.3 291.897 236.557C291.902 242.648 291.951 248.737 291.982 254.825C291.817 255.799 291.8 256.768 292.04 257.728C292.029 274.298 292.018 290.868 292.015 307.438C292.015 307.947 292.131 308.459 292.192 308.968C292.354 309.136 292.476 309.131 292.526 308.847C292.548 297.815 292.565 286.787 292.597 275.757C292.604 273.753 292.683 271.749 292.727 269.746C293.785 269.726 294.838 269.71 295.896 269.694C297.364 269.701 298.846 269.575 300.301 269.756C302.155 269.988 302.538 269.019 302.528 266.95C302.464 253.924 302.489 240.897 302.5 227.872C302.503 223.243 302.11 223.716 305.784 223.785C307.302 223.813 307.802 223.232 307.771 221.349C307.68 215.547 307.776 209.74 307.724 203.935C307.708 202.294 308.146 201.681 309.529 201.773C311.113 201.882 312.708 201.73 314.301 201.691C318.289 202.085 318.286 202.085 318.416 206.912C318.424 207.282 318.476 207.651 318.507 208.022C318.468 211.292 318.407 214.562 318.399 217.835C318.38 223.733 318.394 223.733 323.149 223.746H323.333C325.779 223.76 325.809 223.777 325.815 226.711C325.823 233.928 325.812 241.145 325.818 248.362C325.82 252.471 325.594 251.827 328.611 251.871C331.058 251.907 333.507 251.929 335.954 251.957C335.993 252.659 336.031 253.363 336.07 254.065C336.034 259.022 335.988 263.982 335.97 268.939C335.954 273.489 335.965 273.489 339.813 273.093C341.992 273.008 342.572 274.384 342.31 276.82C342.142 278.358 342.305 279.944 342.275 281.504C342.255 282.627 342.62 283.122 343.574 283.106C346.025 283.065 348.475 283.043 350.927 283.109C352.325 283.148 352.306 282.091 352.304 280.904C352.295 274.428 352.353 267.948 352.276 261.474C352.254 259.562 352.668 258.838 354.338 258.945C357.025 259.116 359.728 258.945 362.421 259.011C363.603 259.039 364.102 258.544 364.005 257.068C363.928 255.884 364.003 254.687 363.996 253.498C363.991 252.601 364.073 251.893 365.059 251.888C366.003 251.885 366.183 252.48 366.166 253.435C366.141 254.772 366.199 256.115 366.15 257.454C366.105 258.632 366.538 258.948 367.455 259.014C371.424 259.292 371.424 259.328 371.424 264.277C371.424 278.124 371.492 291.972 371.354 305.816C371.333 308.09 372.555 309.706 372.682 311.861C372.737 312.774 374.17 312.31 375 312.263" fill="#FFE289"/>
</g>
<path fill-rule="evenodd" clip-rule="evenodd" d="M44.6051 199.147C45.7867 198.453 46.8024 197.528 47.133 196.248C47.7318 193.934 45.4998 192.306 43.5478 191.674C41.2887 190.943 38.4635 190.841 36.2641 191.809C34.9296 192.396 33.6368 193.298 32.797 194.485C32.6455 194.698 32.4253 195.006 32.235 195.346C32.0356 194.09 31.5917 192.852 31.0249 191.747C30.2947 190.322 29.0297 188.799 27.2479 188.829C25.598 188.857 24.4997 190.628 23.8593 191.887C23.3542 192.883 22.9423 193.979 22.6873 195.093C22.3025 193.951 21.3195 192.852 20.5436 192.192C19.8961 191.642 19.016 191.175 18.1309 191.301C17.073 191.451 16.306 192.157 15.776 193.029C15.1549 194.051 14.8611 195.363 14.8806 196.631C12.6166 195.372 8.77434 196.547 8.34155 199.147H44.6051Z" fill="#FEF4CB"/>
<path fill-rule="evenodd" clip-rule="evenodd" d="M161.015 182.352C162.198 181.658 163.213 180.733 163.544 179.454C164.143 177.14 161.91 175.511 159.959 174.88C157.699 174.148 154.874 174.047 152.675 175.015C151.34 175.601 150.048 176.504 149.207 177.69C149.056 177.903 148.836 178.211 148.646 178.551C148.446 177.295 148.002 176.057 147.436 174.952C146.706 173.527 145.44 172.004 143.658 172.034C142.009 172.063 140.91 173.833 140.27 175.093C139.765 176.089 139.353 177.184 139.098 178.298C138.714 177.156 137.731 176.057 136.954 175.398C136.307 174.847 135.427 174.38 134.541 174.506C133.483 174.656 132.716 175.362 132.186 176.235C131.566 177.256 131.271 178.569 131.291 179.836C129.027 178.578 125.185 179.753 124.752 182.352H161.015Z" fill="#FEF4CB"/>
<path fill-rule="evenodd" clip-rule="evenodd" d="M142.43 359.53H55.2629C54.291 359.53 53.4963 358.736 53.4963 357.768C53.4963 356.798 54.291 356.005 55.2629 356.005H142.43C143.402 356.005 144.198 356.798 144.198 357.768C144.198 358.736 143.402 359.53 142.43 359.53" fill="#FDE798"/>
<path fill-rule="evenodd" clip-rule="evenodd" d="M235.764 151.664C235.764 151.664 217.412 170.406 235.764 192.12C235.764 192.12 229.652 206.526 237.235 203.895C244.818 201.263 244.285 198.782 250.592 199.996C256.901 201.21 263.492 202.583 276.396 194.828C289.3 187.073 287.275 168.643 287.275 168.643C287.275 168.643 288.003 155.292 273.464 146.695C273.464 146.695 255.634 134.304 235.764 151.664" fill="white"/>
<path fill-rule="evenodd" clip-rule="evenodd" d="M294.766 165.838L294.761 165.812C293.365 159.112 288.428 152.571 281.556 148.313C273.825 143.524 265.412 142.356 256.562 144.848C248.774 147.038 242.685 151.667 238.466 158.605C231.773 169.609 233.093 183.993 241.675 193.585C242.094 194.054 242.173 194.357 242.044 194.999C241.416 198.124 240.88 201.01 240.403 203.823C240.197 205.038 240.419 205.95 241.06 206.535C241.704 207.121 242.64 207.26 243.844 206.941C244.234 206.839 244.589 206.682 244.929 206.533L247.063 205.598C249.281 204.627 251.574 203.625 253.817 202.601C254.433 202.32 254.923 202.284 255.562 202.476C260.602 203.978 265.512 204.3 270.252 203.447C274.198 202.737 278.027 201.211 281.714 198.874C292.427 192.085 297.306 179.734 294.766 165.838" fill="#FDE798"/>
<path fill-rule="evenodd" clip-rule="evenodd" d="M293.398 389.518H116.548C114.258 389.518 112.384 387.55 112.384 385.145V382.53C112.384 380.125 114.258 378.158 116.548 378.158H307.961C307.996 378.158 304.092 381.674 300.236 384.674C296.818 387.333 293.398 389.518 293.398 389.518" fill="#FDE798"/>
<path fill-rule="evenodd" clip-rule="evenodd" d="M183.099 261.802C184.419 261.787 185.591 261.502 185.93 261.412C185.965 261.403 186 261.392 186.032 261.384C186.677 261.22 190.707 263.163 195.682 265.405C203.179 267.376 210.074 269.368 211.735 269.617C213.867 269.937 217.087 267.872 219.399 266.097C219.387 265.902 219.459 265.707 219.609 265.567C220.53 264.712 223.09 262.305 225.675 259.593C221.958 261.491 215.759 264.394 213.277 264.022C210.51 263.607 193.23 258.358 182.825 256.428C182.863 256.811 182.879 257.205 182.875 257.609C183.023 258.904 183.14 260.429 183.099 261.802" fill="#F2B5A0"/>
<path fill-rule="evenodd" clip-rule="evenodd" d="M183.074 262.33C183.073 262.338 183.073 262.346 183.072 262.355C184.101 262.055 185.116 261.658 185.777 261.457C185.284 261.6 184.149 261.938 183.074 262.33" fill="#F2B5A0"/>
<path fill-rule="evenodd" clip-rule="evenodd" d="M185.987 261.397C185.972 261.401 185.952 261.407 185.93 261.412C185.591 261.503 184.419 261.787 183.099 261.802C183.094 261.981 183.085 262.157 183.074 262.33C184.149 261.937 185.284 261.6 185.777 261.457C185.873 261.43 185.944 261.409 185.987 261.397" fill="#F7AB8D"/>
<path fill-rule="evenodd" clip-rule="evenodd" d="M186.032 261.385C186.032 261.385 186.016 261.389 185.987 261.398C186.014 261.39 186.032 261.385 186.032 261.385" fill="#F7AB8D"/>
<path fill-rule="evenodd" clip-rule="evenodd" d="M197.49 349.804C197.534 349.804 197.579 349.827 197.621 349.837C197.708 349.89 197.797 349.946 197.885 350.001L197.858 349.992C197.871 350.012 197.88 350.032 197.89 350.052C198.516 350.052 199.14 350.052 199.765 350.052L200.033 340.678C199.097 341.231 198.147 341.456 197.264 341.492L197.027 349.804H197.49Z" fill="#F7AB8D"/>
<path fill-rule="evenodd" clip-rule="evenodd" d="M200.153 324.392V324.391C199.26 332.645 197.732 339.901 197.732 339.901C197.59 340.002 197.446 340.092 197.302 340.178L197.265 341.492C198.147 341.456 199.097 341.231 200.033 340.678C200.179 340.593 200.325 340.5 200.47 340.398C200.47 340.398 206.559 311.479 201.536 303.434C201.536 303.434 209.242 304.922 218.827 305.91C218.941 305.833 219.058 305.759 219.179 305.691C208.024 304.59 198.798 302.938 198.798 302.938C202.907 309.541 200.153 324.392 200.153 324.392" fill="#11293A"/>
<path fill-rule="evenodd" clip-rule="evenodd" d="M200.629 358.555C200.638 357.126 200.656 355.695 200.645 354.266C200.644 353.968 200.795 353.681 200.719 353.396C200.598 352.945 200.651 352.508 200.722 352.063C200.748 351.896 200.747 351.716 200.613 351.577C200.524 351.483 200.577 351.414 200.623 351.319C200.797 350.959 200.811 350.595 200.597 350.241L200.623 350.25C200.535 350.194 200.447 350.139 200.36 350.084C200.318 350.075 200.272 350.053 200.229 350.053H199.765C199.14 350.052 198.516 350.053 197.891 350.053C198.068 350.388 198.049 350.731 197.885 351.07C197.838 351.165 197.785 351.235 197.874 351.328C198.008 351.468 198.01 351.648 197.983 351.815C197.913 352.26 197.86 352.697 197.981 353.147C198.057 353.432 197.906 353.72 197.908 354.017C197.918 355.447 197.899 356.877 197.892 358.307C197.906 358.669 197.828 359.027 197.89 359.393C197.913 359.522 197.88 359.654 197.813 359.77C198.64 359.768 199.467 359.766 200.293 359.766C200.404 359.766 200.518 359.775 200.631 359.781C200.636 359.734 200.636 359.688 200.628 359.641C200.566 359.275 200.644 358.917 200.629 358.555" fill="#061823"/>
<path fill-rule="evenodd" clip-rule="evenodd" d="M197.027 349.804L197.264 341.492L197.302 340.177C194.948 341.571 192.494 340.88 191.276 340.365L191.835 349.804C193.566 349.802 195.296 349.803 197.027 349.804" fill="#F9C2AA"/>
<path fill-rule="evenodd" clip-rule="evenodd" d="M136.801 370.951C130.395 370.965 125.235 365.885 125.219 359.551C125.204 353.292 130.357 348.104 136.611 348.084C143.03 348.062 148.118 353.099 148.141 359.501C148.165 365.83 143.107 370.937 136.801 370.951M152.474 357.693C151.51 355.921 150.948 353.86 149.461 352.445C143.319 348.829 136.81 346.395 129.92 345.179C126.673 344.605 123.398 344.35 120.125 344.059C119.85 344.034 119.582 344.038 119.326 344.102C110.747 354.025 111.525 368.469 121.595 377.193C122.305 377.807 122.917 378.679 124.03 378.676C124.026 379.022 124.273 379.162 124.538 379.286C125.085 379.654 125.588 380.111 126.294 380.163C126.544 380.289 126.794 380.417 127.044 380.545C127.171 380.853 127.489 380.867 127.738 380.97C131.568 382.532 135.518 383.029 139.651 382.583C148.266 381.652 155.937 375.235 158.74 367.129C158.646 366.959 158.53 366.802 158.396 366.65C156.025 363.978 154.207 360.878 152.474 357.693" fill="#323232"/>
<path fill-rule="evenodd" clip-rule="evenodd" d="M265.172 375.843C265.163 375.298 264.918 374.993 264.44 374.927C264.918 374.993 265.163 375.298 265.172 375.843V375.843ZM275.423 352.817C275.33 352.819 275.238 352.821 275.145 352.824C276.091 354.074 276.774 355.512 277.106 357.212C278.199 362.819 275.186 368.29 269.883 370.255C264.615 372.208 258.763 370.095 255.939 365.22C253.776 361.487 253.951 357.059 256.147 353.557C256.102 353.564 256.058 353.569 256.013 353.575C255.226 353.688 254.439 353.809 253.651 353.925C252.389 354.11 251.223 354.421 250.171 354.897C247.858 355.941 246.102 357.774 245.1 360.774C244.181 361.047 244.234 362.031 243.916 362.735C243.681 363.255 243.509 363.81 243.31 364.348C243.286 364.458 243.26 364.569 243.236 364.679C244.906 372.418 249.774 377.981 257.858 381.357C258.496 381.528 259.134 381.7 259.774 381.872C260.97 382.349 262.234 382.477 263.502 382.625C277.693 384.283 290.258 372.132 289.112 357.909C288.974 356.2 288.619 354.556 288.168 352.936C283.923 352.708 279.675 352.641 275.423 352.817V352.817Z" fill="#323232"/>
<path fill-rule="evenodd" clip-rule="evenodd" d="M265.894 354.639C268.517 354.651 270.773 356.896 270.786 359.508C270.8 362.186 268.49 364.453 265.796 364.408C263.156 364.363 260.962 362.114 260.991 359.48C261.02 356.846 263.266 354.628 265.894 354.639M255.939 365.22C258.763 370.095 264.615 372.208 269.882 370.255C275.185 368.289 278.199 362.819 277.106 357.212C276.774 355.513 276.091 354.074 275.145 352.824C271.141 352.933 267.136 353.041 263.131 353.15C260.78 352.971 258.462 353.226 256.146 353.557C253.951 357.058 253.776 361.487 255.939 365.22" fill="#FDFDFD"/>
<path fill-rule="evenodd" clip-rule="evenodd" d="M136.686 364.407C134.007 364.394 131.89 362.25 131.885 359.544C131.879 356.847 133.999 354.668 136.661 354.634C139.289 354.6 141.546 356.81 141.569 359.44C141.594 362.169 139.38 364.42 136.686 364.407M136.611 348.083C130.357 348.104 125.204 353.292 125.219 359.551C125.235 365.886 130.395 370.965 136.8 370.951C143.107 370.938 148.165 365.831 148.141 359.5C148.117 353.099 143.03 348.062 136.611 348.083" fill="#FDFDFD"/>
<path fill-rule="evenodd" clip-rule="evenodd" d="M265.797 364.408C268.491 364.453 270.8 362.186 270.787 359.509C270.773 356.896 268.517 354.651 265.894 354.639C263.265 354.629 261.02 356.846 260.991 359.48C260.962 362.114 263.156 364.363 265.797 364.408" fill="#F5C03D"/>
<path fill-rule="evenodd" clip-rule="evenodd" d="M136.661 354.634C133.998 354.668 131.878 356.847 131.885 359.544C131.89 362.25 134.007 364.394 136.685 364.407C139.379 364.42 141.594 362.168 141.569 359.44C141.546 356.81 139.289 354.6 136.661 354.634" fill="#F5C03D"/>
<path fill-rule="evenodd" clip-rule="evenodd" d="M289.6 335.35C289.866 336.144 290.145 336.934 290.429 337.721C290.122 336.933 289.814 336.145 289.507 335.357C288.985 335.403 288.463 335.456 287.942 335.457C273.802 335.465 223.51 336.478 217.498 336.482C217.498 336.482 217.497 336.478 217.496 336.47C216.963 339.906 215.618 343.411 213.93 346.339C210.957 351.499 206.97 355.598 202.468 359.132C202.243 359.31 202.019 359.574 201.68 359.441C201.379 359.801 201.006 359.8 200.631 359.781C200.518 359.775 200.405 359.766 200.293 359.766C199.467 359.766 198.64 359.768 197.813 359.77C197.715 359.942 197.54 360.082 197.337 360.133C197.168 360.175 196.989 360.182 196.814 360.182C191.342 360.181 185.871 360.179 180.399 360.174C179.078 360.173 177.758 360.164 176.437 360.154C175.972 360.151 175.67 359.932 175.643 359.539C175.643 359.526 175.642 359.515 175.641 359.503C174.872 359.502 174.467 359.181 174.317 358.385C174.187 357.706 174.053 357.026 173.922 356.344C173.474 355.999 173.489 355.426 173.351 354.933C172.456 351.721 171.57 348.506 170.68 345.292C170.388 344.227 170.095 343.163 169.802 342.098C169.791 341.918 169.842 341.686 169.573 341.724C169.835 341.176 169.519 340.693 169.394 340.206C167.134 331.367 164.741 322.566 162.952 313.591C162.684 312.249 162.322 310.931 162.866 309.498C164.411 305.433 165.853 301.322 167.34 297.231C169.574 291.084 171.81 284.939 174.037 278.79L174.042 278.792L176.534 272.036C176.635 271.836 176.729 271.628 176.76 271.423L176.873 271.119C176.36 271.021 176.732 269.921 176.732 269.921C176.749 269.901 176.763 269.881 176.779 269.862C176.602 270.078 176.407 270.291 176.189 270.498C175.413 270.549 174.636 270.6 173.86 270.65C173.376 270.433 172.958 270.167 172.608 269.863C172.649 269.903 172.675 269.924 172.675 269.924C172.186 270.119 171.733 269.843 171.384 269.293L168.188 275.443C167.161 277.854 165.846 280.118 164.641 282.437C162.325 286.894 159.996 291.343 157.681 295.8C155.41 300.17 153.151 304.545 150.887 308.918C150.66 309.357 150.575 309.805 150.734 310.307C152.416 315.592 154.112 320.872 155.76 326.168C157.349 331.272 158.75 336.453 160.493 341.493C161.719 345.04 162.659 348.686 163.894 352.225C164.99 355.369 165.962 358.567 166.886 361.776C167.24 363.009 167.778 363.419 168.974 363.416C169.441 363.414 169.944 363.413 170.478 363.413C177.013 363.395 183.548 363.388 190.082 363.385L210.162 363.545C225.707 363.622 239.721 363.704 241.618 363.704C242.253 363.704 242.92 363.586 243.31 364.348C243.509 363.81 243.682 363.255 243.916 362.735C244.235 362.031 244.181 361.047 245.1 360.774C246.103 357.774 247.859 355.941 250.171 354.896C251.223 354.421 252.389 354.11 253.651 353.926C254.439 353.81 255.226 353.689 256.013 353.576C256.058 353.569 256.102 353.563 256.147 353.556C258.463 353.227 260.78 352.972 263.131 353.15C267.136 353.042 271.141 352.933 275.146 352.825C275.238 352.822 275.33 352.819 275.423 352.817C279.675 352.641 283.923 352.708 288.167 352.936C289.355 352.999 290.543 353.074 291.73 353.161C293.809 353.226 294.61 352.634 294.999 350.667C295.199 349.659 295.111 348.669 294.729 347.695C294.059 345.985 293.438 344.252 292.797 342.528C291.773 340.139 290.758 337.747 289.787 335.334C289.724 335.339 289.662 335.344 289.6 335.35" fill="#CD8500"/>
<path fill-rule="evenodd" clip-rule="evenodd" d="M289.6 335.35C289.569 335.352 289.538 335.354 289.507 335.357C289.815 336.145 290.122 336.933 290.429 337.721C290.145 336.934 289.867 336.144 289.6 335.35" fill="#D82723"/>
<path fill-rule="evenodd" clip-rule="evenodd" d="M171.54 268.26C171.431 267.885 171.391 267.487 171.435 267.069C171.467 266.754 171.527 266.458 171.607 266.178C171.604 266.185 171.6 266.192 171.597 266.197C171.268 266.962 171.331 267.67 171.54 268.26" fill="#FAD464"/>
<path fill-rule="evenodd" clip-rule="evenodd" d="M241.618 363.703C239.721 363.704 225.708 363.622 210.162 363.545C195.217 363.471 178.856 363.401 170.478 363.412C169.944 363.413 169.442 363.414 168.974 363.416C167.778 363.419 167.24 363.009 166.886 361.776C165.963 358.567 164.99 355.369 163.893 352.226C162.658 348.686 161.719 345.041 160.493 341.493C158.75 336.453 157.349 331.272 155.76 326.168C154.112 320.872 152.416 315.592 150.734 310.307C150.574 309.805 150.66 309.357 150.888 308.918C153.151 304.545 155.41 300.17 157.68 295.8C159.996 291.343 162.325 286.894 164.641 282.437C165.846 280.117 167.161 277.854 168.188 275.443L171.384 269.293C170.917 268.556 170.641 267.321 170.726 266.034L166.57 265.922C166.547 265.914 166.525 265.906 166.501 265.9C166.159 265.881 165.966 265.868 165.966 265.868C164.963 265.956 163.948 265.901 162.938 265.907C163.026 266.456 162.678 266.808 162.432 267.194C154.281 280.019 146.14 292.85 137.952 305.647C137.091 306.994 136.691 308.385 136.661 309.988C136.592 313.776 137.776 317.255 138.826 320.77C138.912 321.068 138.995 321.366 139.081 321.663C139.333 322.55 139.584 323.437 139.834 324.325C140.144 325.428 140.456 326.53 140.781 327.628C141.004 328.387 141.234 329.144 141.471 329.898C143.799 337.284 146.307 344.593 149.475 351.609C149.619 351.927 149.753 352.171 149.461 352.445C150.948 353.86 151.51 355.921 152.474 357.693C154.207 360.878 156.025 363.978 158.396 366.65C158.531 366.802 158.647 366.959 158.74 367.129C158.842 367.316 158.916 367.519 158.949 367.749C159.363 367.813 159.647 368.106 159.938 368.401C162.746 371.252 166.046 372.425 169.893 372.405C183.512 372.332 197.134 372.425 210.754 372.434C220.687 372.441 230.62 372.393 240.552 372.433C241.625 372.436 242.03 372.122 242.092 370.961C242.206 368.815 242.775 366.757 243.236 364.679C243.26 364.569 243.286 364.459 243.31 364.348C242.92 363.586 242.252 363.703 241.618 363.703" fill="#FFC107"/>
<path fill-rule="evenodd" clip-rule="evenodd" d="M278.746 323.428C257.609 323.421 236.472 323.419 215.336 323.415C215.58 328.597 217.417 336.149 217.496 336.47C217.497 336.478 217.498 336.482 217.498 336.482C223.51 336.478 273.802 335.465 287.942 335.457C288.463 335.456 288.985 335.403 289.507 335.357C289.538 335.354 289.568 335.352 289.6 335.35C289.662 335.344 289.724 335.339 289.787 335.334C289.321 334.177 288.863 333.017 288.425 331.847C288.26 331.407 288.101 330.964 287.94 330.521C287.655 329.734 287.376 328.942 287.109 328.146C287.15 328.146 287.191 328.145 287.232 328.144C287.002 327.519 286.774 326.892 286.555 326.262C286.223 325.306 285.796 324.392 285.395 323.466C285.293 323.469 285.191 323.47 285.09 323.472C282.975 323.457 280.861 323.428 278.746 323.428" fill="#FFC107"/>
<path fill-rule="evenodd" clip-rule="evenodd" d="M290.983 311.367C290.775 309.917 290.354 308.853 289.841 307.953C289.67 307.653 289.489 307.371 289.302 307.1C289.208 307.067 289.114 307.04 289.019 307.016C285.228 307.016 281.437 307.014 277.647 307.017C277.288 307.017 276.93 307.071 276.571 307.1C275.973 306.888 275.353 306.953 274.741 306.952C269.533 306.945 264.326 306.951 259.119 306.938C258.704 306.938 258.239 307.109 257.893 306.679C257.893 306.601 257.892 306.523 257.891 306.445C255.492 306.365 251.593 306.234 247.174 306.078C241.9 307.013 235.555 306.649 235.555 306.649L235.555 306.648C230.181 306.609 224.464 306.213 219.179 305.691C219.058 305.759 218.941 305.833 218.827 305.911C213.519 309.539 214.965 323.414 214.965 323.416H215.335C236.472 323.419 257.609 323.421 278.746 323.427C280.861 323.428 282.975 323.457 285.09 323.473C285.191 323.47 285.294 323.469 285.395 323.466C285.832 323.457 286.269 323.448 286.706 323.441C290.401 323.387 292.667 320.982 292.75 316.976C292.789 315.105 292.868 313.23 292.595 311.367C292.594 311.365 292.593 311.362 292.592 311.359C292.056 311.362 291.519 311.365 290.983 311.367" fill="#11293A"/>
<path fill-rule="evenodd" clip-rule="evenodd" d="M120.125 344.059C123.398 344.35 126.673 344.605 129.92 345.179C136.81 346.395 143.319 348.829 149.46 352.445C149.753 352.17 149.619 351.926 149.476 351.609C146.306 344.593 143.799 337.284 141.471 329.899C141.234 329.144 141.005 328.387 140.78 327.628C140.457 326.529 140.144 325.427 139.834 324.325C139.584 323.437 139.333 322.55 139.08 321.663C138.996 321.365 138.912 321.067 138.826 320.77C138.959 321.944 138.188 321.73 137.587 321.705C132.109 321.471 127.101 323.157 122.446 326.193C118.118 329.015 114.652 332.756 112.785 337.965C111.683 341.038 112.903 343.095 115.851 343.726C116.849 343.939 117.917 343.723 118.851 344.305C119.005 344.208 119.163 344.143 119.326 344.102C119.582 344.039 119.85 344.034 120.125 344.059" fill="#FFC107"/>
<path fill-rule="evenodd" clip-rule="evenodd" d="M259.857 288.722L259.882 288.718C259.882 288.432 259.882 288.147 259.882 287.861V287.859C259.882 286.541 259.877 285.224 259.859 283.906C259.851 283.334 260.045 283.13 260.882 283.132C272.383 283.151 283.885 283.15 295.386 283.133C296.295 283.132 296.567 283.357 296.565 284.006C296.54 290.883 296.54 297.76 296.566 304.638C296.569 305.252 296.35 305.447 295.476 305.445C283.976 305.425 272.474 305.423 260.973 305.447C260.017 305.449 259.851 305.198 259.858 304.578C259.884 302.149 259.882 299.72 259.88 297.291V297.217C259.88 297.037 259.88 296.855 259.88 296.675L259.857 296.687V288.722ZM259.119 306.992C264.326 307.001 269.533 306.997 274.741 307.002C275.353 307.002 275.972 306.959 276.571 307.1C276.929 307.081 277.288 307.045 277.646 307.044C281.437 307.043 285.228 307.044 289.019 307.044H289.756C289.854 307.033 289.951 307.025 290.049 307.024C292.852 307.022 295.655 307.023 298.459 307.024C298.488 306.927 298.533 306.831 298.533 306.735C298.54 298.568 298.536 290.403 298.557 282.237C298.558 281.728 298.223 281.705 297.689 281.705C284.709 281.711 271.729 281.713 258.749 281.698C258.025 281.697 257.841 281.863 257.846 282.371C257.871 285.008 257.86 287.645 257.862 290.282L257.846 290.284L257.884 297.542C257.81 300.582 257.866 303.623 257.891 306.663C257.892 306.715 257.893 306.767 257.893 306.82C258.239 307.105 258.704 306.992 259.119 306.992V306.992Z" fill="#FFC107"/>
<path fill-rule="evenodd" clip-rule="evenodd" d="M173.975 263.822C174.618 263.655 175.201 263.681 175.725 263.884C175.118 263.621 174.523 263.635 173.975 263.822" fill="#FAD464"/>
<path fill-rule="evenodd" clip-rule="evenodd" d="M165.966 265.868C165.966 265.868 166.159 265.881 166.501 265.9C166.525 265.906 166.547 265.914 166.57 265.922L170.726 266.034C170.854 264.115 171.787 262.088 174.102 261.458C175.532 261.069 178.9 261.519 183.071 262.373C183.072 262.367 183.072 262.361 183.072 262.355C183.073 262.347 183.073 262.338 183.074 262.33C183.085 262.158 183.093 261.982 183.099 261.802C183.14 260.429 183.022 258.904 182.875 257.609C182.878 257.205 182.862 256.812 182.825 256.429C182.761 255.777 182.634 255.154 182.428 254.568V254.568C182.093 253.61 181.552 252.746 180.742 251.997C179.327 252.743 178.194 253.915 176.963 254.945C176.514 255.321 175.987 256.002 175.361 255.087C174.967 254.509 174.747 254.146 175.463 253.549C176.573 252.623 177.902 251.965 178.711 250.636C178.121 250.026 177.364 250.016 176.636 250.012C171.972 249.993 167.307 250.024 162.643 249.977C161.656 249.968 161.391 250.364 161.4 251.386C161.439 255.734 161.457 260.083 161.394 264.43C161.375 265.758 161.783 266.213 162.938 265.907C163.948 265.901 164.963 265.956 165.966 265.868" fill="#F5C03D"/>
<path fill-rule="evenodd" clip-rule="evenodd" d="M304.5 306.984C302.487 306.984 300.473 306.985 298.459 306.985C295.656 306.984 292.852 306.982 290.049 306.986C289.952 306.987 289.854 306.999 289.756 307.016C289.605 307.041 289.454 307.076 289.302 307.1C289.489 307.372 289.67 307.653 289.841 307.952C290.354 308.852 290.775 309.916 290.983 311.367C291.519 311.364 292.056 311.362 292.592 311.359C295.923 311.341 299.255 311.321 302.586 311.306C304.596 311.298 304.596 311.304 304.5 306.984" fill="#CD8500"/>
<path fill-rule="evenodd" clip-rule="evenodd" d="M287.94 330.521C288.1 330.964 288.26 331.406 288.425 331.847C288.863 333.017 289.321 334.177 289.786 335.333C290.758 337.747 291.774 340.139 292.796 342.528C294.147 341.837 294.736 340.601 294.761 339.047C294.8 336.739 294.821 334.428 294.755 332.123C294.689 329.824 293.166 328.2 291.084 328.13C289.801 328.086 288.516 328.133 287.231 328.144C287.191 328.144 287.149 328.145 287.109 328.146C287.376 328.942 287.656 329.733 287.94 330.521" fill="#CD8500"/>
<path fill-rule="evenodd" clip-rule="evenodd" d="M175.463 253.549C174.747 254.146 174.967 254.509 175.361 255.087C175.987 256.002 176.514 255.321 176.963 254.946C178.194 253.915 179.327 252.743 180.742 251.996C181.372 251.001 182.336 250.417 183.213 249.771C183.31 249.699 183.395 249.626 183.475 249.551V247.058C183.041 247.302 182.726 247.696 182.338 247.958C181.097 248.798 180.153 250.12 178.711 250.636C177.902 251.965 176.573 252.623 175.463 253.549" fill="#F5C03D"/>
<path fill-rule="evenodd" clip-rule="evenodd" d="M260.181 296.952V297.026C260.183 299.454 260.184 301.882 260.158 304.309C260.151 304.93 260.317 305.18 261.267 305.178C272.7 305.154 284.134 305.156 295.567 305.177C296.436 305.178 296.652 304.983 296.65 304.369C296.623 297.495 296.624 290.62 296.649 283.746C296.651 283.097 296.38 282.872 295.476 282.873C284.044 282.89 272.61 282.891 261.176 282.872C260.343 282.87 260.151 283.075 260.159 283.647C260.178 284.963 260.183 286.28 260.183 287.597V287.599C260.183 287.885 260.182 288.171 260.182 288.456L260.158 288.461V296.422L260.18 296.409C260.181 296.59 260.181 296.771 260.181 296.952" fill="#FDE798"/>
<path fill-rule="evenodd" clip-rule="evenodd" d="M177.392 265.516C177.417 265.56 177.438 265.606 177.464 265.649C177.435 265.591 177.406 265.537 177.376 265.483C177.381 265.494 177.386 265.503 177.392 265.516" fill="#890A00"/>
<path fill-rule="evenodd" clip-rule="evenodd" d="M177.603 268.387C177.607 268.375 177.611 268.364 177.616 268.352C177.646 268.273 177.672 268.195 177.694 268.116C177.698 268.105 177.701 268.094 177.705 268.084C178.016 266.949 177.58 265.893 177.392 265.515C177.382 265.495 177.37 265.475 177.359 265.454C176.713 264.297 175.725 263.884 175.725 263.884C175.2 263.681 174.617 263.654 173.975 263.821C172.913 264.182 172.034 265.199 171.607 266.178C171.528 266.458 171.467 266.754 171.434 267.069C171.391 267.487 171.43 267.885 171.539 268.26C171.832 269.088 172.412 269.68 172.608 269.864C172.958 270.166 173.376 270.432 173.859 270.65C174.636 270.599 175.413 270.549 176.189 270.498C176.406 270.291 176.602 270.078 176.779 269.862C176.865 269.754 176.944 269.645 177.017 269.537C177.317 269.065 177.564 268.481 177.603 268.387" fill="#CD8500"/>
<path fill-rule="evenodd" clip-rule="evenodd" d="M183.475 251.475C183.475 251.944 183.826 252.327 184.254 252.327C184.682 252.327 185.033 251.944 185.033 251.475V243.85C185.033 243.382 184.682 242.999 184.254 242.999C183.826 242.999 183.475 243.382 183.475 243.85V247.058V249.552V251.475Z" fill="#CD8500"/>
<path fill-rule="evenodd" clip-rule="evenodd" d="M241.503 245.77C241.522 245.751 241.543 245.733 241.564 245.717C241.263 243.442 240.86 239.737 241.05 237.473C239.083 238.008 237.029 238.49 235.208 238.762C235.398 240.232 235.776 243.977 235.051 246.109V246.11C235.051 246.11 238.098 249.203 241.503 245.77" fill="#F9C2AA"/>
<path fill-rule="evenodd" clip-rule="evenodd" d="M230.074 238.475C226.827 236.207 228.37 228.652 228.436 227.18C228.497 225.831 227.569 223.951 223.929 223.074C223.722 224.222 223.569 225.639 223.764 226.789C224.162 229.137 220.535 229.995 221.206 231.429C221.878 232.864 224.12 232.039 224.7 233.233C225.28 234.425 225.079 239.236 227.485 239.841C228.461 240.085 230.675 239.622 232.966 238.984C231.692 239.031 230.668 238.89 230.074 238.475" fill="#F9C2AA"/>
<path fill-rule="evenodd" clip-rule="evenodd" d="M249.359 234.833L250.212 232.143L250.21 232.142C250.049 232.6 249.883 233.057 249.706 233.509C249.647 233.66 249.558 233.75 249.406 233.809C248.093 234.317 246.747 234.736 245.405 235.161C243.569 235.741 241.717 236.264 239.85 236.735C238.03 237.194 236.202 237.62 234.356 237.965C233.265 238.167 232.18 238.122 231.145 237.665C230.065 237.187 229.42 236.346 229.14 235.216C228.885 234.187 228.984 233.152 229.104 232.118C229.231 231.009 229.449 229.911 229.489 228.794C229.521 227.92 229.467 227.056 229.22 226.212C228.848 224.943 228.066 224.011 226.888 223.408C225.784 222.842 224.606 222.484 223.414 222.165C222.251 221.853 221.074 221.598 219.887 221.393C219.796 221.377 219.705 221.367 219.614 221.355C219.614 221.355 218.836 222.2 222.867 222.86C223.245 222.923 223.598 222.995 223.93 223.075C227.569 223.951 228.497 225.831 228.436 227.18C228.369 228.653 226.827 236.206 230.074 238.475C230.669 238.89 231.691 239.031 232.965 238.984C233.65 238.959 234.405 238.881 235.208 238.762C237.028 238.49 239.083 238.008 241.049 237.474C245.419 236.285 249.359 234.833 249.359 234.833" fill="#403B38"/>
<path fill-rule="evenodd" clip-rule="evenodd" d="M231.948 233.226C232.998 233.1 233.94 233.838 234.065 234.884C234.188 235.925 233.446 236.865 232.398 236.995C231.361 237.124 230.42 236.386 230.287 235.342C230.156 234.304 230.903 233.352 231.948 233.226M223.415 222.165C224.606 222.484 225.785 222.843 226.889 223.408C228.066 224.011 228.848 224.943 229.22 226.212C229.467 227.057 229.522 227.921 229.49 228.794C229.449 229.912 229.231 231.01 229.103 232.118C228.984 233.152 228.885 234.187 229.14 235.216C229.42 236.346 230.065 237.187 231.146 237.665C232.181 238.122 233.265 238.168 234.356 237.965C236.202 237.621 238.03 237.195 239.85 236.735C241.717 236.264 243.569 235.742 245.405 235.161C246.747 234.736 248.092 234.317 249.407 233.809C249.559 233.75 249.648 233.659 249.706 233.509C249.883 233.057 250.049 232.6 250.21 232.142C250.309 231.859 250.407 231.577 250.5 231.293C250.752 230.521 250.947 229.732 251.161 228.948C251.169 228.892 251.174 228.835 251.186 228.781C251.548 227.112 251.754 225.427 251.703 223.715C251.662 222.343 251.456 220.999 251.026 219.697C249.973 216.513 247.953 214.086 245.127 212.311C243.657 211.388 242.056 210.773 240.377 210.353C238.811 209.961 237.219 209.784 235.606 209.771C233.92 209.758 232.259 209.956 230.616 210.345C227.146 211.168 224.336 212.999 222.153 215.803C221.3 216.899 220.627 218.096 220.142 219.396C219.904 220.032 219.697 220.678 219.614 221.355C219.705 221.368 219.797 221.377 219.888 221.393C221.074 221.599 222.251 221.853 223.415 222.165" fill="#7952B3"/>
<path fill-rule="evenodd" clip-rule="evenodd" d="M232.082 234.313C232.532 234.259 232.924 234.57 232.974 235.02C233.022 235.457 232.712 235.847 232.273 235.901C231.83 235.957 231.428 235.638 231.379 235.193C231.331 234.756 231.643 234.365 232.082 234.313M232.398 236.995C233.446 236.865 234.188 235.924 234.064 234.883C233.941 233.837 232.998 233.1 231.948 233.226C230.903 233.351 230.156 234.303 230.287 235.341C230.42 236.386 231.361 237.124 232.398 236.995" fill="#432273"/>
<path fill-rule="evenodd" clip-rule="evenodd" d="M232.274 235.901C232.713 235.847 233.023 235.456 232.974 235.021C232.924 234.57 232.532 234.259 232.082 234.313C231.644 234.365 231.331 234.756 231.379 235.192C231.428 235.637 231.83 235.957 232.274 235.901" fill="#7952B3"/>
<path fill-rule="evenodd" clip-rule="evenodd" d="M250.894 305.2C251.541 305.022 252.09 304.677 252.514 304.228C251.747 304.758 250.754 305.179 249.633 305.511C250.066 305.414 250.488 305.311 250.894 305.2" fill="#193A55"/>
<path fill-rule="evenodd" clip-rule="evenodd" d="M253.252 302.562C253.283 302.651 253.306 302.735 253.324 302.817C253.338 302.767 253.354 302.718 253.368 302.667C253.343 302.649 253.319 302.63 253.296 302.606C253.283 302.593 253.266 302.577 253.252 302.562" fill="#193A55"/>
<path fill-rule="evenodd" clip-rule="evenodd" d="M240.502 297.245C240.354 292.274 228.313 286.703 227.773 286.456C227.634 286.427 227.494 286.395 227.355 286.369C227.187 286.338 227.051 286.247 226.955 286.125C226.828 286.163 226.703 286.199 226.575 286.24C226.575 286.24 186.317 290.035 186.164 294.741C186.012 299.447 190.493 339.978 190.493 339.978C190.493 339.978 190.784 340.157 191.277 340.365C192.495 340.88 194.948 341.571 197.302 340.178C197.446 340.093 197.59 340.003 197.732 339.901C197.732 339.901 199.26 332.646 200.153 324.391C200.444 310.4 196.134 300.964 196.134 300.964L198.798 302.938C198.798 302.938 208.024 304.59 219.179 305.691C224.464 306.212 230.181 306.609 235.555 306.648C235.574 306.634 240.654 302.321 240.502 297.245" fill="#193A55"/>
<path fill-rule="evenodd" clip-rule="evenodd" d="M227.772 286.455C228.312 286.703 240.353 292.274 240.502 297.245C240.654 302.321 235.573 306.633 235.555 306.648H235.554C235.554 306.648 241.899 307.013 247.175 306.078C248.033 305.926 248.862 305.739 249.633 305.511C250.753 305.178 251.746 304.758 252.513 304.228C252.741 304.07 252.95 303.903 253.135 303.725C253.357 303.511 253.41 303.201 253.323 302.816C253.306 302.735 253.283 302.651 253.253 302.562C249.643 298.959 238.551 288.652 227.772 286.455" fill="#11293A"/>
<path fill-rule="evenodd" clip-rule="evenodd" d="M184.236 267.052C183.701 267.207 182.412 267.591 181.263 268.025C182.38 267.722 183.518 267.271 184.236 267.052" fill="#F9C2AA"/>
<path fill-rule="evenodd" clip-rule="evenodd" d="M177.7 270.781C177.555 270.909 177.395 271.012 177.203 271.079C177.422 271.013 177.57 270.914 177.7 270.781" fill="#F9C2AA"/>
<path fill-rule="evenodd" clip-rule="evenodd" d="M178.7 269.571C178.963 269.308 179.309 269.009 179.784 268.675C179.784 268.675 179.783 268.675 179.783 268.676C179.308 268.937 178.973 269.253 178.7 269.571" fill="#F9C2AA"/>
<path fill-rule="evenodd" clip-rule="evenodd" d="M219.909 275.239C218.491 275.805 217.354 276.225 217.121 276.31C218.051 275.989 218.989 275.626 219.909 275.239" fill="#F9C2AA"/>
<path fill-rule="evenodd" clip-rule="evenodd" d="M171.54 268.26C171.331 267.67 171.268 266.962 171.597 266.197C171.6 266.192 171.604 266.185 171.607 266.178C172.034 265.2 172.914 264.182 173.975 263.822C174.523 263.635 175.117 263.622 175.725 263.884C175.725 263.884 176.712 264.297 177.36 265.454C177.345 265.425 177.329 265.399 177.315 265.369C177.315 265.369 177.339 265.412 177.376 265.483C177.406 265.537 177.436 265.591 177.464 265.649C179.048 268.304 183.657 267.203 184.389 267.007C184.423 266.998 184.459 266.988 184.49 266.98C186.059 266.581 207.664 278.65 214.17 277.169C215.109 276.956 216.089 276.665 217.077 276.325C221.496 273.622 219.682 266.775 219.682 266.775C219.682 266.775 219.687 266.777 219.689 266.778C219.613 266.638 219.536 266.498 219.466 266.358C219.425 266.274 219.404 266.186 219.399 266.097C217.086 267.872 213.867 269.937 211.735 269.617C210.074 269.369 203.179 267.376 195.683 265.406C191.385 264.276 186.892 263.155 183.071 262.373C178.901 261.52 175.531 261.069 174.102 261.459C171.786 262.088 170.854 264.115 170.726 266.034C170.641 267.321 170.917 268.556 171.384 269.293C171.733 269.843 172.187 270.119 172.675 269.924C172.675 269.924 172.65 269.903 172.608 269.863C172.412 269.68 171.833 269.087 171.54 268.26" fill="#F9C2AA"/>
<path fill-rule="evenodd" clip-rule="evenodd" d="M177.609 268.374C177.612 268.366 177.613 268.36 177.616 268.352C177.612 268.363 177.607 268.375 177.603 268.388C177.607 268.379 177.609 268.374 177.609 268.374" fill="#F9C2AA"/>
<path fill-rule="evenodd" clip-rule="evenodd" d="M176.778 269.861C176.763 269.881 176.748 269.902 176.733 269.921C176.829 269.816 176.926 269.681 177.017 269.536C176.944 269.645 176.865 269.754 176.778 269.861" fill="#F9C2AA"/>
<path fill-rule="evenodd" clip-rule="evenodd" d="M217.076 276.325C217.075 276.325 217.074 276.327 217.073 276.328C217.073 276.328 217.092 276.32 217.121 276.31C217.354 276.224 218.492 275.805 219.909 275.239C221.444 274.626 223.3 273.843 224.673 273.133C223.074 271.521 220.968 269.157 219.689 266.778C219.687 266.778 219.682 266.775 219.682 266.775C219.682 266.775 221.496 273.622 217.076 276.325" fill="#F7AB8D"/>
<path fill-rule="evenodd" clip-rule="evenodd" d="M177.203 271.079C177.394 271.011 177.555 270.909 177.701 270.781C178.051 270.474 178.314 270.021 178.7 269.571C178.973 269.253 179.308 268.937 179.783 268.676C179.783 268.675 179.784 268.675 179.784 268.675C180.173 268.461 180.701 268.237 181.263 268.025C182.412 267.592 183.701 267.206 184.236 267.052C184.331 267.024 184.403 267.004 184.445 266.993C184.43 266.996 184.411 267.001 184.389 267.008C183.657 267.202 179.047 268.304 177.464 265.649C177.439 265.607 177.417 265.56 177.392 265.516C177.58 265.893 178.017 266.949 177.705 268.084C177.701 268.094 177.698 268.105 177.694 268.116C177.672 268.194 177.646 268.273 177.616 268.352C177.613 268.359 177.612 268.366 177.609 268.374C177.609 268.374 177.607 268.379 177.603 268.387C177.564 268.481 177.317 269.066 177.017 269.536C176.926 269.681 176.829 269.816 176.732 269.921C176.732 269.921 176.36 271.021 176.872 271.119C176.957 271.135 177.064 271.127 177.203 271.079" fill="#F7AB8D"/>
<path fill-rule="evenodd" clip-rule="evenodd" d="M184.489 266.98C184.489 266.98 184.473 266.985 184.445 266.993C184.472 266.985 184.489 266.98 184.489 266.98" fill="#F7AB8D"/>
<path fill-rule="evenodd" clip-rule="evenodd" d="M177.314 265.369C177.329 265.399 177.345 265.425 177.359 265.454C177.371 265.475 177.382 265.496 177.392 265.516C177.387 265.503 177.382 265.494 177.376 265.483C177.339 265.412 177.314 265.369 177.314 265.369" fill="#F7AB8D"/>
<path fill-rule="evenodd" clip-rule="evenodd" d="M197.89 359.394C197.827 359.027 197.905 358.669 197.891 358.307C197.9 356.877 197.918 355.447 197.907 354.017C197.905 353.72 198.057 353.432 197.98 353.147C197.86 352.697 197.913 352.26 197.984 351.815C198.01 351.648 198.008 351.468 197.875 351.328C197.785 351.236 197.839 351.166 197.884 351.07C198.049 350.731 198.068 350.388 197.891 350.053C197.88 350.032 197.871 350.012 197.859 349.993L197.885 350.001C197.797 349.945 197.709 349.89 197.622 349.837C197.579 349.826 197.534 349.804 197.49 349.804H197.027C195.297 349.803 193.566 349.802 191.835 349.804C191.71 349.805 191.584 349.804 191.459 349.804C191.337 349.805 191.202 349.812 191.1 349.864L191.099 349.866C191.006 349.782 190.915 349.698 190.824 349.615C190.738 349.483 190.663 349.331 190.532 349.585C190.404 349.832 190.278 350.069 189.992 350.207C189.829 350.286 189.818 350.514 189.78 350.69C189.725 350.754 189.668 350.818 189.614 350.881C189.613 350.881 189.618 350.865 189.618 350.865L189.603 350.876L189.469 351.077C189.134 351.042 188.996 351.186 189.061 351.511C188.966 351.613 188.872 351.716 188.778 351.817C188.383 351.736 188.304 351.797 188.301 352.183C188.192 352.273 188.084 352.363 187.975 352.451C187.67 352.359 187.514 352.471 187.503 352.779C187.366 352.862 187.229 352.943 187.093 353.025C186.816 352.96 186.644 353.051 186.601 353.335C186.442 353.42 186.283 353.504 186.123 353.588C185.834 353.444 185.652 353.493 185.602 353.838C185.598 353.869 185.59 353.894 185.582 353.918C185.434 353.865 185.247 353.903 185.189 354.035C185.186 354.041 185.186 354.047 185.184 354.053C185.163 354.048 185.143 354.042 185.124 354.036C184.74 353.913 184.683 353.94 184.615 354.328C184.472 354.384 184.328 354.442 184.185 354.498C183.791 354.298 183.693 354.339 183.59 354.741C183.443 354.797 183.295 354.853 183.149 354.909C182.865 354.766 182.65 354.799 182.545 355.126C182.391 355.212 182.228 355.266 182.051 355.266C181.55 355.434 181.024 355.538 180.537 355.756C180.39 355.822 180.238 355.861 180.076 355.842C179.987 355.864 179.898 355.886 179.807 355.906C179.777 355.91 179.742 355.925 179.722 355.943C179.627 355.984 179.532 356.026 179.437 356.067C179.429 356.052 179.407 356.042 179.38 356.042C179.206 356.044 179.043 356.092 178.896 356.186C178.79 356.239 178.68 356.28 178.558 356.277C178.496 356.295 178.433 356.313 178.372 356.331C178.374 356.331 178.349 356.344 178.349 356.344L178.367 356.352C178.288 356.403 178.203 356.433 178.108 356.43C178.044 356.46 177.98 356.491 177.916 356.521L177.928 356.51C177.928 356.51 177.912 356.522 177.912 356.523C177.911 356.524 177.905 356.529 177.901 356.534C177.773 356.606 177.646 356.676 177.521 356.746C177.532 356.737 177.541 356.729 177.551 356.721C177.537 356.729 177.525 356.741 177.51 356.745C177.467 356.754 177.423 356.76 177.379 356.767C177.368 356.771 177.35 356.78 177.348 356.778C177.323 356.743 177.309 356.775 177.335 356.797L177.114 356.949L177.113 356.938C177.049 356.992 176.984 357.046 176.92 357.1C176.92 357.101 176.931 357.101 176.931 357.101C176.474 357.461 175.975 357.779 175.68 358.3C175.594 358.699 175.615 359.103 175.641 359.503C175.642 359.515 175.643 359.527 175.644 359.539C175.67 359.933 175.971 360.151 176.437 360.154C177.758 360.164 179.078 360.173 180.399 360.174C185.87 360.179 191.342 360.181 196.813 360.182C196.988 360.182 197.168 360.175 197.336 360.133C197.539 360.082 197.715 359.942 197.814 359.77C197.88 359.654 197.912 359.523 197.89 359.394" fill="#11293A"/>
<path fill-rule="evenodd" clip-rule="evenodd" d="M178.553 356.26L178.548 356.277C178.551 356.277 178.554 356.277 178.558 356.277L178.564 356.275L178.553 356.26Z" fill="#11293A"/>
<path fill-rule="evenodd" clip-rule="evenodd" d="M178.1 356.408L178.095 356.429C178.099 356.43 178.103 356.429 178.108 356.429C178.11 356.428 178.112 356.427 178.114 356.426L178.1 356.408Z" fill="#11293A"/>
<path fill-rule="evenodd" clip-rule="evenodd" d="M240.483 263.336C236.317 274.266 227.996 281.058 228.32 278.698C228.643 276.339 228.212 274.152 228.212 274.152L240.483 263.336ZM219.609 265.567C219.459 265.707 219.387 265.902 219.398 266.097C219.404 266.185 219.425 266.274 219.466 266.358C219.536 266.498 219.613 266.638 219.689 266.778C220.968 269.157 223.073 271.521 224.672 273.133C225.411 273.877 226.042 274.462 226.428 274.811C226.666 275.026 227.023 275.042 227.279 274.849C227.703 274.533 228.31 274.806 228.353 275.331C228.691 279.515 227.419 283.811 226.844 285.497C226.767 285.723 226.82 285.954 226.954 286.125C227.051 286.247 227.187 286.337 227.355 286.369C227.494 286.394 227.634 286.427 227.773 286.455C238.551 288.652 249.644 298.959 253.253 302.562C253.266 302.577 253.283 302.593 253.297 302.606C253.319 302.629 253.344 302.649 253.368 302.667C253.799 302.998 254.452 302.688 254.442 302.118C253.697 261.528 243.943 247.318 243.417 246.58C243.4 246.557 243.386 246.533 243.373 246.508C242.73 245.269 241.944 245.511 241.666 245.65C241.629 245.668 241.596 245.691 241.564 245.716C241.543 245.734 241.522 245.751 241.503 245.77C238.097 249.203 235.051 246.11 235.051 246.11V246.109C234.774 245.123 232.036 251.496 232.036 251.496C231.124 253.573 228.385 256.75 225.675 259.593C223.09 262.305 220.53 264.712 219.609 265.567V265.567Z" fill="#7952B3"/>
<path fill-rule="evenodd" clip-rule="evenodd" d="M228.319 278.698C227.996 281.058 236.316 274.267 240.483 263.336L228.212 274.152C228.212 274.152 228.642 276.338 228.319 278.698" fill="#432273"/>
<path fill-rule="evenodd" clip-rule="evenodd" d="M198.797 302.938L196.133 300.964C196.133 300.964 200.443 310.4 200.153 324.391V324.392C200.153 324.392 202.906 309.541 198.797 302.938" fill="#11293A"/>
<path fill-rule="evenodd" clip-rule="evenodd" d="M215.979 201.785C215.918 201.528 215.822 201.293 215.73 201.068L215.154 199.657C214.558 198.191 213.941 196.674 213.308 195.19C213.135 194.783 213.122 194.463 213.258 194.048C214.337 190.782 214.637 187.581 214.164 184.469C213.768 181.878 212.836 179.348 211.367 176.897C207.103 169.775 199.08 166.364 189.907 167.77L189.889 167.773C185.464 168.564 181.077 171.67 178.157 176.082C174.87 181.046 173.951 186.522 175.426 192.349C176.723 197.476 179.653 201.538 184.133 204.421C191.24 208.992 200.711 208.391 207.166 202.958C207.482 202.694 207.684 202.647 208.102 202.744C210.143 203.211 212.029 203.614 213.868 203.975C214.662 204.133 215.266 204.004 215.661 203.596C216.057 203.186 216.166 202.577 215.979 201.785" fill="#FDE798"/>
<path fill-rule="evenodd" clip-rule="evenodd" d="M215.924 199.577C215.737 199.664 215.456 199.672 215.09 199.599C213.198 199.226 211.26 198.812 209.165 198.333C208.43 198.165 207.923 198.284 207.359 198.759C203.862 201.702 199.463 203.202 195.049 203.202C191.459 203.202 187.86 202.21 184.727 200.194C180.313 197.354 177.428 193.355 176.151 188.306C174.697 182.561 175.601 177.169 178.838 172.28C181.709 167.944 185.996 164.894 190.306 164.12C199.382 162.731 207.297 166.082 211.49 173.084C214.675 178.403 215.302 184.092 213.354 189.995C213.214 190.418 213.175 190.792 213.233 191.172C213.267 191.393 213.333 191.616 213.434 191.853C214.081 193.373 214.714 194.93 215.328 196.434L215.937 197.929C216.018 198.129 216.094 198.315 216.139 198.503C216.159 198.588 216.173 198.663 216.182 198.728C216.204 198.868 216.211 198.99 216.204 199.099L216.305 199.399L215.924 199.577ZM217.081 198.284C217.019 198.019 216.92 197.776 216.825 197.544L216.23 196.087C215.615 194.573 214.978 193.008 214.325 191.476C214.145 191.055 214.131 190.725 214.273 190.296C215.386 186.924 215.697 183.62 215.207 180.406C214.799 177.731 213.836 175.12 212.32 172.589C207.918 165.236 199.634 161.713 190.162 163.166L190.145 163.168C185.575 163.985 181.047 167.192 178.031 171.748C174.638 176.872 173.689 182.526 175.213 188.542C176.552 193.836 179.576 198.03 184.202 201.006C191.539 205.726 201.318 205.105 207.983 199.497C208.309 199.222 208.516 199.175 208.949 199.274C211.056 199.756 213.003 200.172 214.902 200.546C215.722 200.708 216.345 200.575 216.753 200.154C217.162 199.731 217.274 199.102 217.081 198.284V198.284Z" fill="#FAD464"/>
<path fill-rule="evenodd" clip-rule="evenodd" d="M216.182 198.729C216.173 198.663 216.159 198.589 216.139 198.503C216.094 198.314 216.018 198.129 215.936 197.929L215.328 196.434C214.714 194.93 214.081 193.373 213.434 191.853C213.332 191.615 213.267 191.392 213.233 191.173C213.175 190.792 213.214 190.418 213.354 189.995C215.302 184.093 214.676 178.402 211.49 173.084C207.297 166.083 199.382 162.731 190.306 164.121C185.996 164.894 181.709 167.944 178.839 172.279C175.601 177.169 174.697 182.561 176.151 188.306C177.428 193.355 180.313 197.355 184.727 200.194C187.86 202.209 191.459 203.202 195.049 203.202C199.463 203.202 203.862 201.702 207.359 198.759C207.923 198.284 208.43 198.165 209.165 198.333C211.261 198.812 213.198 199.227 215.09 199.599C215.456 199.671 215.737 199.664 215.924 199.577L216.305 199.399L216.205 199.099C216.211 198.99 216.204 198.868 216.182 198.729" fill="white"/>
<path fill-rule="evenodd" clip-rule="evenodd" d="M195.775 194.555C201.482 194.605 206.127 189.981 206.152 184.324C206.177 178.632 201.555 174.024 195.907 173.991C190.187 173.958 185.597 178.567 185.53 184.138C185.459 189.897 190.121 194.538 195.775 194.555M194.715 197.166C192.409 197.137 189.478 195.963 187.009 193.695C184.24 191.15 182.894 187.942 182.892 184.211C182.89 180.895 184.041 177.968 186.299 175.536C188.844 172.794 192.037 171.384 195.789 171.358C198.929 171.336 201.762 172.325 204.147 174.368C207.171 176.96 208.754 180.277 208.769 184.28C208.795 191.391 202.964 197.214 194.715 197.166" fill="#FFC107"/>
<path fill-rule="evenodd" clip-rule="evenodd" d="M197.329 184.966C197.294 184.978 197.281 185.009 197.264 185.038C196.892 185.674 196.328 185.959 195.606 185.869C195.06 185.801 194.649 185.491 194.395 184.998C194.052 184.329 194.23 183.51 194.814 183.029C194.951 182.917 195.101 182.829 195.268 182.77C195.319 182.752 195.372 182.734 195.41 182.694C195.694 182.649 195.979 182.638 196.263 182.696C196.408 182.776 196.571 182.82 196.71 182.915C196.91 183.051 197.083 183.21 197.204 183.419C197.228 183.459 197.257 183.494 197.305 183.507C197.288 183.56 197.317 183.605 197.338 183.648C197.431 183.848 197.456 184.057 197.459 184.276C197.463 184.518 197.405 184.742 197.329 184.966" fill="#FAD464"/>
<path fill-rule="evenodd" clip-rule="evenodd" d="M196.262 182.696C195.978 182.637 195.694 182.65 195.41 182.693C195.409 181.317 195.409 179.941 195.408 178.565C195.408 178.256 195.403 177.947 195.409 177.639C195.414 177.372 195.599 177.192 195.848 177.194C196.052 177.194 196.235 177.352 196.265 177.555C196.274 177.608 196.274 177.663 196.274 177.717C196.274 179.323 196.275 180.929 196.274 182.535C196.274 182.589 196.267 182.642 196.262 182.696" fill="#F5C03D"/>
<path fill-rule="evenodd" clip-rule="evenodd" d="M197.329 184.966C197.404 184.742 197.463 184.518 197.459 184.276C197.455 184.057 197.43 183.848 197.338 183.648C197.317 183.605 197.287 183.56 197.304 183.507C198.057 183.506 198.81 183.504 199.563 183.506C199.98 183.506 200.261 183.805 200.262 184.221C200.263 184.506 200.18 184.735 199.923 184.884C199.827 184.939 199.721 184.966 199.612 184.967C198.851 184.968 198.09 184.967 197.329 184.966" fill="#F5C03D"/>
<path fill-rule="evenodd" clip-rule="evenodd" d="M187.395 179.634C187.431 179.518 187.485 179.378 187.613 179.287C187.703 179.224 187.802 179.232 187.897 179.287C188.341 179.542 188.785 179.796 189.229 180.053C189.348 180.122 189.392 180.26 189.339 180.389C189.31 180.457 189.273 180.523 189.231 180.584C189.142 180.713 189.004 180.751 188.869 180.675C188.42 180.421 187.973 180.162 187.526 179.903C187.437 179.851 187.39 179.769 187.395 179.634" fill="#F5C03D"/>
<path fill-rule="evenodd" clip-rule="evenodd" d="M200.466 192.695C200.354 192.699 200.275 192.652 200.222 192.562C199.965 192.122 199.707 191.684 199.456 191.242C199.366 191.085 199.411 190.943 199.567 190.845C199.62 190.812 199.676 190.782 199.733 190.758C199.863 190.704 200.001 190.746 200.071 190.865C200.331 191.307 200.589 191.751 200.843 192.195C200.925 192.339 200.885 192.488 200.742 192.573C200.654 192.625 200.575 192.703 200.466 192.695" fill="#F5C03D"/>
<path fill-rule="evenodd" clip-rule="evenodd" d="M191.229 175.852C191.338 175.85 191.416 175.908 191.47 176.001C191.719 176.429 191.968 176.858 192.214 177.289C192.314 177.463 192.279 177.599 192.111 177.704C192.057 177.738 192.002 177.768 191.945 177.792C191.817 177.844 191.677 177.799 191.608 177.68C191.349 177.237 191.092 176.793 190.838 176.348C190.759 176.211 190.797 176.061 190.931 175.98C191.023 175.924 191.107 175.847 191.229 175.852" fill="#F5C03D"/>
<path fill-rule="evenodd" clip-rule="evenodd" d="M204.285 188.898C204.255 189.03 204.194 189.172 204.062 189.263C203.936 189.35 203.819 189.288 203.702 189.219C203.295 188.979 202.885 188.747 202.476 188.511C202.318 188.42 202.276 188.285 202.356 188.12C202.378 188.076 202.401 188.03 202.428 187.989C202.522 187.841 202.665 187.793 202.817 187.879C203.268 188.133 203.714 188.394 204.161 188.655C204.243 188.703 204.28 188.781 204.285 188.898" fill="#F5C03D"/>
<path fill-rule="evenodd" clip-rule="evenodd" d="M200.482 175.852C200.606 175.881 200.742 175.942 200.836 176.066C200.906 176.157 200.897 176.26 200.839 176.359C200.586 176.795 200.334 177.232 200.081 177.668C200 177.807 199.862 177.85 199.715 177.783C199.658 177.758 199.602 177.727 199.55 177.692C199.411 177.599 199.37 177.458 199.454 177.311C199.708 176.867 199.967 176.424 200.226 175.982C200.275 175.896 200.353 175.853 200.482 175.852" fill="#F5C03D"/>
<path fill-rule="evenodd" clip-rule="evenodd" d="M187.397 188.875C187.397 188.769 187.45 188.692 187.538 188.64C187.975 188.387 188.411 188.133 188.851 187.883C189.008 187.793 189.151 187.833 189.249 187.987C189.283 188.039 189.314 188.094 189.338 188.151C189.397 188.286 189.354 188.424 189.228 188.498C188.784 188.755 188.339 189.012 187.893 189.265C187.756 189.344 187.61 189.301 187.522 189.17C187.422 189.02 187.396 188.958 187.397 188.875" fill="#F5C03D"/>
<path fill-rule="evenodd" clip-rule="evenodd" d="M204.285 179.668C204.287 179.769 204.242 179.847 204.157 179.897C203.714 180.156 203.27 180.415 202.824 180.669C202.671 180.756 202.53 180.712 202.435 180.565C202.401 180.513 202.369 180.458 202.344 180.401C202.282 180.26 202.327 180.124 202.461 180.047C202.898 179.793 203.336 179.54 203.774 179.29C203.927 179.202 204.071 179.237 204.163 179.386C204.216 179.473 204.287 179.556 204.285 179.668" fill="#F5C03D"/>
<path fill-rule="evenodd" clip-rule="evenodd" d="M191.182 192.695C191.069 192.673 190.936 192.605 190.841 192.483C190.774 192.396 190.779 192.295 190.834 192.2C191.093 191.752 191.352 191.306 191.612 190.859C191.624 190.837 191.64 190.817 191.66 190.802C191.787 190.694 191.96 190.722 192.158 190.88C192.269 190.969 192.299 191.101 192.222 191.238C192.058 191.533 191.887 191.824 191.718 192.116C191.633 192.26 191.55 192.405 191.464 192.548C191.41 192.639 191.337 192.702 191.182 192.695" fill="#F5C03D"/>
<path fill-rule="evenodd" clip-rule="evenodd" d="M196.196 175.674C196.196 175.928 196.197 176.182 196.195 176.437C196.194 176.614 196.099 176.713 195.921 176.728C195.846 176.732 195.771 176.734 195.696 176.717C195.571 176.689 195.487 176.601 195.486 176.473C195.483 175.944 195.485 175.415 195.485 174.885C195.485 174.837 195.509 174.798 195.53 174.758C195.6 174.621 195.825 174.621 196.002 174.655C196.135 174.682 196.195 174.782 196.195 174.937V175.674H196.196Z" fill="#F5C03D"/>
<path fill-rule="evenodd" clip-rule="evenodd" d="M187.214 184.629C186.968 184.629 186.721 184.63 186.475 184.629C186.289 184.629 186.189 184.533 186.182 184.348C186.18 184.286 186.177 184.223 186.184 184.161C186.198 184.017 186.297 183.922 186.44 183.921C186.962 183.917 187.484 183.92 188.007 183.92C188.031 183.92 188.057 183.922 188.08 183.929C188.235 183.973 188.298 184.132 188.267 184.395C188.251 184.53 188.147 184.626 188.004 184.628C187.74 184.631 187.477 184.629 187.214 184.629" fill="#F5C03D"/>
<path fill-rule="evenodd" clip-rule="evenodd" d="M195.484 192.859C195.484 192.614 195.484 192.368 195.484 192.123C195.486 191.929 195.584 191.83 195.776 191.826C195.83 191.825 195.884 191.824 195.938 191.827C196.084 191.835 196.194 191.938 196.194 192.081C196.197 192.605 196.195 193.131 196.195 193.654C196.195 193.672 196.195 193.688 196.192 193.705C196.156 193.864 196.013 193.929 195.748 193.908C195.589 193.894 195.487 193.798 195.485 193.646C195.482 193.384 195.484 193.122 195.484 192.859H195.484Z" fill="#F5C03D"/>
<path fill-rule="evenodd" clip-rule="evenodd" d="M204.458 184.629C204.208 184.629 203.957 184.631 203.707 184.629C203.522 184.628 203.418 184.531 203.407 184.35C203.403 184.275 203.405 184.199 203.42 184.125C203.444 184.001 203.54 183.922 203.668 183.921C204.19 183.919 204.712 183.92 205.234 183.92C205.328 183.921 205.409 183.954 205.452 184.041C205.53 184.2 205.527 184.364 205.447 184.52C205.408 184.597 205.327 184.628 205.235 184.627C204.976 184.624 204.717 184.626 204.459 184.626C204.458 184.627 204.458 184.628 204.458 184.629" fill="#F5C03D"/>
<path fill-rule="evenodd" clip-rule="evenodd" d="M277.328 170.091L273.457 169.817L272.371 167.126L275.856 166.866L277.328 170.091ZM280.315 156.921V154.219C280.206 154.106 280.094 153.994 279.983 153.882L275.378 164.973L271.666 165.374L268.244 156.885L266.297 150.683L263.139 148.66L265.663 146.345C265.012 146.233 264.355 146.149 263.695 146.093L261.82 147.814L259.169 146.116C258.403 146.189 257.631 146.293 256.856 146.434L260.664 148.874L256.126 153.039C256.502 153.398 256.776 153.863 256.901 154.386L261.985 149.72L265.013 151.66L266.57 156.621L261.419 158.052L260.352 159.226L256.956 155.356C256.895 155.854 256.7 156.31 256.409 156.689L256.276 156.882L259.326 160.357L256.081 163.931L256.901 165.285L262.25 159.394L267.08 158.051L270.099 165.544L257.856 166.865L256.901 165.285L255.883 166.408L256.517 167.422V178.145L258.05 179.475V169.491L265.378 174.841L267.1 176.1C267.856 175.621 268.75 175.341 269.711 175.341C269.717 175.341 269.722 175.342 269.728 175.342L259.108 168.113L270.783 167.244L272.402 171.26L278.044 171.66L280.315 176.632V172.836L279.926 171.792L280.315 171.8V170.302L279.231 170.225L277.052 165.308L280.315 156.921Z" fill="white"/>
<path fill-rule="evenodd" clip-rule="evenodd" d="M274.249 178.419C274.25 178.422 274.251 178.423 274.251 178.424C274.471 178.979 274.595 179.581 274.595 180.213C274.595 180.384 274.583 180.553 274.566 180.719C274.47 181.638 274.118 182.48 273.582 183.176L273.36 183.499L274.593 192.49C274.782 192.376 274.969 192.261 275.157 192.143C275.519 191.913 275.871 191.672 276.218 191.427L274.819 180.602L280.314 185.45V181.837L279.626 182.08L274.249 178.419Z" fill="white"/>
<path fill-rule="evenodd" clip-rule="evenodd" d="M269.326 177.725L269.554 177.892L269.711 177.772L270.62 178.465V177.841H271.244V178.939L272.116 179.604L272.037 179.705L272.812 180.271C272.812 180.251 272.814 180.233 272.814 180.213C272.814 178.503 271.425 177.118 269.711 177.118C269.364 177.118 269.031 177.177 268.719 177.282L269.326 177.725Z" fill="white"/>
<path fill-rule="evenodd" clip-rule="evenodd" d="M274.96 149.919C274.422 149.588 273.88 149.278 273.335 148.989L274.672 150.01L274.96 149.919Z" fill="white"/>
<path fill-rule="evenodd" clip-rule="evenodd" d="M263.501 196.248C263.97 196.204 264.436 196.146 264.9 196.076L264.128 194.833L263.501 196.248Z" fill="white"/>
<path fill-rule="evenodd" clip-rule="evenodd" d="M257.481 187.749L262.197 195.444L263.16 193.271L258.05 185.036V181.482L256.517 180.152V185.787L246.249 194.135L241.565 193.848C241.431 194.562 241.303 195.267 241.179 195.962L245.763 196.778L245.962 197.508C246.584 197.234 247.21 196.96 247.839 196.683L247.756 196.331L257.481 187.749Z" fill="white"/>
<path fill-rule="evenodd" clip-rule="evenodd" d="M253.879 177.865L252.728 176.866L246.071 183.052L240.005 179.632V181.372L246.292 184.916L253.879 177.865Z" fill="white"/>
<path fill-rule="evenodd" clip-rule="evenodd" d="M253.185 162.09L254.211 160.838L256.082 163.932L247.757 150.17L247.887 149.704C247.218 150.096 246.571 150.519 245.945 150.971L246.362 151.172L253.185 162.09Z" fill="white"/>
<path fill-rule="evenodd" clip-rule="evenodd" d="M265.144 192.538L263.857 191.695L263.16 193.271L262.197 195.444L261.796 196.35C262.367 196.335 262.936 196.301 263.502 196.248L264.128 194.833L265.144 192.538Z" fill="#F5C03D"/>
<path fill-rule="evenodd" clip-rule="evenodd" d="M253.184 162.09L255.047 165.071L248.033 172.796L252.727 176.866L253.879 177.866L256.517 180.152L258.05 181.482L265.514 187.955L263.858 191.695L265.144 192.538L267.355 187.544L258.05 179.475L256.517 178.146L253.719 175.719L250.199 172.667L255.883 166.407L256.9 165.285L256.081 163.932L254.211 160.838L253.184 162.09Z" fill="#F5C03D"/>
<path fill-rule="evenodd" clip-rule="evenodd" d="M258.05 181.482V185.037L263.16 193.272L263.858 191.695L265.515 187.955L258.05 181.482Z" fill="#FEF4CB"/>
<path fill-rule="evenodd" clip-rule="evenodd" d="M269.554 177.892L269.326 177.725L269.554 177.892Z" fill="#FEF4CB"/>
<path fill-rule="evenodd" clip-rule="evenodd" d="M268.098 186.674C268.098 186.674 256.986 174.682 261.457 172.663L263.499 173.47L265.377 174.842L258.05 169.491V179.475L267.356 187.545L265.144 192.538L264.128 194.832L264.9 196.076C268.237 195.57 271.474 194.374 274.594 192.49L267.356 192.216L268.098 186.674Z" fill="#FEF4CB"/>
<path fill-rule="evenodd" clip-rule="evenodd" d="M272.038 179.706L272.811 180.27L272.038 179.706Z" fill="#FEF4CB"/>
<path fill-rule="evenodd" clip-rule="evenodd" d="M267.943 182.169V179.9L267.684 180.097L267.306 179.603L268.208 178.917L267.249 178.333C266.848 178.855 266.607 179.504 266.607 180.213C266.607 181.557 267.468 182.697 268.668 183.124V182.169H267.943Z" fill="#FEF4CB"/>
<path fill-rule="evenodd" clip-rule="evenodd" d="M269.254 182.714V183.271C269.403 183.292 269.555 183.307 269.711 183.307C269.867 183.307 270.019 183.292 270.168 183.271V182.714H269.254Z" fill="#FEF4CB"/>
<path fill-rule="evenodd" clip-rule="evenodd" d="M270.282 187.986L270.137 188.198H270.734V190.765H268.667V188.198H269.285L269.139 187.986L265.838 183.173C265.206 182.352 264.826 181.328 264.826 180.213C264.826 179.166 265.161 178.199 265.724 177.405L262.544 175.468L263.499 173.47L261.458 172.663C256.986 174.682 268.098 186.674 268.098 186.674L267.356 192.216L274.594 192.49L273.361 183.499L270.282 187.986Z" fill="#FEF4CB"/>
<path fill-rule="evenodd" clip-rule="evenodd" d="M271.739 180.097L271.479 179.9V182.169H270.754V183.124C271.936 182.703 272.787 181.589 272.812 180.27L272.038 179.706L271.739 180.097Z" fill="#FEF4CB"/>
<path fill-rule="evenodd" clip-rule="evenodd" d="M268.29 179.681V181.824H269.036L269.087 181.784V180.512H270.334V181.784L270.386 181.824H271.132V179.681L269.711 178.598L268.29 179.681Z" fill="#FEF4CB"/>
<path fill-rule="evenodd" clip-rule="evenodd" d="M269.326 177.725L268.237 178.895L269.553 177.891L269.326 177.725Z" fill="#FEF4CB"/>
<path fill-rule="evenodd" clip-rule="evenodd" d="M270.334 181.824H270.386L270.334 181.784V181.824Z" fill="#FEF4CB"/>
<path fill-rule="evenodd" clip-rule="evenodd" d="M268.667 182.169V183.124C268.856 183.192 269.052 183.241 269.254 183.271V182.714H270.168V183.271C270.37 183.241 270.566 183.192 270.754 183.124V182.169H268.667Z" fill="#FEF4CB"/>
<path fill-rule="evenodd" clip-rule="evenodd" d="M269.087 181.824V181.784L269.036 181.824H269.087Z" fill="#FEF4CB"/>
<path fill-rule="evenodd" clip-rule="evenodd" d="M276.218 191.427C277.742 190.349 279.112 189.13 280.314 187.782V185.45L274.819 180.602L276.218 191.427Z" fill="#FEF4CB"/>
<path fill-rule="evenodd" clip-rule="evenodd" d="M272.401 171.26L270.783 167.243L259.107 168.113L269.727 175.342C271.782 175.348 273.534 176.622 274.249 178.419L279.626 182.08L280.314 181.837V176.632L278.044 171.659L272.401 171.26Z" fill="#FEF4CB"/>
<path fill-rule="evenodd" clip-rule="evenodd" d="M272.371 167.125L273.456 169.817L277.328 170.09L275.856 166.865L272.371 167.125Z" fill="#FEF4CB"/>
<path fill-rule="evenodd" clip-rule="evenodd" d="M286.03 164.473C285.336 161.156 283.582 157.879 281.054 155.021L280.314 156.922L277.051 165.308L279.231 170.225L286.581 170.11C286.56 168.277 286.381 166.393 286.03 164.473" fill="#FEF4CB"/>
<path fill-rule="evenodd" clip-rule="evenodd" d="M280.314 172.835L283.899 182.459C285.463 179.294 286.366 175.737 286.55 171.928L280.314 171.8L279.925 171.792L280.314 172.835Z" fill="#FEF4CB"/>
<path fill-rule="evenodd" clip-rule="evenodd" d="M257.481 187.75L247.756 196.332L247.839 196.683C248.85 196.235 249.864 195.783 250.865 195.326C251.17 195.186 251.457 195.093 251.741 195.042C252.233 194.954 252.72 194.99 253.275 195.154C254.515 195.525 255.745 195.808 256.965 196.007C257.208 195.879 257.485 195.806 257.779 195.806C258.229 195.806 258.638 195.978 258.948 196.256C259.904 196.341 260.854 196.372 261.796 196.35L262.197 195.444L257.481 187.75Z" fill="#FEF4CB"/>
<path fill-rule="evenodd" clip-rule="evenodd" d="M258.512 196.213C258.555 196.218 258.598 196.222 258.642 196.226V196.213H258.512Z" fill="#FEF4CB"/>
<path fill-rule="evenodd" clip-rule="evenodd" d="M241.179 195.963C241.074 196.56 240.971 197.153 240.872 197.741C240.79 198.217 240.811 198.579 240.931 198.818L241.175 199.303L241.561 199.163C241.702 199.168 241.86 199.153 242.041 199.121C242.125 199.106 242.221 199.085 242.331 199.056C242.575 198.992 242.813 198.888 243.07 198.775L244.987 197.934C245.31 197.794 245.636 197.65 245.962 197.508L245.764 196.778L241.179 195.963Z" fill="#FEF4CB"/>
<path fill-rule="evenodd" clip-rule="evenodd" d="M247.561 192.376V188.61H249.099V191.465V191.818L247.576 193.057H247.561V192.376ZM249.808 190.834V187.068H251.346V189.922V189.991L249.808 191.241V190.834ZM252.057 189.291V185.526H253.595V188.163L252.057 189.414V189.291ZM254.304 183.985H255.843V186.336L254.304 187.587V183.985ZM256.517 185.787V180.152L253.88 177.865L246.292 184.916L240.006 181.371L236.894 179.616C237.933 182.559 239.532 185.326 241.685 187.731C242.321 188.442 242.494 189.093 242.302 190.048C242.039 191.357 241.794 192.618 241.564 193.848L246.249 194.135L256.517 185.787Z" fill="#FEF4CB"/>
<path fill-rule="evenodd" clip-rule="evenodd" d="M253.719 175.719L256.517 178.145V167.422L255.882 166.407L250.2 172.667L253.719 175.719Z" fill="#FEF4CB"/>
<path fill-rule="evenodd" clip-rule="evenodd" d="M252.727 176.866L248.034 172.796L255.047 165.071L253.185 162.09L246.361 151.172L245.945 150.971C243.207 152.947 240.885 155.479 239.009 158.564C236.505 162.68 235.346 167.362 235.476 171.998C235.527 173.858 235.791 175.71 236.254 177.516L240.006 179.632L246.071 183.052L252.727 176.866Z" fill="#FEF4CB"/>
<path fill-rule="evenodd" clip-rule="evenodd" d="M256.956 155.357L260.352 159.227L261.418 158.052L266.569 156.62L265.013 151.66L261.985 149.72L256.901 154.386C256.95 154.59 256.978 154.802 256.978 155.022C256.978 155.136 256.969 155.246 256.956 155.357" fill="#FEF4CB"/>
<path fill-rule="evenodd" clip-rule="evenodd" d="M263.695 146.093C262.206 145.963 260.697 145.972 259.168 146.116L261.819 147.814L263.695 146.093Z" fill="#FEF4CB"/>
<path fill-rule="evenodd" clip-rule="evenodd" d="M270.098 165.543L267.079 158.051L262.249 159.394L256.9 165.286L257.856 166.865L270.098 165.543Z" fill="#FEF4CB"/>
<path fill-rule="evenodd" clip-rule="evenodd" d="M256.081 163.932L259.326 160.357L256.276 156.881L254.227 159.868L252.045 156.687C251.69 156.225 251.476 155.649 251.476 155.022C251.476 153.506 252.709 152.278 254.227 152.278C254.964 152.278 255.632 152.569 256.125 153.039L260.664 148.874L256.856 146.434C255.954 146.599 255.046 146.808 254.131 147.065C251.876 147.7 249.795 148.586 247.887 149.704L247.756 150.17L256.081 163.932Z" fill="#FEF4CB"/>
<path fill-rule="evenodd" clip-rule="evenodd" d="M262.544 175.467L265.724 177.405C266.092 176.885 266.56 176.441 267.1 176.1L265.377 174.842L263.499 173.47L262.544 175.467Z" fill="#FAD464"/>
<path fill-rule="evenodd" clip-rule="evenodd" d="M267.249 178.333L268.207 178.917L268.237 178.895L269.325 177.725L268.719 177.282C268.129 177.481 267.62 177.851 267.249 178.333" fill="#FAD464"/>
<path fill-rule="evenodd" clip-rule="evenodd" d="M269.285 188.197H268.667V190.764H270.734V188.197H270.137L269.711 188.819L269.285 188.197Z" fill="#FAD464"/>
<path fill-rule="evenodd" clip-rule="evenodd" d="M255.843 183.984H254.304V187.586L255.843 186.337V183.984Z" fill="#FAD464"/>
<path fill-rule="evenodd" clip-rule="evenodd" d="M249.099 191.818V191.464V188.611H247.561V192.376V193.057H247.575L249.099 191.818Z" fill="#FAD464"/>
<path fill-rule="evenodd" clip-rule="evenodd" d="M253.594 185.526H252.056V189.292V189.414L253.594 188.164V185.526Z" fill="#FAD464"/>
<path fill-rule="evenodd" clip-rule="evenodd" d="M251.346 189.922V187.068H249.808V190.834V191.241L251.346 189.991V189.922Z" fill="#FAD464"/>
<path fill-rule="evenodd" clip-rule="evenodd" d="M266.297 150.683L268.244 156.885L271.666 165.374L275.377 164.974L279.983 153.882C278.526 152.422 276.86 151.096 275.029 149.961C275.006 149.947 274.983 149.933 274.96 149.919L274.672 150.009L273.335 148.989C270.854 147.673 268.292 146.79 265.663 146.344L263.139 148.66L266.297 150.683Z" fill="#FEF4CB"/>
<path fill-rule="evenodd" clip-rule="evenodd" d="M269.711 177.118C271.425 177.118 272.814 178.503 272.814 180.213C272.814 180.233 272.811 180.251 272.811 180.271C272.786 181.589 271.936 182.703 270.753 183.124C270.566 183.192 270.37 183.241 270.168 183.271C270.018 183.292 269.866 183.308 269.711 183.308C269.554 183.308 269.403 183.292 269.254 183.271C269.051 183.241 268.856 183.192 268.667 183.124C267.468 182.697 266.607 181.557 266.607 180.213C266.607 179.504 266.848 178.855 267.249 178.334C267.62 177.851 268.129 177.481 268.719 177.282C269.031 177.177 269.363 177.118 269.711 177.118M265.724 177.405C265.16 178.199 264.826 179.166 264.826 180.213C264.826 181.327 265.206 182.352 265.837 183.173L269.139 187.986L269.285 188.197L269.711 188.82L270.137 188.197L270.282 187.986L273.36 183.499L273.582 183.176C274.118 182.48 274.47 181.638 274.566 180.719C274.584 180.553 274.595 180.384 274.595 180.213C274.595 179.581 274.472 178.979 274.251 178.424C274.251 178.423 274.25 178.422 274.249 178.42C273.534 176.622 271.782 175.348 269.727 175.342C269.722 175.342 269.716 175.341 269.711 175.341C268.749 175.341 267.855 175.622 267.1 176.1C266.56 176.442 266.092 176.885 265.724 177.405" fill="#F5C03D"/>
<path fill-rule="evenodd" clip-rule="evenodd" d="M256.965 196.007C257.483 196.091 257.998 196.16 258.512 196.213H258.642V196.226C258.744 196.236 258.847 196.248 258.948 196.256C258.638 195.978 258.229 195.806 257.779 195.806C257.485 195.806 257.208 195.879 256.965 196.007" fill="white"/>
<path fill-rule="evenodd" clip-rule="evenodd" d="M255.975 155.022C255.975 155.984 255.193 156.765 254.227 156.765C253.262 156.765 252.48 155.984 252.48 155.022C252.48 154.059 253.262 153.279 254.227 153.279C255.193 153.279 255.975 154.059 255.975 155.022M251.476 155.022C251.476 155.649 251.69 156.224 252.045 156.686L254.227 159.868L256.277 156.882L256.409 156.689C256.7 156.31 256.895 155.854 256.956 155.356C256.969 155.246 256.978 155.135 256.978 155.022C256.978 154.803 256.95 154.59 256.901 154.386C256.776 153.863 256.503 153.398 256.126 153.039C255.632 152.568 254.964 152.277 254.227 152.277C252.709 152.277 251.476 153.506 251.476 155.022" fill="#F5C03D"/>
<path fill-rule="evenodd" clip-rule="evenodd" d="M254.275 154.187V154.117C254.275 153.876 254.45 153.68 254.665 153.68C254.88 153.68 255.055 153.876 255.055 154.117V154.163V154.233C255.055 154.433 254.935 154.602 254.771 154.654V156.257C254.771 156.315 254.723 156.363 254.665 156.363C254.606 156.363 254.558 156.315 254.558 156.257V154.654C254.4 154.604 254.284 154.444 254.276 154.253H254.275V154.187ZM254.18 154.208C254.18 154.408 254.059 154.577 253.896 154.629V155.021V155.081V155.282V155.473V156.257C253.896 156.315 253.848 156.363 253.79 156.363C253.731 156.363 253.683 156.315 253.683 156.257V155.473V155.282V155.081V155.021V154.629C253.52 154.577 253.4 154.408 253.4 154.208V153.76C253.4 153.72 253.432 153.688 253.471 153.688C253.51 153.688 253.541 153.72 253.541 153.76V154.208C253.541 154.288 253.568 154.361 253.613 154.415V153.75C253.613 153.711 253.644 153.68 253.683 153.68C253.723 153.68 253.755 153.711 253.755 153.75V154.5C253.766 154.503 253.777 154.505 253.79 154.505C253.802 154.505 253.814 154.503 253.825 154.5V153.75C253.825 153.711 253.857 153.68 253.896 153.68C253.935 153.68 253.967 153.711 253.967 153.75V154.415C254.01 154.361 254.037 154.288 254.037 154.208V153.76C254.037 153.72 254.069 153.688 254.109 153.688C254.148 153.688 254.18 153.72 254.18 153.76V154.208ZM252.48 155.021C252.48 155.984 253.262 156.765 254.228 156.765C255.193 156.765 255.975 155.984 255.975 155.021C255.975 154.058 255.193 153.278 254.228 153.278C253.262 153.278 252.48 154.058 252.48 155.021V155.021Z" fill="white"/>
<path fill-rule="evenodd" clip-rule="evenodd" d="M271.132 179.68V181.824H270.386H270.334V181.784V180.512H269.088V181.784V181.824H269.036H268.29V179.68L269.711 178.598L271.132 179.68ZM267.684 180.098L267.943 179.899V182.169H268.667H270.754H271.479V179.899L271.738 180.098L272.037 179.705L272.116 179.604L271.243 178.939V177.841H270.62V178.465L269.711 177.772L269.554 177.892L268.237 178.895L268.208 178.916L267.306 179.604L267.684 180.098Z" fill="#F5C03D"/>
<path fill-rule="evenodd" clip-rule="evenodd" d="M254.558 154.654V156.257C254.558 156.315 254.605 156.363 254.664 156.363C254.723 156.363 254.771 156.315 254.771 156.257V154.654C254.935 154.602 255.055 154.434 255.055 154.234V154.163V154.118C255.055 153.876 254.88 153.68 254.664 153.68C254.45 153.68 254.275 153.876 254.275 154.118V154.187V154.253H254.276C254.283 154.444 254.4 154.604 254.558 154.654" fill="#F5C03D"/>
<path fill-rule="evenodd" clip-rule="evenodd" d="M254.108 153.689C254.069 153.689 254.037 153.721 254.037 153.76V154.208C254.037 154.289 254.01 154.361 253.967 154.415V153.75C253.967 153.712 253.935 153.68 253.896 153.68C253.857 153.68 253.825 153.712 253.825 153.75V154.501C253.813 154.503 253.802 154.505 253.79 154.505C253.777 154.505 253.766 154.503 253.754 154.501V153.75C253.754 153.712 253.722 153.68 253.683 153.68C253.644 153.68 253.612 153.712 253.612 153.75V154.415C253.569 154.361 253.542 154.289 253.542 154.208V153.76C253.542 153.721 253.51 153.689 253.471 153.689C253.431 153.689 253.399 153.721 253.399 153.76V154.208C253.399 154.408 253.519 154.577 253.683 154.629V155.022V155.081V155.282V155.473V156.257C253.683 156.315 253.731 156.363 253.79 156.363C253.848 156.363 253.896 156.315 253.896 156.257V155.473V155.282V155.081V155.022V154.629C254.059 154.577 254.18 154.408 254.18 154.208V153.76C254.18 153.721 254.148 153.689 254.108 153.689" fill="#F5C03D"/>
<mask id="mask2_630_7562" style="mask-type:alpha" maskUnits="userSpaceOnUse" x="230" y="140" width="62" height="65">
<path fill-rule="evenodd" clip-rule="evenodd" d="M230.424 140.812H291.634V204.346H230.424V140.812Z" fill="white"/>
</mask>
<g mask="url(#mask2_630_7562)">
<path fill-rule="evenodd" clip-rule="evenodd" d="M290.159 171.837C289.948 176.184 288.917 180.244 287.134 183.856C286.044 186.059 284.677 188.098 283.041 189.932C281.668 191.47 280.105 192.862 278.365 194.091C277.97 194.371 277.568 194.646 277.154 194.908C276.941 195.043 276.727 195.176 276.511 195.304C272.952 197.456 269.256 198.821 265.448 199.398C264.918 199.479 264.386 199.544 263.851 199.594C263.205 199.653 262.557 199.694 261.905 199.709C260.83 199.736 259.746 199.7 258.654 199.604C258.538 199.594 258.421 199.581 258.305 199.569L258.156 199.555C257.57 199.493 256.982 199.416 256.391 199.319C254.998 199.092 253.594 198.769 252.179 198.347C251.546 198.157 250.989 198.117 250.429 198.218C250.104 198.277 249.777 198.382 249.429 198.541C248.286 199.064 247.128 199.58 245.975 200.09C245.256 200.407 244.543 200.72 243.832 201.032C243.46 201.195 243.087 201.358 242.719 201.519L240.53 202.479C240.237 202.607 239.966 202.727 239.688 202.799C239.562 202.832 239.453 202.856 239.356 202.874C239.15 202.911 238.969 202.926 238.808 202.921L238.368 203.082L238.089 202.527C237.952 202.255 237.929 201.843 238.021 201.298C238.134 200.627 238.253 199.951 238.373 199.269C238.514 198.473 238.661 197.67 238.813 196.854C239.075 195.451 239.354 194.012 239.654 192.518C239.873 191.427 239.676 190.685 238.949 189.873C236.494 187.128 234.668 183.97 233.481 180.612C233.203 179.823 232.959 179.023 232.751 178.215C232.223 176.153 231.923 174.04 231.864 171.916C231.716 166.626 233.038 161.281 235.896 156.582C238.038 153.062 240.687 150.172 243.813 147.916C244.527 147.4 245.266 146.919 246.03 146.471C248.207 145.193 250.582 144.183 253.156 143.459C254.2 143.166 255.237 142.926 256.267 142.738C257.152 142.578 258.032 142.458 258.907 142.376C260.65 142.211 262.373 142.201 264.072 142.348C264.825 142.413 265.574 142.509 266.319 142.636C269.32 143.145 272.242 144.152 275.075 145.655C275.698 145.985 276.315 146.338 276.929 146.715C276.956 146.732 276.982 146.746 277.008 146.764C279.099 148.059 281 149.572 282.663 151.24C282.791 151.367 282.917 151.494 283.041 151.623C283.331 151.924 283.611 152.229 283.885 152.539C286.769 155.801 288.773 159.541 289.566 163.327C289.965 165.519 290.17 167.668 290.193 169.761C290.201 170.46 290.191 171.153 290.159 171.837M290.974 163.075L290.968 163.05C289.572 156.35 284.636 149.809 277.763 145.551C270.032 140.761 261.619 139.595 252.768 142.086C244.98 144.276 238.892 148.904 234.673 155.843C227.98 166.847 229.301 181.232 237.882 190.822C238.302 191.291 238.381 191.596 238.252 192.237C237.624 195.361 237.087 198.248 236.611 201.061C236.405 202.276 236.625 203.188 237.267 203.773C237.911 204.359 238.848 204.498 240.051 204.179C240.441 204.077 240.796 203.921 241.137 203.771L243.271 202.836C245.487 201.866 247.781 200.863 250.024 199.839C250.64 199.558 251.129 199.523 251.769 199.713C256.81 201.216 261.719 201.538 266.458 200.685C270.404 199.975 274.234 198.449 277.921 196.112C288.634 189.322 293.513 176.972 290.974 163.075" fill="#FAD464"/>
</g>
<path fill-rule="evenodd" clip-rule="evenodd" d="M269.215 292.968C269.932 293.434 270.441 294.133 271.16 294.614C275.27 297.364 280.776 297.28 284.706 294.29C286.804 292.693 287.969 290.56 287.98 287.873C287.982 287.567 287.994 287.261 288.001 286.955C288.396 287.159 288.319 287.584 288.355 287.892C288.679 290.685 287.716 292.987 285.625 294.86C283.675 296.607 281.336 297.435 278.79 297.567C276.295 297.696 273.914 297.129 271.793 295.715C270.853 295.09 270.033 294.341 269.366 293.428C269.264 293.288 269.11 293.172 269.215 292.968" fill="#FDE798"/>
<path fill-rule="evenodd" clip-rule="evenodd" d="M59.5821 225.365C63.2805 225.365 66.2781 228.355 66.2781 232.043C66.2781 232.086 66.2725 232.127 66.2718 232.168C66.219 235.014 64.3844 237.418 61.8328 238.327C61.4278 238.471 61.0055 238.576 60.5692 238.64C60.2462 238.688 59.9183 238.721 59.5821 238.721C59.2465 238.721 58.9186 238.688 58.5956 238.64C58.1594 238.576 57.737 238.471 57.332 238.327C54.7422 237.404 52.8861 234.943 52.8861 232.043C52.8861 230.516 53.4057 229.113 54.2706 227.988C55.0715 226.947 56.1691 226.148 57.4418 225.72C58.1149 225.494 58.8332 225.365 59.5821 225.365M50.9792 225.984C49.7636 227.696 49.0425 229.784 49.0425 232.043C49.0425 234.449 49.8615 236.659 51.2252 238.43L58.3491 248.816L58.6631 249.273L59.5821 250.613L60.5019 249.273L60.8152 248.816L67.4563 239.135L67.9349 238.437C69.0916 236.936 69.8508 235.119 70.0593 233.136C70.0968 232.776 70.1225 232.413 70.1225 232.043C70.1225 230.679 69.8536 229.38 69.3799 228.184L69.3757 228.175C67.8335 224.296 64.0524 221.547 59.6182 221.532C59.6057 221.532 59.5946 221.531 59.5821 221.531C57.5085 221.531 55.5794 222.137 53.949 223.169C52.784 223.907 51.7746 224.862 50.9792 225.984" fill="#7952B3"/>
<path fill-rule="evenodd" clip-rule="evenodd" d="M62.6499 230.895V235.519H61.0389H60.9278V235.435V232.688H58.238V235.434V235.519H58.1261H56.5152V230.895L59.5829 228.558L62.6499 230.895ZM55.2091 231.794L55.769 231.369V236.265H57.332H61.8328H63.3972V231.369L63.9564 231.794L64.6032 230.95L64.772 230.729L62.8901 229.295V226.925H61.5445V228.272L59.5821 226.777L59.2438 227.036L56.4011 229.199L56.3386 229.247L54.3928 230.729L55.2091 231.794Z" fill="#7952B3"/>
</svg>
