<svg width="30" height="38" viewBox="0 0 30 38" fill="none" xmlns="http://www.w3.org/2000/svg">
<path d="M15 25.0305C23.1349 25.0305 30 26.37 30 31.538C30 36.708 23.0899 38 15 38C6.86695 38 0 36.6605 0 31.4924C0 26.3225 6.91009 25.0305 15 25.0305ZM15 0C20.5108 0 24.9262 4.47264 24.9262 10.053C24.9262 15.6334 20.5108 20.1079 15 20.1079C9.49106 20.1079 5.07378 15.6334 5.07378 10.053C5.07378 4.47264 9.49106 0 15 0Z" fill="#B9BCBE"/>
<path d="M15 25.0305C23.1349 25.0305 30 26.37 30 31.538C30 36.708 23.0899 38 15 38C6.86695 38 0 36.6605 0 31.4924C0 26.3225 6.91009 25.0305 15 25.0305ZM15 0C20.5108 0 24.9262 4.47264 24.9262 10.053C24.9262 15.6334 20.5108 20.1079 15 20.1079C9.49106 20.1079 5.07378 15.6334 5.07378 10.053C5.07378 4.47264 9.49106 0 15 0Z" fill="white"/>
</svg>
