<svg width="26" height="24" viewBox="0 0 26 24" fill="none" xmlns="http://www.w3.org/2000/svg">
<path d="M7.05421 20.2894C8.13237 20.2894 9.01568 21.1222 9.01568 22.1508C9.01568 23.1673 8.13237 24 7.05421 24C5.96306 24 5.07975 23.1673 5.07975 22.1508C5.07975 21.1222 5.96306 20.2894 7.05421 20.2894ZM21.6678 20.2894C22.746 20.2894 23.6293 21.1222 23.6293 22.1508C23.6293 23.1673 22.746 24 21.6678 24C20.5767 24 19.6934 23.1673 19.6934 22.1508C19.6934 21.1222 20.5767 20.2894 21.6678 20.2894ZM1.01169 0.000143388L1.14407 0.010486L4.24216 0.450121C4.68381 0.524823 5.00856 0.866489 5.04753 1.28286L5.29434 4.02599C5.33331 4.41909 5.67104 4.71299 6.08672 4.71299H23.6295C24.4219 4.71299 24.9415 4.97016 25.4611 5.53348C25.9807 6.0968 26.0716 6.90505 25.9547 7.63859L24.7207 15.672C24.4869 17.2163 23.084 18.3539 21.4343 18.3539H7.2623C5.53465 18.3539 4.10576 17.1061 3.96288 15.4896L2.76781 2.14008L0.806336 1.82169C0.286741 1.73596 -0.0769752 1.25836 0.0139539 0.76852C0.104883 0.267654 0.611488 -0.0642153 1.14407 0.010486L1.01169 0.000143388ZM19.3559 9.24283H15.7577C15.2121 9.24283 14.7834 9.64695 14.7834 10.1613C14.7834 10.6634 15.2121 11.0797 15.7577 11.0797H19.3559C19.9015 11.0797 20.3301 10.6634 20.3301 10.1613C20.3301 9.64695 19.9015 9.24283 19.3559 9.24283Z" fill="#7952B3"/>
</svg>
