<svg width="20" height="17" viewBox="0 0 20 17" fill="none" xmlns="http://www.w3.org/2000/svg">
<path d="M10.4362 0C10.7611 0 11.0251 0.272519 11.0251 0.608925V3.16442C11.0251 3.57369 11.354 3.91309 11.7505 3.91309C12.1567 3.91309 12.4758 3.57369 12.4758 3.16442V0.608925C12.4758 0.272519 12.7398 0 13.0658 0H16.2186C18.3075 0 20 1.74692 20 3.90311V6.41867C20 6.61832 19.9226 6.80799 19.7872 6.94774C19.6518 7.08749 19.4681 7.16735 19.2747 7.16735C18.559 7.16735 17.9787 7.76629 17.9787 8.49501C17.9787 9.22871 18.5522 9.82466 19.2611 9.83265C19.6605 9.83664 20 10.1241 20 10.5364V13.0969C20 15.2521 18.3075 17 16.2186 17H13.0658C12.7398 17 12.4758 16.7275 12.4758 16.3911V14.2349C12.4758 13.8156 12.1567 13.4862 11.7505 13.4862C11.354 13.4862 11.0251 13.8156 11.0251 14.2349V16.3911C11.0251 16.7275 10.7611 17 10.4362 17H3.78143C1.70213 17 0 15.2531 0 13.0969V10.5364C0 10.1241 0.339458 9.83664 0.738878 9.83265C1.44874 9.82466 2.02128 9.22871 2.02128 8.49501C2.02128 7.78626 1.46035 7.24721 0.725339 7.24721C0.531915 7.24721 0.348162 7.16735 0.212766 7.0276C0.0773694 6.88785 0 6.69818 0 6.49853V3.91309C0 1.76089 1.706 0 3.7911 0H10.4362ZM11.7505 6.05931C11.354 6.05931 11.0251 6.39871 11.0251 6.80799V10.8009C11.0251 11.2102 11.354 11.5496 11.7505 11.5496C12.1567 11.5496 12.4758 11.2102 12.4758 10.8009V6.80799C12.4758 6.39871 12.1567 6.05931 11.7505 6.05931Z" fill="#2CD13E"/>
</svg>
