<svg width="22" height="22" viewBox="0 0 22 22" fill="none" xmlns="http://www.w3.org/2000/svg">
<path d="M15.763 0C19.492 0 22 2.618 22 6.501V15.488C22 19.382 19.492 22 15.763 22H6.226C2.4981 22 0 19.382 0 15.488V6.501C0 2.618 2.4981 0 6.226 0H15.763ZM11 5.687C10.538 5.687 10.175 6.05 10.175 6.512V13.497L7.458 10.769C7.304 10.615 7.084 10.527 6.875 10.527C6.6671 10.527 6.457 10.615 6.292 10.769C5.973 11.088 5.973 11.616 6.292 11.935L10.417 16.082C10.725 16.39 11.275 16.39 11.583 16.082L15.708 11.935C16.027 11.616 16.027 11.088 15.708 10.769C15.378 10.45 14.861 10.45 14.531 10.769L11.825 13.497V6.512C11.825 6.05 11.451 5.687 11 5.687Z" fill="white"/>
</svg>
