<svg width="14" height="19" viewBox="0 0 14 19" fill="none" xmlns="http://www.w3.org/2000/svg">
<path d="M9.68625 0C12.0575 0 13.9738 1.01646 14 3.60036V18.0208C14 18.1823 13.965 18.3438 13.895 18.4863C13.7812 18.7143 13.5887 18.8853 13.3525 18.9613C13.125 19.0373 12.8713 18.9993 12.6613 18.8663L6.99125 15.7884L1.3125 18.8663C1.18213 18.9413 1.0325 18.9898 0.88375 18.9898C0.39375 18.9898 0 18.5528 0 18.0208V3.60036C0 1.01646 1.925 0 4.2875 0H9.68625ZM10.2813 5.73778H3.6925C3.31625 5.73778 3.01 6.07026 3.01 6.48825C3.01 6.90528 3.31625 7.23872 3.6925 7.23872H10.2813C10.6575 7.23872 10.9637 6.90528 10.9637 6.48825C10.9637 6.07026 10.6575 5.73778 10.2813 5.73778Z" fill="#FFC107"/>
</svg>
