<svg width="19" height="19" viewBox="0 0 19 19" fill="none" xmlns="http://www.w3.org/2000/svg">
<path d="M11.4211 1.60003C10.3086 0.673124 8.6929 0.673056 7.5804 1.59987L1.07977 7.01553C0.3956 7.58551 0 8.42998 0 9.32046V18C0 18.5523 0.447715 19 1 19H5.33228C5.88456 19 6.33228 18.5523 6.33228 18V13.6667C6.33228 13.1144 6.77999 12.6667 7.33228 12.6667H11.6677C12.22 12.6667 12.6677 13.1144 12.6677 13.6667V18C12.6677 18.5523 13.1154 19 13.6677 19H18C18.5523 19 19 18.5523 19 18V9.32031C19 8.42991 18.6045 7.58552 17.9204 7.01554L11.4211 1.60003Z" fill="#7952B3"/>
</svg>
