<svg width="18" height="22" viewBox="0 0 18 22" fill="none" xmlns="http://www.w3.org/2000/svg">
<path d="M8.98386 0C12.2331 0 14.8476 2.65627 14.8476 5.93561V7.62228C16.6712 8.21365 18 9.92875 18 11.9772V17.4078C18 19.9439 15.9762 22 13.4812 22H4.5199C2.02379 22 0 19.9439 0 17.4078V11.9772C0 9.92875 1.32983 8.21365 3.15242 7.62228V5.93561C3.16318 2.65627 5.77765 0 8.98386 0ZM8.99462 12.5227C8.47818 12.5227 8.05858 12.949 8.05858 13.4737V15.9004C8.05858 16.4361 8.47818 16.8624 8.99462 16.8624C9.52182 16.8624 9.94142 16.4361 9.94142 15.9004V13.4737C9.94142 12.949 9.52182 12.5227 8.99462 12.5227ZM9.00538 1.91295C6.82128 1.91295 5.04603 3.70565 5.03527 5.91374V7.38507H12.9647V5.93561C12.9647 3.71659 11.1895 1.91295 9.00538 1.91295Z" fill="white"/>
</svg>
