<svg width="24" height="22" viewBox="0 0 24 22" fill="none" xmlns="http://www.w3.org/2000/svg">
<path d="M10.9636 0C13.8308 0 16.1692 2.189 16.1692 4.884V10.153H9.1187C8.61341 10.153 8.21388 10.527 8.21388 11C8.21388 11.462 8.61341 11.847 9.1187 11.847H16.1692V17.105C16.1692 19.8 13.8308 22 10.9401 22H5.2174C2.33843 22 0 19.811 0 17.116V4.895C0 2.189 2.35018 0 5.22915 0H10.9636ZM19.103 7.20522C19.4495 6.86422 20.0154 6.86422 20.3619 7.19422L23.7344 10.3952C23.9076 10.5602 24 10.7692 24 11.0002C24 11.2202 23.9076 11.4402 23.7344 11.5942L20.3619 14.7952C20.1887 14.9602 19.9577 15.0482 19.7383 15.0482C19.5073 15.0482 19.2763 14.9602 19.103 14.7952C18.7565 14.4652 18.7565 13.9262 19.103 13.5962L20.9509 11.8472H16.1695V10.1532H20.9509L19.103 8.40422C18.7565 8.07422 18.7565 7.53522 19.103 7.20522Z" fill="white"/>
</svg>
