<svg width="55" height="72" viewBox="0 0 55 72" fill="none" xmlns="http://www.w3.org/2000/svg">
<path d="M27.5 0C20.2092 0.00884692 13.2195 2.99178 8.06408 8.29447C2.9087 13.5971 0.00863043 20.7866 2.92572e-05 28.2857C-0.00870296 34.414 1.93748 40.376 5.54002 45.2571C5.54002 45.2571 6.29002 46.2729 6.41252 46.4194L27.5 72L48.5975 46.4066C48.7075 46.2703 49.46 45.2571 49.46 45.2571L49.4625 45.2494C53.0632 40.3704 55.0085 34.4112 55 28.2857C54.9914 20.7866 52.0913 13.5971 46.9359 8.29447C41.7805 2.99178 34.7908 0.00884692 27.5 0ZM27.5 38.5714C25.5222 38.5714 23.5888 37.9682 21.9443 36.838C20.2998 35.7078 19.0181 34.1014 18.2612 32.2219C17.5043 30.3424 17.3063 28.2743 17.6922 26.2791C18.078 24.2838 19.0304 22.4511 20.4289 21.0126C21.8275 19.5741 23.6093 18.5945 25.5491 18.1976C27.4889 17.8008 29.4996 18.0045 31.3268 18.783C33.1541 19.5615 34.7159 20.8798 35.8147 22.5713C36.9135 24.2628 37.5 26.2514 37.5 28.2857C37.4967 31.0126 36.4421 33.6268 34.5674 35.5551C32.6928 37.4833 30.1511 38.568 27.5 38.5714Z" fill="#7952B3"/>
</svg>
