<svg width="17" height="20" viewBox="0 0 17 20" fill="none" xmlns="http://www.w3.org/2000/svg">
<path d="M2.30608 18.5046L1.51173 17.6876C0.767795 16.9256 0.752648 15.719 1.47691 14.8713L2.91626 13.1844C3.54414 12.4487 4.52858 12.2667 5.51937 12.5909C6.86481 13.0314 7.8395 13.3904 7.8395 13.3904C8.82348 12.7794 9.66944 11.9701 10.3235 11.0141C11.107 9.89363 11.4287 8.92747 11.7025 7.86523C11.7025 7.86523 11.0358 7.06344 10.155 5.96066C9.5676 5.22421 9.15536 4.43255 9.61806 3.60604L10.6946 1.68033C10.9589 1.21284 11.3759 0.850476 11.8757 0.654086C12.3755 0.457696 12.9276 0.439233 13.4394 0.601796L14.5471 0.968236C15.08 1.13862 15.5556 1.45276 15.9215 1.87606C16.2874 2.29935 16.5294 2.8154 16.6208 3.36738C17.0492 6.01135 15.9294 9.44842 13.3642 13.1269C10.7943 16.812 8.18911 18.712 5.44829 19.3754C4.29524 19.6551 3.09389 19.312 2.30685 18.5035L2.30608 18.5046Z" fill="#FFC107"/>
</svg>
