<svg width="17" height="16" viewBox="0 0 17 16" fill="none" xmlns="http://www.w3.org/2000/svg">
<path d="M5.26 9.1759C6.38801 9.1759 7.29203 10.0887 7.29203 11.2247V13.952C7.29203 15.08 6.38801 16 5.26 16H2.55596C1.43594 16 0.523926 15.08 0.523926 13.952V11.2247C0.523926 10.0887 1.43594 9.1759 2.55596 9.1759H5.26ZM14.4922 9.1759C15.6122 9.1759 16.5242 10.0887 16.5242 11.2247V13.952C16.5242 15.08 15.6122 16 14.4922 16H11.7882C10.6602 16 9.75614 15.08 9.75614 13.952V11.2247C9.75614 10.0887 10.6602 9.1759 11.7882 9.1759H14.4922ZM5.26 0C6.38801 0 7.29203 0.920014 7.29203 2.04883V4.77607C7.29203 5.91209 6.38801 6.8241 5.26 6.8241H2.55596C1.43594 6.8241 0.523926 5.91209 0.523926 4.77607V2.04883C0.523926 0.920014 1.43594 0 2.55596 0H5.26ZM14.4922 0C15.6122 0 16.5242 0.920014 16.5242 2.04883V4.77607C16.5242 5.91209 15.6122 6.8241 14.4922 6.8241H11.7882C10.6602 6.8241 9.75614 5.91209 9.75614 4.77607V2.04883C9.75614 0.920014 10.6602 0 11.7882 0H14.4922Z" fill="#B9BCBE"/>
</svg>
