<svg width="17" height="16" viewBox="0 0 17 16" fill="none" xmlns="http://www.w3.org/2000/svg">
<path fill-rule="evenodd" clip-rule="evenodd" d="M8.45368 0C12.6001 0 15.9728 3.3727 15.9728 7.51907C15.9728 9.47532 15.222 11.2595 13.9935 12.5986L16.4109 15.0109C16.6371 15.2371 16.6379 15.6031 16.4116 15.8294C16.2989 15.9436 16.1499 16 16.0016 16C15.8542 16 15.7059 15.9436 15.5924 15.8309L13.1459 13.3912C11.8589 14.4219 10.227 15.0389 8.45368 15.0389C4.30731 15.0389 0.933838 11.6655 0.933838 7.51907C0.933838 3.3727 4.30731 0 8.45368 0ZM8.45368 1.15821C4.94586 1.15821 2.09204 4.01125 2.09204 7.51907C2.09204 11.0269 4.94586 13.8807 8.45368 13.8807C11.9607 13.8807 14.8146 11.0269 14.8146 7.51907C14.8146 4.01125 11.9607 1.15821 8.45368 1.15821Z" fill="#7952B3"/>
</svg>
