<svg width="17" height="18" viewBox="0 0 17 18" fill="none" xmlns="http://www.w3.org/2000/svg">
<path d="M9.14173 0C9.81837 0 10.431 0.378 10.7693 0.936C10.9339 1.206 11.0436 1.539 11.0162 1.89C10.9979 2.16 11.0802 2.43 11.2265 2.682C11.6929 3.447 12.7261 3.735 13.5308 3.303C14.436 2.781 15.579 3.096 16.1002 3.987L16.7128 5.049C17.2432 5.94 16.9506 7.083 16.0362 7.596C15.259 8.055 14.9846 9.072 15.451 9.846C15.5973 10.089 15.7619 10.296 16.0179 10.422C16.3379 10.593 16.5848 10.863 16.7585 11.133C17.0969 11.691 17.0694 12.375 16.7402 12.978L16.1002 14.058C15.7619 14.634 15.1309 14.994 14.4817 14.994C14.1617 14.994 13.8051 14.904 13.5125 14.724C13.2747 14.571 13.0004 14.517 12.7078 14.517C11.8026 14.517 11.0436 15.264 11.0162 16.155C11.0162 17.19 10.175 18 9.12344 18H7.87988C6.8192 18 5.97796 17.19 5.97796 16.155C5.95968 15.264 5.20074 14.517 4.2955 14.517C3.99375 14.517 3.71944 14.571 3.49084 14.724C3.19824 14.904 2.83249 14.994 2.5216 14.994C1.86324 14.994 1.23232 14.634 0.893995 14.058L0.26307 12.978C-0.0752513 12.393 -0.093539 11.691 0.244783 11.133C0.391084 10.863 0.665399 10.593 0.976289 10.422C1.23232 10.296 1.39691 10.089 1.55235 9.846C2.00954 9.072 1.73523 8.055 0.958001 7.596C0.0527623 7.083 -0.23984 5.94 0.281358 5.049L0.893995 3.987C1.42434 3.096 2.55817 2.781 3.47255 3.303C4.26807 3.735 5.30132 3.447 5.76766 2.682C5.91396 2.43 5.99625 2.16 5.97796 1.89C5.95968 1.539 6.06026 1.206 6.23399 0.936C6.57231 0.378 7.18495 0.018 7.85245 0H9.14173ZM8.5108 6.462C7.07522 6.462 5.91396 7.596 5.91396 9.009C5.91396 10.422 7.07522 11.547 8.5108 11.547C9.94639 11.547 11.0802 10.422 11.0802 9.009C11.0802 7.596 9.94639 6.462 8.5108 6.462Z" fill="#B9BCBE"/>
</svg>
