<svg width="22" height="14" viewBox="0 0 22 14" fill="none" xmlns="http://www.w3.org/2000/svg">
<path d="M9.77778 14H12.2222C12.8944 14 13.4444 13.475 13.4444 12.8333C13.4444 12.1917 12.8944 11.6667 12.2222 11.6667H9.77778C9.10556 11.6667 8.55556 12.1917 8.55556 12.8333C8.55556 13.475 9.10556 14 9.77778 14ZM0 1.16667C0 1.80833 0.55 2.33333 1.22222 2.33333H20.7778C21.45 2.33333 22 1.80833 22 1.16667C22 0.525 21.45 0 20.7778 0H1.22222C0.55 0 0 0.525 0 1.16667ZM4.88889 8.16667H17.1111C17.7833 8.16667 18.3333 7.64167 18.3333 7C18.3333 6.35833 17.7833 5.83333 17.1111 5.83333H4.88889C4.21667 5.83333 3.66667 6.35833 3.66667 7C3.66667 7.64167 4.21667 8.16667 4.88889 8.16667Z" fill="#FFC107"/>
</svg>
