<svg width="5" height="19" viewBox="0 0 5 19" fill="none" xmlns="http://www.w3.org/2000/svg">
<path d="M4.18954 2.66979C4.18963 2.94247 4.13601 3.2125 4.03174 3.46447C3.92747 3.71643 3.77459 3.94538 3.58183 4.13826C3.38908 4.33114 3.16022 4.48417 2.90833 4.5886C2.65643 4.69303 2.38643 4.74683 2.11375 4.74692C1.84106 4.747 1.57103 4.69338 1.31907 4.58911C1.06711 4.48484 0.838153 4.33196 0.645274 4.13921C0.452395 3.94645 0.299371 3.71759 0.194938 3.4657C0.0905054 3.2138 0.0367088 2.94381 0.0366212 2.67112C0.0364443 2.12041 0.255044 1.59218 0.644331 1.20265C1.03362 0.81311 1.5617 0.594171 2.11242 0.593994C2.66313 0.593817 3.19135 0.812417 3.58089 1.2017C3.97043 1.59099 4.18937 2.11908 4.18954 2.66979V2.66979Z" fill="#1E273E"/>
<path d="M2.11388 11.8723C3.26031 11.8723 4.18967 10.9429 4.18967 9.7965C4.18967 8.65007 3.26031 7.7207 2.11388 7.7207C0.96745 7.7207 0.0380859 8.65007 0.0380859 9.7965C0.0380859 10.9429 0.96745 11.8723 2.11388 11.8723Z" fill="#1E273E"/>
<path d="M2.11388 19C3.26031 19 4.18967 18.0706 4.18967 16.9242C4.18967 15.7778 3.26031 14.8484 2.11388 14.8484C0.96745 14.8484 0.0380859 15.7778 0.0380859 16.9242C0.0380859 18.0706 0.96745 19 2.11388 19Z" fill="#1E273E"/>
</svg>
